<svg xmlns="http://www.w3.org/2000/svg" xmlns:xlink="http://www.w3.org/1999/xlink" width="1280" height="800" viewBox="0 0 1280 800">
  <defs>
    <filter id="Rectangle_9" x="86" y="64" width="274" height="105" filterUnits="userSpaceOnUse">
      <feOffset dy="3" input="SourceAlpha"/>
      <feGaussianBlur stdDeviation="3" result="blur"/>
      <feFlood flood-opacity="0.161"/>
      <feComposite operator="in" in2="blur"/>
      <feComposite in="SourceGraphic"/>
    </filter>
    <filter id="Path_35" x="86" y="195" width="274" height="105" filterUnits="userSpaceOnUse">
      <feOffset dy="3" input="SourceAlpha"/>
      <feGaussianBlur stdDeviation="3" result="blur-2"/>
      <feFlood flood-opacity="0.161"/>
      <feComposite operator="in" in2="blur-2"/>
      <feComposite in="SourceGraphic"/>
    </filter>
    <filter id="Rectangle_14" x="447" y="608" width="135" height="79" filterUnits="userSpaceOnUse">
      <feOffset dy="3" input="SourceAlpha"/>
      <feGaussianBlur stdDeviation="3" result="blur-3"/>
      <feFlood flood-opacity="0.161"/>
      <feComposite operator="in" in2="blur-3"/>
      <feComposite in="SourceGraphic"/>
    </filter>
    <filter id="Ellipse_2" x="508" y="613" width="70" height="69" filterUnits="userSpaceOnUse">
      <feOffset dy="3" input="SourceAlpha"/>
      <feGaussianBlur stdDeviation="3" result="blur-4"/>
      <feFlood flood-opacity="0.161"/>
      <feComposite operator="in" in2="blur-4"/>
      <feComposite in="SourceGraphic"/>
    </filter>
    <filter id="Rectangle_15" x="581" y="608" width="135" height="79" filterUnits="userSpaceOnUse">
      <feOffset dy="3" input="SourceAlpha"/>
      <feGaussianBlur stdDeviation="3" result="blur-5"/>
      <feFlood flood-opacity="0.161"/>
      <feComposite operator="in" in2="blur-5"/>
      <feComposite in="SourceGraphic"/>
    </filter>
    <filter id="Ellipse_3" x="586" y="613" width="69" height="69" filterUnits="userSpaceOnUse">
      <feOffset dy="3" input="SourceAlpha"/>
      <feGaussianBlur stdDeviation="3" result="blur-6"/>
      <feFlood flood-opacity="0.161"/>
      <feComposite operator="in" in2="blur-6"/>
      <feComposite in="SourceGraphic"/>
    </filter>
    <filter id="Rectangle_16" x="394" y="293.12" width="279" height="75" filterUnits="userSpaceOnUse">
      <feOffset dy="3" input="SourceAlpha"/>
      <feGaussianBlur stdDeviation="3" result="blur-7"/>
      <feFlood flood-opacity="0.161"/>
      <feComposite operator="in" in2="blur-7"/>
      <feComposite in="SourceGraphic"/>
    </filter>
    <filter id="Rectangle_16-2" x="839.544" y="271" width="271" height="59" filterUnits="userSpaceOnUse">
      <feOffset dy="3" input="SourceAlpha"/>
      <feGaussianBlur stdDeviation="2" result="blur-8"/>
      <feFlood flood-opacity="0.161"/>
      <feComposite operator="in" in2="blur-8"/>
      <feComposite in="SourceGraphic"/>
    </filter>
    <filter id="Rectangle_9-2" x="86" y="326" width="274" height="106" filterUnits="userSpaceOnUse">
      <feOffset dy="3" input="SourceAlpha"/>
      <feGaussianBlur stdDeviation="3" result="blur-9"/>
      <feFlood flood-opacity="0.161"/>
      <feComposite operator="in" in2="blur-9"/>
      <feComposite in="SourceGraphic"/>
    </filter>
    <filter id="Rectangle_9-3" x="86" y="458" width="274" height="105" filterUnits="userSpaceOnUse">
      <feOffset dy="3" input="SourceAlpha"/>
      <feGaussianBlur stdDeviation="3" result="blur-10"/>
      <feFlood flood-opacity="0.161"/>
      <feComposite operator="in" in2="blur-10"/>
      <feComposite in="SourceGraphic"/>
    </filter>
    <filter id="Rectangle_16-3" x="685" y="293.12" width="77" height="75" filterUnits="userSpaceOnUse">
      <feOffset dy="3" input="SourceAlpha"/>
      <feGaussianBlur stdDeviation="3" result="blur-11"/>
      <feFlood flood-opacity="0.161"/>
      <feComposite operator="in" in2="blur-11"/>
      <feComposite in="SourceGraphic"/>
    </filter>
    <filter id="Rectangle_16-4" x="796" y="68" width="442" height="77" filterUnits="userSpaceOnUse">
      <feOffset dy="3" input="SourceAlpha"/>
      <feGaussianBlur stdDeviation="3" result="blur-12"/>
      <feFlood flood-opacity="0.161"/>
      <feComposite operator="in" in2="blur-12"/>
      <feComposite in="SourceGraphic"/>
    </filter>
    <filter id="Rectangle_16-5" x="396" y="398.119" width="279" height="75" filterUnits="userSpaceOnUse">
      <feOffset dy="3" input="SourceAlpha"/>
      <feGaussianBlur stdDeviation="3" result="blur-13"/>
      <feFlood flood-opacity="0.161"/>
      <feComposite operator="in" in2="blur-13"/>
      <feComposite in="SourceGraphic"/>
    </filter>
    <filter id="Rectangle_16-6" x="687" y="398.119" width="77" height="75" filterUnits="userSpaceOnUse">
      <feOffset dy="3" input="SourceAlpha"/>
      <feGaussianBlur stdDeviation="3" result="blur-14"/>
      <feFlood flood-opacity="0.161"/>
      <feComposite operator="in" in2="blur-14"/>
      <feComposite in="SourceGraphic"/>
    </filter>
    <filter id="Rectangle_16-7" x="394" y="188.119" width="279" height="75" filterUnits="userSpaceOnUse">
      <feOffset dy="3" input="SourceAlpha"/>
      <feGaussianBlur stdDeviation="3" result="blur-15"/>
      <feFlood flood-opacity="0.161"/>
      <feComposite operator="in" in2="blur-15"/>
      <feComposite in="SourceGraphic"/>
    </filter>
    <filter id="Rectangle_16-8" x="685" y="188.119" width="77" height="75" filterUnits="userSpaceOnUse">
      <feOffset dy="3" input="SourceAlpha"/>
      <feGaussianBlur stdDeviation="3" result="blur-16"/>
      <feFlood flood-opacity="0.161"/>
      <feComposite operator="in" in2="blur-16"/>
      <feComposite in="SourceGraphic"/>
    </filter>
    <filter id="Rectangle_16-9" x="975" y="445" width="134" height="66" filterUnits="userSpaceOnUse">
      <feOffset dy="3" input="SourceAlpha"/>
      <feGaussianBlur stdDeviation="3" result="blur-17"/>
      <feFlood flood-opacity="0.161"/>
      <feComposite operator="in" in2="blur-17"/>
      <feComposite in="SourceGraphic"/>
    </filter>
    <filter id="Rectangle_16-10" x="841" y="445" width="134" height="66" filterUnits="userSpaceOnUse">
      <feOffset dy="3" input="SourceAlpha"/>
      <feGaussianBlur stdDeviation="3" result="blur-18"/>
      <feFlood flood-opacity="0.161"/>
      <feComposite operator="in" in2="blur-18"/>
      <feComposite in="SourceGraphic"/>
    </filter>
    <filter id="Rectangle_16-11" x="841" y="533" width="134" height="66" filterUnits="userSpaceOnUse">
      <feOffset dy="3" input="SourceAlpha"/>
      <feGaussianBlur stdDeviation="3" result="blur-19"/>
      <feFlood flood-opacity="0.161"/>
      <feComposite operator="in" in2="blur-19"/>
      <feComposite in="SourceGraphic"/>
    </filter>
    <filter id="Rectangle_9-4" x="86" y="589" width="274" height="106" filterUnits="userSpaceOnUse">
      <feOffset dy="3" input="SourceAlpha"/>
      <feGaussianBlur stdDeviation="3" result="blur-20"/>
      <feFlood flood-opacity="0.161"/>
      <feComposite operator="in" in2="blur-20"/>
      <feComposite in="SourceGraphic"/>
    </filter>
    <filter id="Rectangle_16-12" x="396" y="503.119" width="279" height="75" filterUnits="userSpaceOnUse">
      <feOffset dy="3" input="SourceAlpha"/>
      <feGaussianBlur stdDeviation="3" result="blur-21"/>
      <feFlood flood-opacity="0.161"/>
      <feComposite operator="in" in2="blur-21"/>
      <feComposite in="SourceGraphic"/>
    </filter>
    <filter id="Rectangle_16-13" x="687" y="503.119" width="77" height="75" filterUnits="userSpaceOnUse">
      <feOffset dy="3" input="SourceAlpha"/>
      <feGaussianBlur stdDeviation="3" result="blur-22"/>
      <feFlood flood-opacity="0.161"/>
      <feComposite operator="in" in2="blur-22"/>
      <feComposite in="SourceGraphic"/>
    </filter>
    <filter id="Rectangle_16-14" x="841" y="621" width="268" height="66" filterUnits="userSpaceOnUse">
      <feOffset dy="3" input="SourceAlpha"/>
      <feGaussianBlur stdDeviation="3" result="blur-23"/>
      <feFlood flood-opacity="0.161"/>
      <feComposite operator="in" in2="blur-23"/>
      <feComposite in="SourceGraphic"/>
    </filter>
    <clipPath id="clip-icons_for_e-commerce_website">
      <rect width="1280" height="800"/>
    </clipPath>
  </defs>
  <g id="icons_for_e-commerce_website" data-name="icons for e-commerce website" clip-path="url(#clip-icons_for_e-commerce_website)">
    <rect width="1280" height="800" fill="#f5e3be"/>
    <g id="light_brown_button" data-name="light brown button" transform="translate(95 70)">
      <g transform="matrix(1, 0, 0, 1, -95, -70)" filter="url(#Rectangle_9)">
        <rect id="Rectangle_9-5" data-name="Rectangle 9" width="256" height="87" rx="43.5" transform="translate(95 70)" fill="#fff"/>
      </g>
      <path id="button" d="M4.539-39.923H9.848q4.224,0,6.411,1.7a5.814,5.814,0,0,1,2.187,4.879,6.209,6.209,0,0,1-.879,3.234,6.393,6.393,0,0,1-2.561,2.374,8.625,8.625,0,0,1,4.206,2.692,6.6,6.6,0,0,1,1.439,4.262,7.1,7.1,0,0,1-2.43,5.514,9.031,9.031,0,0,1-6.281,2.187h-7.4Zm2.654,2.617v8.6H8.726a9.723,9.723,0,0,0,5.234-1.122,3.894,3.894,0,0,0,1.72-3.514q0-3.963-5.383-3.963Zm0,11.29V-15.7H10.52a11.55,11.55,0,0,0,4.243-.579,5.134,5.134,0,0,0,2.224-1.794,4.26,4.26,0,0,0,.86-2.486,4.952,4.952,0,0,0-.486-2.243,5.065,5.065,0,0,0-1.439-1.72,6.508,6.508,0,0,0-2.28-1.122,21.506,21.506,0,0,0-4.953-.374ZM42.559-13.081h-2.58v-3.552q-3.066,4.075-7.439,4.075A7.037,7.037,0,0,1,28.5-13.773,6.606,6.606,0,0,1,25.96-16.95a17.064,17.064,0,0,1-.748-5.776V-32.932h2.542v9.458a22.565,22.565,0,0,0,.318,4.71,5.806,5.806,0,0,0,.972,2.094,4.194,4.194,0,0,0,1.664,1.308,6.011,6.011,0,0,0,2.449.449,6.115,6.115,0,0,0,2.823-.71A6.913,6.913,0,0,0,38.334-17.6a7.177,7.177,0,0,0,1.308-2.617,27.475,27.475,0,0,0,.336-5.421v-7.29h2.58Zm10.505-3.14q0,1.009.262,1.2a2.878,2.878,0,0,0,1.346.187H56.2v2.168a15.968,15.968,0,0,1-2.467.262,3.274,3.274,0,0,1-2.467-.822,3.63,3.63,0,0,1-.785-2.58V-30.764H46.97v-2.168h3.514V-40.6h2.58v7.664H57.1v2.168H53.064Zm12.673,0q0,1.009.262,1.2a2.878,2.878,0,0,0,1.346.187h1.533v2.168a15.968,15.968,0,0,1-2.467.262,3.274,3.274,0,0,1-2.467-.822,3.63,3.63,0,0,1-.785-2.58V-30.764H59.644v-2.168h3.514V-40.6h2.58v7.664h4.038v2.168H65.737Zm6.916-6.654a10.352,10.352,0,0,1,3.009-7.477,9.822,9.822,0,0,1,7.327-3.1,9.822,9.822,0,0,1,7.327,3.1,10.307,10.307,0,0,1,3.009,7.439,10.311,10.311,0,0,1-2.972,7.421,9.8,9.8,0,0,1-7.346,3.084,9.855,9.855,0,0,1-7.365-3.084A10.233,10.233,0,0,1,72.653-22.876Zm18.094.037a7.985,7.985,0,0,0-2.3-5.7,7.291,7.291,0,0,0-5.458-2.411,7.232,7.232,0,0,0-5.439,2.411A8.065,8.065,0,0,0,75.27-22.8a7.885,7.885,0,0,0,2.206,5.645,7.254,7.254,0,0,0,5.477,2.318,7.4,7.4,0,0,0,5.533-2.337A7.844,7.844,0,0,0,90.747-22.838Zm7.327-10.094h2.58v3.552q3.066-4.075,7.439-4.075a7.037,7.037,0,0,1,4.038,1.215,6.606,6.606,0,0,1,2.542,3.178,17.064,17.064,0,0,1,.748,5.776v10.206h-2.542v-9.458a22.565,22.565,0,0,0-.318-4.71,5.806,5.806,0,0,0-.972-2.094,4.194,4.194,0,0,0-1.664-1.308,6.011,6.011,0,0,0-2.449-.449,6.115,6.115,0,0,0-2.823.71,6.913,6.913,0,0,0-2.355,1.981,7.177,7.177,0,0,0-1.308,2.617,27.475,27.475,0,0,0-.336,5.421v7.29h-2.58Z" transform="translate(68.426 68.014)"/>
    </g>
    <g id="inactive_button" data-name="inactive button" transform="translate(95 201.212)">
      <g transform="matrix(1, 0, 0, 1, -95, -201.21)" filter="url(#Path_35)">
        <path id="Path_35-2" data-name="Path 35" d="M43.5,0h169a43.5,43.5,0,0,1,0,87H43.5a43.5,43.5,0,0,1,0-87Z" transform="translate(95 201)" fill="#fff"/>
      </g>
      <path id="button-2" data-name="button" d="M4.539-39.923H9.848q4.224,0,6.411,1.7a5.814,5.814,0,0,1,2.187,4.879,6.209,6.209,0,0,1-.879,3.234,6.393,6.393,0,0,1-2.561,2.374,8.625,8.625,0,0,1,4.206,2.692,6.6,6.6,0,0,1,1.439,4.262,7.1,7.1,0,0,1-2.43,5.514,9.031,9.031,0,0,1-6.281,2.187h-7.4Zm2.654,2.617v8.6H8.726a9.723,9.723,0,0,0,5.234-1.122,3.894,3.894,0,0,0,1.72-3.514q0-3.963-5.383-3.963Zm0,11.29V-15.7H10.52a11.55,11.55,0,0,0,4.243-.579,5.134,5.134,0,0,0,2.224-1.794,4.26,4.26,0,0,0,.86-2.486,4.952,4.952,0,0,0-.486-2.243,5.065,5.065,0,0,0-1.439-1.72,6.508,6.508,0,0,0-2.28-1.122,21.506,21.506,0,0,0-4.953-.374ZM42.559-13.081h-2.58v-3.552q-3.066,4.075-7.439,4.075A7.037,7.037,0,0,1,28.5-13.773,6.606,6.606,0,0,1,25.96-16.95a17.064,17.064,0,0,1-.748-5.776V-32.932h2.542v9.458a22.565,22.565,0,0,0,.318,4.71,5.806,5.806,0,0,0,.972,2.094,4.194,4.194,0,0,0,1.664,1.308,6.011,6.011,0,0,0,2.449.449,6.115,6.115,0,0,0,2.823-.71A6.913,6.913,0,0,0,38.334-17.6a7.177,7.177,0,0,0,1.308-2.617,27.475,27.475,0,0,0,.336-5.421v-7.29h2.58Zm10.505-3.14q0,1.009.262,1.2a2.878,2.878,0,0,0,1.346.187H56.2v2.168a15.968,15.968,0,0,1-2.467.262,3.274,3.274,0,0,1-2.467-.822,3.63,3.63,0,0,1-.785-2.58V-30.764H46.97v-2.168h3.514V-40.6h2.58v7.664H57.1v2.168H53.064Zm12.673,0q0,1.009.262,1.2a2.878,2.878,0,0,0,1.346.187h1.533v2.168a15.968,15.968,0,0,1-2.467.262,3.274,3.274,0,0,1-2.467-.822,3.63,3.63,0,0,1-.785-2.58V-30.764H59.644v-2.168h3.514V-40.6h2.58v7.664h4.038v2.168H65.737Zm6.916-6.654a10.352,10.352,0,0,1,3.009-7.477,9.822,9.822,0,0,1,7.327-3.1,9.822,9.822,0,0,1,7.327,3.1,10.307,10.307,0,0,1,3.009,7.439,10.311,10.311,0,0,1-2.972,7.421,9.8,9.8,0,0,1-7.346,3.084,9.855,9.855,0,0,1-7.365-3.084A10.233,10.233,0,0,1,72.653-22.876Zm18.094.037a7.985,7.985,0,0,0-2.3-5.7,7.291,7.291,0,0,0-5.458-2.411,7.232,7.232,0,0,0-5.439,2.411A8.065,8.065,0,0,0,75.27-22.8a7.885,7.885,0,0,0,2.206,5.645,7.254,7.254,0,0,0,5.477,2.318,7.4,7.4,0,0,0,5.533-2.337A7.844,7.844,0,0,0,90.747-22.838Zm7.327-10.094h2.58v3.552q3.066-4.075,7.439-4.075a7.037,7.037,0,0,1,4.038,1.215,6.606,6.606,0,0,1,2.542,3.178,17.064,17.064,0,0,1,.748,5.776v10.206h-2.542v-9.458a22.565,22.565,0,0,0-.318-4.71,5.806,5.806,0,0,0-.972-2.094,4.194,4.194,0,0,0-1.664-1.308,6.011,6.011,0,0,0-2.449-.449,6.115,6.115,0,0,0-2.823.71,6.913,6.913,0,0,0-2.355,1.981,7.177,7.177,0,0,0-1.308,2.617,27.475,27.475,0,0,0-.336,5.421v7.29h-2.58Z" transform="translate(68.426 68.014)" fill="#d8d8d8"/>
    </g>
    <g id="Rectangle_13" data-name="Rectangle 13" transform="translate(502 82.119)" fill="#6dd666" stroke="#6dd666" stroke-width="1">
      <rect width="60" height="59" rx="22" stroke="none"/>
      <rect x="0.5" y="0.5" width="59" height="58" rx="21.5" fill="none"/>
    </g>
    <g id="checkmark" transform="matrix(0.998, 0.07, -0.07, 0.998, 518.708, 101.128)">
      <line id="Line_1" data-name="Line 1" x2="11.092" y2="7.83" transform="translate(0 10.988)" fill="none" stroke="#0b0b0b" stroke-linecap="round" stroke-width="6"/>
      <g id="Group_21" data-name="Group 21" transform="translate(11.092 0)">
        <line id="Line_2" data-name="Line 2" x1="16.102" y2="18.817" transform="translate(0 0)" fill="none" stroke="#0b0b0b" stroke-linecap="round" stroke-width="6"/>
      </g>
    </g>
    <g id="empty_check_box" data-name="empty check box" transform="translate(409 82.119)" fill="#fff" stroke="#af8c60" stroke-width="2">
      <rect width="60" height="59" rx="22" stroke="none"/>
      <rect x="1" y="1" width="58" height="57" rx="21" fill="none"/>
    </g>
    <g id="x_check_box" data-name="x check box" transform="translate(594.646 81.775)">
      <g id="Rectangle_13-2" data-name="Rectangle 13" transform="translate(0.354 0.345)" fill="#dc523f" stroke="#dc523f" stroke-width="1">
        <rect width="59" height="59" rx="22" stroke="none"/>
        <rect x="0.5" y="0.5" width="58" height="58" rx="21.5" fill="none"/>
      </g>
      <g id="X" transform="translate(17.676 17.666)">
        <line id="Line_4" data-name="Line 4" x2="24.232" y2="24.251" transform="translate(0)" fill="none" stroke="#000" stroke-linecap="round" stroke-width="6"/>
        <path id="Path_18" data-name="Path 18" d="M24.163,0,0,24.251" transform="translate(0)" fill="none" stroke="#000" stroke-linecap="round" stroke-width="6"/>
      </g>
    </g>
    <g id="ON_slider" data-name="ON slider" transform="translate(456 613.924)">
      <g transform="matrix(1, 0, 0, 1, -456, -613.92)" filter="url(#Rectangle_14)">
        <rect id="Rectangle_14-2" data-name="Rectangle 14" width="117" height="61" rx="30.5" transform="translate(456 614)" fill="#fff"/>
      </g>
      <g transform="matrix(1, 0, 0, 1, -456, -613.92)" filter="url(#Ellipse_2)">
        <ellipse id="Ellipse_2-2" data-name="Ellipse 2" cx="26" cy="25.5" rx="26" ry="25.5" transform="translate(517 619)" fill="#fd9426"/>
      </g>
      <path id="ON" d="M1.568-13.483a8.852,8.852,0,0,1,1.159-4.449,8.415,8.415,0,0,1,3.174-3.2,8.66,8.66,0,0,1,4.391-1.159,8.919,8.919,0,0,1,4.426,1.147,8.368,8.368,0,0,1,3.221,3.174,8.656,8.656,0,0,1,1.17,4.4,8.723,8.723,0,0,1-1.159,4.4,8.414,8.414,0,0,1-3.186,3.186,8.723,8.723,0,0,1-4.4,1.159A8.855,8.855,0,0,1,5.947-5.964,8.415,8.415,0,0,1,2.738-9.127,8.53,8.53,0,0,1,1.568-13.483Zm15.8-.07A6.85,6.85,0,0,0,15.3-18.6,6.826,6.826,0,0,0,10.3-20.666,6.661,6.661,0,0,0,5.31-18.592a7,7,0,0,0-2,5.051A6.856,6.856,0,0,0,5.368-8.5,6.788,6.788,0,0,0,10.35-6.439a6.828,6.828,0,0,0,4.97-2.016A6.848,6.848,0,0,0,17.371-13.552Zm5.075,8.319V-21.871h.371L33.869-9.127V-21.871h1.645V-5.234h-.371L24.16-17.816V-5.234Z" transform="translate(14.625 45.221)" fill="#2b2927"/>
    </g>
    <g id="OFF_slider" data-name="OFF slider" transform="translate(589.993 613.924)">
      <g transform="matrix(1, 0, 0, 1, -589.99, -613.92)" filter="url(#Rectangle_15)">
        <rect id="Rectangle_15-2" data-name="Rectangle 15" width="117" height="61" rx="30.5" transform="translate(590 614)" fill="#fd9426"/>
      </g>
      <g transform="matrix(1, 0, 0, 1, -589.99, -613.92)" filter="url(#Ellipse_3)">
        <circle id="Ellipse_3-2" data-name="Ellipse 3" cx="25.5" cy="25.5" r="25.5" transform="translate(595 619)" fill="#fff"/>
      </g>
      <path id="OFF" d="M1.568-13.483a8.852,8.852,0,0,1,1.159-4.449,8.415,8.415,0,0,1,3.174-3.2,8.66,8.66,0,0,1,4.391-1.159,8.919,8.919,0,0,1,4.426,1.147,8.368,8.368,0,0,1,3.221,3.174,8.656,8.656,0,0,1,1.17,4.4,8.723,8.723,0,0,1-1.159,4.4,8.414,8.414,0,0,1-3.186,3.186,8.723,8.723,0,0,1-4.4,1.159A8.855,8.855,0,0,1,5.947-5.964,8.415,8.415,0,0,1,2.738-9.127,8.53,8.53,0,0,1,1.568-13.483Zm15.8-.07A6.85,6.85,0,0,0,15.3-18.6,6.826,6.826,0,0,0,10.3-20.666,6.661,6.661,0,0,0,5.31-18.592a7,7,0,0,0-2,5.051A6.856,6.856,0,0,0,5.368-8.5,6.788,6.788,0,0,0,10.35-6.439a6.828,6.828,0,0,0,4.97-2.016A6.848,6.848,0,0,0,17.371-13.552Zm5.051-8.319h8.342v1.645H24.091v5.19h6.673v1.645H24.091v8.156H22.422Zm11.238,0H42v1.645H35.329v5.19H42v1.645H35.329v8.156H33.66Z" transform="translate(63.451 45.221)" fill="#fff"/>
    </g>
    <g id="search_bar" data-name="search bar" transform="translate(403 299.416)">
      <g transform="matrix(1, 0, 0, 1, -403, -299.42)" filter="url(#Rectangle_16)">
        <rect id="Rectangle_16-15" data-name="Rectangle 16" width="261" height="57" rx="28.5" transform="translate(403 299.12)" fill="#23d1e4"/>
      </g>
      <g id="magnifying_glass" data-name="magnifying glass" transform="translate(207.714 10.965)">
        <g id="Path_19" data-name="Path 19" fill="none" stroke-linecap="round">
          <path d="M12.477,0A12.477,12.477,0,1,1,0,12.477,12.477,12.477,0,0,1,12.477,0Z" stroke="none"/>
          <path d="M 12.47741794586182 4.999998092651367 C 8.354358673095703 4.999998092651367 4.999998092651367 8.354358673095703 4.999998092651367 12.47741794586182 C 4.999998092651367 16.60047912597656 8.354358673095703 19.95483779907227 12.47741794586182 19.95483779907227 C 16.60047912597656 19.95483779907227 19.95483779907227 16.60047912597656 19.95483779907227 12.47741794586182 C 19.95483779907227 8.354358673095703 16.60047912597656 4.999998092651367 12.47741794586182 4.999998092651367 M 12.47741794586182 -1.9073486328125e-06 C 19.36850738525391 -1.9073486328125e-06 24.95483779907227 5.586328506469727 24.95483779907227 12.47741794586182 C 24.95483779907227 19.36850738525391 19.36850738525391 24.95483779907227 12.47741794586182 24.95483779907227 C 5.586328506469727 24.95483779907227 -1.9073486328125e-06 19.36850738525391 -1.9073486328125e-06 12.47741794586182 C -1.9073486328125e-06 5.586328506469727 5.586328506469727 -1.9073486328125e-06 12.47741794586182 -1.9073486328125e-06 Z" stroke="none" fill="#fff"/>
        </g>
        <path id="Path_20" data-name="Path 20" d="M0,0,9.624,9.92" transform="translate(19.642 20.573)" fill="none" stroke="#fff" stroke-linecap="round" stroke-width="5"/>
      </g>
      <path id="search" d="M.364-8.339l1.413-.834Q3.26-6.439,5.23-6.439A3.147,3.147,0,0,0,7.408-7.25a2.6,2.6,0,0,0,.9-2.016,3.123,3.123,0,0,0-.765-1.923A14.02,14.02,0,0,0,5.01-13.494a20.388,20.388,0,0,1-2.387-1.993,4.39,4.39,0,0,1-.9-1.413,4.2,4.2,0,0,1-.29-1.518,3.7,3.7,0,0,1,1.147-2.746,3.955,3.955,0,0,1,2.885-1.124,4.184,4.184,0,0,1,2.387.684,7.853,7.853,0,0,1,1.97,2.027L8.474-18.534a8.278,8.278,0,0,0-1.344-1.46,2.572,2.572,0,0,0-1.7-.579,2.3,2.3,0,0,0-1.645.6,2.014,2.014,0,0,0-.637,1.529,2.442,2.442,0,0,0,.568,1.61,17.009,17.009,0,0,0,2.572,2.167A13.782,13.782,0,0,1,9.2-11.93a4.4,4.4,0,0,1,.915,2.642,4.194,4.194,0,0,1-1.4,3.14A4.581,4.581,0,0,1,5.462-4.817Q2.195-4.817.364-8.339Zm23.357-.881,1.344.7a6.345,6.345,0,0,1-5.886,3.707,6.041,6.041,0,0,1-4.588-1.912,6.456,6.456,0,0,1-1.807-4.6A6.474,6.474,0,0,1,14.6-15.939a5.94,5.94,0,0,1,4.5-1.923,6.168,6.168,0,0,1,4.5,1.784,6.73,6.73,0,0,1,1.888,4.866H14.406a5.128,5.128,0,0,0,1.4,3.58A4.364,4.364,0,0,0,19.04-6.277,5,5,0,0,0,23.721-9.219Zm0-3.36A4.323,4.323,0,0,0,22.1-15.337a4.773,4.773,0,0,0-2.989-1q-3.476,0-4.542,3.754Zm16.961-4.959v12.3H39.13V-7.342a6.179,6.179,0,0,1-4.82,2.526,6.11,6.11,0,0,1-4.576-1.935,6.414,6.414,0,0,1-1.865-4.611,6.315,6.315,0,0,1,1.877-4.588,6.078,6.078,0,0,1,4.5-1.912A5.79,5.79,0,0,1,39.13-15.29v-2.248Zm-1.46,6.21a4.9,4.9,0,0,0-1.413-3.557,4.653,4.653,0,0,0-3.464-1.448,4.583,4.583,0,0,0-3.464,1.495A4.971,4.971,0,0,0,29.467-11.3,4.929,4.929,0,0,0,30.9-7.771a4.606,4.606,0,0,0,3.441,1.495,4.694,4.694,0,0,0,3.441-1.437A4.9,4.9,0,0,0,39.222-11.328Zm4.426-6.21H45.27v1.784a6.213,6.213,0,0,1,1.263-1.6,2.088,2.088,0,0,1,1.367-.51,3.149,3.149,0,0,1,1.518.417L48.584-16.1a1.378,1.378,0,0,0-.718-.209,1.8,1.8,0,0,0-1.356.741,4.67,4.67,0,0,0-.938,1.912,19.9,19.9,0,0,0-.3,4.252v4.171H43.648Zm19.6,2.549L62-14.2a5.265,5.265,0,0,0-4.449-2.155,5.219,5.219,0,0,0-3.731,1.425A4.668,4.668,0,0,0,52.314-11.4,4.969,4.969,0,0,0,53.8-7.783a5.046,5.046,0,0,0,3.754,1.506A5.464,5.464,0,0,0,62-8.432l1.251.834A6,6,0,0,1,60.76-5.535a7.98,7.98,0,0,1-3.371.718,6.526,6.526,0,0,1-4.762-1.877,6.183,6.183,0,0,1-1.912-4.588,6.336,6.336,0,0,1,1.935-4.646,6.728,6.728,0,0,1,4.97-1.935,7.234,7.234,0,0,1,3.3.765A5.571,5.571,0,0,1,63.251-14.989Zm2.966-7.3h1.6v6.951a5.621,5.621,0,0,1,4.611-2.526,4.362,4.362,0,0,1,2.5.753A4.1,4.1,0,0,1,76.5-15.14a10.577,10.577,0,0,1,.463,3.58v6.326h-1.6V-11.1a19.441,19.441,0,0,0-.116-2.618,3.772,3.772,0,0,0-.51-1.367,2.586,2.586,0,0,0-1.054-.985,3.493,3.493,0,0,0-1.6-.336,3.88,3.88,0,0,0-1.8.44,4.285,4.285,0,0,0-1.46,1.228,4.448,4.448,0,0,0-.811,1.622,17.029,17.029,0,0,0-.209,3.36v4.518h-1.6Z" transform="translate(24.764 41.083)" fill="#fff"/>
    </g>
    <g id="sort_by_bar" data-name="sort by bar" transform="translate(846.026 274.118)">
      <g id="search_bar-2" data-name="search bar" transform="translate(0 0)">
        <g transform="matrix(1, 0, 0, 1, -846.03, -274.12)" filter="url(#Rectangle_16-2)">
          <rect id="Rectangle_16-16" data-name="Rectangle 16" width="259" height="47" rx="17" transform="translate(845.54 274)" fill="#fff"/>
        </g>
      </g>
      <g id="back_arrow" data-name="back arrow" transform="translate(226.208 29.294) rotate(-90)">
        <line id="Line_10" data-name="Line 10" y1="8.521" x2="7.78" transform="translate(0 0)" fill="none" stroke="#000" stroke-linecap="round" stroke-width="5"/>
        <path id="Path_23" data-name="Path 23" d="M0,0,7.767,8.244" transform="translate(0.013 8.595)" fill="none" stroke="#000" stroke-linecap="round" stroke-width="5"/>
      </g>
      <path id="Path_33" data-name="Path 33" d="M6.306-13.9a5.4,5.4,0,0,0-1.182-1.26,2.017,2.017,0,0,0-1.138-.322,1.537,1.537,0,0,0-1.095.417,1.4,1.4,0,0,0-.443,1.069,1.7,1.7,0,0,0,.417,1.138,13.448,13.448,0,0,0,1.92,1.59,9.872,9.872,0,0,1,2.2,2.077,3.472,3.472,0,0,1,.7,2.051A3.263,3.263,0,0,1,6.592-4.7,3.553,3.553,0,0,1,4.064-3.663Q1.526-3.663.084-6.5l1.269-.73q1.13,2.1,2.537,2.1A2.243,2.243,0,0,0,5.437-5.7,1.745,1.745,0,0,0,6.08-7.035a2.314,2.314,0,0,0-.539-1.451,10.505,10.505,0,0,0-1.859-1.686,16.5,16.5,0,0,1-1.816-1.521A3.359,3.359,0,0,1,1.144-12.8a3.288,3.288,0,0,1-.226-1.182A2.919,2.919,0,0,1,1.8-16.132a3.069,3.069,0,0,1,2.268-.878,3.24,3.24,0,0,1,1.877.547A6.487,6.487,0,0,1,7.5-14.838Zm8.064.209a4.674,4.674,0,0,1,3.484,1.477,4.909,4.909,0,0,1,1.434,3.545,4.911,4.911,0,0,1-1.416,3.537,4.671,4.671,0,0,1-3.5,1.468,4.7,4.7,0,0,1-3.51-1.468A4.9,4.9,0,0,1,9.434-8.668a4.909,4.909,0,0,1,1.434-3.545A4.694,4.694,0,0,1,14.369-13.691Zm0,8.654a3.3,3.3,0,0,0,2.459-1.051,3.518,3.518,0,0,0,1.017-2.537A3.6,3.6,0,0,0,16.811-11.2a3.272,3.272,0,0,0-2.45-1.086A3.245,3.245,0,0,0,11.919-11.2a3.631,3.631,0,0,0-1.025,2.581,3.548,3.548,0,0,0,.991,2.537A3.284,3.284,0,0,0,14.369-5.036Zm10.879-8.272L24.5-12.092a1.223,1.223,0,0,0-.573-.156,1.25,1.25,0,0,0-.973.53,3.526,3.526,0,0,0-.652,1.39,14.738,14.738,0,0,0-.217,3.1v3.25h-1.46v-9.471h1.46v1.025a3.663,3.663,0,0,1,.878-.956,1.705,1.705,0,0,1,1.008-.313A2.761,2.761,0,0,1,25.248-13.308Zm5.6,1.112H28.967v6.639q0,.365.1.443a1.052,1.052,0,0,0,.521.078h.834V-3.8a8.391,8.391,0,0,1-1.269.139,1.659,1.659,0,0,1-1.234-.408,1.8,1.8,0,0,1-.4-1.295V-12.2H25.891v-1.251h1.634V-17.01h1.442v3.563h1.877Zm7.368.139a4.616,4.616,0,0,1,3.545-1.634,4.651,4.651,0,0,1,3.484,1.468,4.911,4.911,0,0,1,1.416,3.537A4.894,4.894,0,0,1,45.216-5.14a4.692,4.692,0,0,1-3.484,1.477,4.45,4.45,0,0,1-3.519-1.773v1.46H36.8V-17.01h1.408Zm3.458,7a3.326,3.326,0,0,0,2.511-1.095,3.614,3.614,0,0,0,1.034-2.563,3.664,3.664,0,0,0-1.008-2.563,3.283,3.283,0,0,0-2.52-1.095,3.417,3.417,0,0,0-2.529,1.025,3.515,3.515,0,0,0-1.017,2.581,3.676,3.676,0,0,0,1.025,2.633A3.323,3.323,0,0,0,41.671-5.054Zm14.98-8.394L51.038-.622H49.543l1.825-4.171-3.841-8.654h1.495l3.111,6.934,3.006-6.934Z" transform="translate(15.709 34.38)"/>
    </g>
    <g id="dark_blue_button" data-name="dark blue button" transform="translate(95 332.423)">
      <g transform="matrix(1, 0, 0, 1, -95, -332.42)" filter="url(#Rectangle_9-2)">
        <rect id="Rectangle_9-6" data-name="Rectangle 9" width="256" height="88" rx="44" transform="translate(95 332)" fill="#ff9419"/>
      </g>
      <path id="button-3" data-name="button" d="M4.539-39.923H9.848q4.224,0,6.411,1.7a5.814,5.814,0,0,1,2.187,4.879,6.209,6.209,0,0,1-.879,3.234,6.393,6.393,0,0,1-2.561,2.374,8.625,8.625,0,0,1,4.206,2.692,6.6,6.6,0,0,1,1.439,4.262,7.1,7.1,0,0,1-2.43,5.514,9.031,9.031,0,0,1-6.281,2.187h-7.4Zm2.654,2.617v8.6H8.726a9.723,9.723,0,0,0,5.234-1.122,3.894,3.894,0,0,0,1.72-3.514q0-3.963-5.383-3.963Zm0,11.29V-15.7H10.52a11.55,11.55,0,0,0,4.243-.579,5.134,5.134,0,0,0,2.224-1.794,4.26,4.26,0,0,0,.86-2.486,4.952,4.952,0,0,0-.486-2.243,5.065,5.065,0,0,0-1.439-1.72,6.508,6.508,0,0,0-2.28-1.122,21.506,21.506,0,0,0-4.953-.374ZM42.559-13.081h-2.58v-3.552q-3.066,4.075-7.439,4.075A7.037,7.037,0,0,1,28.5-13.773,6.606,6.606,0,0,1,25.96-16.95a17.064,17.064,0,0,1-.748-5.776V-32.932h2.542v9.458a22.565,22.565,0,0,0,.318,4.71,5.806,5.806,0,0,0,.972,2.094,4.194,4.194,0,0,0,1.664,1.308,6.011,6.011,0,0,0,2.449.449,6.115,6.115,0,0,0,2.823-.71A6.913,6.913,0,0,0,38.334-17.6a7.177,7.177,0,0,0,1.308-2.617,27.475,27.475,0,0,0,.336-5.421v-7.29h2.58Zm10.505-3.14q0,1.009.262,1.2a2.878,2.878,0,0,0,1.346.187H56.2v2.168a15.968,15.968,0,0,1-2.467.262,3.274,3.274,0,0,1-2.467-.822,3.63,3.63,0,0,1-.785-2.58V-30.764H46.97v-2.168h3.514V-40.6h2.58v7.664H57.1v2.168H53.064Zm12.673,0q0,1.009.262,1.2a2.878,2.878,0,0,0,1.346.187h1.533v2.168a15.968,15.968,0,0,1-2.467.262,3.274,3.274,0,0,1-2.467-.822,3.63,3.63,0,0,1-.785-2.58V-30.764H59.644v-2.168h3.514V-40.6h2.58v7.664h4.038v2.168H65.737Zm6.916-6.654a10.352,10.352,0,0,1,3.009-7.477,9.822,9.822,0,0,1,7.327-3.1,9.822,9.822,0,0,1,7.327,3.1,10.307,10.307,0,0,1,3.009,7.439,10.311,10.311,0,0,1-2.972,7.421,9.8,9.8,0,0,1-7.346,3.084,9.855,9.855,0,0,1-7.365-3.084A10.233,10.233,0,0,1,72.653-22.876Zm18.094.037a7.985,7.985,0,0,0-2.3-5.7,7.291,7.291,0,0,0-5.458-2.411,7.232,7.232,0,0,0-5.439,2.411A8.065,8.065,0,0,0,75.27-22.8a7.885,7.885,0,0,0,2.206,5.645,7.254,7.254,0,0,0,5.477,2.318,7.4,7.4,0,0,0,5.533-2.337A7.844,7.844,0,0,0,90.747-22.838Zm7.327-10.094h2.58v3.552q3.066-4.075,7.439-4.075a7.037,7.037,0,0,1,4.038,1.215,6.606,6.606,0,0,1,2.542,3.178,17.064,17.064,0,0,1,.748,5.776v10.206h-2.542v-9.458a22.565,22.565,0,0,0-.318-4.71,5.806,5.806,0,0,0-.972-2.094,4.194,4.194,0,0,0-1.664-1.308,6.011,6.011,0,0,0-2.449-.449,6.115,6.115,0,0,0-2.823.71,6.913,6.913,0,0,0-2.355,1.981,7.177,7.177,0,0,0-1.308,2.617,27.475,27.475,0,0,0-.336,5.421v7.29h-2.58Z" transform="translate(68.426 68.014)" fill="#fff"/>
    </g>
    <g id="dark_blue_button-2" data-name="dark blue button" transform="translate(95 463.635)">
      <g transform="matrix(1, 0, 0, 1, -95, -463.64)" filter="url(#Rectangle_9-3)">
        <rect id="Rectangle_9-7" data-name="Rectangle 9" width="256" height="87" rx="43.5" transform="translate(95 464)" fill="#ff9419"/>
      </g>
      <path id="button-4" data-name="button" d="M4.539-39.923H9.848q4.224,0,6.411,1.7a5.814,5.814,0,0,1,2.187,4.879,6.209,6.209,0,0,1-.879,3.234,6.393,6.393,0,0,1-2.561,2.374,8.625,8.625,0,0,1,4.206,2.692,6.6,6.6,0,0,1,1.439,4.262,7.1,7.1,0,0,1-2.43,5.514,9.031,9.031,0,0,1-6.281,2.187h-7.4Zm2.654,2.617v8.6H8.726a9.723,9.723,0,0,0,5.234-1.122,3.894,3.894,0,0,0,1.72-3.514q0-3.963-5.383-3.963Zm0,11.29V-15.7H10.52a11.55,11.55,0,0,0,4.243-.579,5.134,5.134,0,0,0,2.224-1.794,4.26,4.26,0,0,0,.86-2.486,4.952,4.952,0,0,0-.486-2.243,5.065,5.065,0,0,0-1.439-1.72,6.508,6.508,0,0,0-2.28-1.122,21.506,21.506,0,0,0-4.953-.374ZM42.559-13.081h-2.58v-3.552q-3.066,4.075-7.439,4.075A7.037,7.037,0,0,1,28.5-13.773,6.606,6.606,0,0,1,25.96-16.95a17.064,17.064,0,0,1-.748-5.776V-32.932h2.542v9.458a22.565,22.565,0,0,0,.318,4.71,5.806,5.806,0,0,0,.972,2.094,4.194,4.194,0,0,0,1.664,1.308,6.011,6.011,0,0,0,2.449.449,6.115,6.115,0,0,0,2.823-.71A6.913,6.913,0,0,0,38.334-17.6a7.177,7.177,0,0,0,1.308-2.617,27.475,27.475,0,0,0,.336-5.421v-7.29h2.58Zm10.505-3.14q0,1.009.262,1.2a2.878,2.878,0,0,0,1.346.187H56.2v2.168a15.968,15.968,0,0,1-2.467.262,3.274,3.274,0,0,1-2.467-.822,3.63,3.63,0,0,1-.785-2.58V-30.764H46.97v-2.168h3.514V-40.6h2.58v7.664H57.1v2.168H53.064Zm12.673,0q0,1.009.262,1.2a2.878,2.878,0,0,0,1.346.187h1.533v2.168a15.968,15.968,0,0,1-2.467.262,3.274,3.274,0,0,1-2.467-.822,3.63,3.63,0,0,1-.785-2.58V-30.764H59.644v-2.168h3.514V-40.6h2.58v7.664h4.038v2.168H65.737Zm6.916-6.654a10.352,10.352,0,0,1,3.009-7.477,9.822,9.822,0,0,1,7.327-3.1,9.822,9.822,0,0,1,7.327,3.1,10.307,10.307,0,0,1,3.009,7.439,10.311,10.311,0,0,1-2.972,7.421,9.8,9.8,0,0,1-7.346,3.084,9.855,9.855,0,0,1-7.365-3.084A10.233,10.233,0,0,1,72.653-22.876Zm18.094.037a7.985,7.985,0,0,0-2.3-5.7,7.291,7.291,0,0,0-5.458-2.411,7.232,7.232,0,0,0-5.439,2.411A8.065,8.065,0,0,0,75.27-22.8a7.885,7.885,0,0,0,2.206,5.645,7.254,7.254,0,0,0,5.477,2.318,7.4,7.4,0,0,0,5.533-2.337A7.844,7.844,0,0,0,90.747-22.838Zm7.327-10.094h2.58v3.552q3.066-4.075,7.439-4.075a7.037,7.037,0,0,1,4.038,1.215,6.606,6.606,0,0,1,2.542,3.178,17.064,17.064,0,0,1,.748,5.776v10.206h-2.542v-9.458a22.565,22.565,0,0,0-.318-4.71,5.806,5.806,0,0,0-.972-2.094,4.194,4.194,0,0,0-1.664-1.308,6.011,6.011,0,0,0-2.449-.449,6.115,6.115,0,0,0-2.823.71,6.913,6.913,0,0,0-2.355,1.981,7.177,7.177,0,0,0-1.308,2.617,27.475,27.475,0,0,0-.336,5.421v7.29h-2.58Z" transform="translate(68.426 68.014)" fill="#e6810c"/>
    </g>
    <g id="search_bar-3" data-name="search bar" transform="translate(693.745 299.416)">
      <g transform="matrix(1, 0, 0, 1, -693.74, -299.42)" filter="url(#Rectangle_16-3)">
        <rect id="Rectangle_16-17" data-name="Rectangle 16" width="59" height="57" rx="28.5" transform="translate(694 299.12)" fill="#23d1e4"/>
      </g>
      <g id="magnifying_glass-2" data-name="magnifying glass" transform="translate(14.745 13.304)">
        <g id="Path_19-2" data-name="Path 19" fill="none" stroke-linecap="round">
          <path d="M12.477,0A12.477,12.477,0,1,1,0,12.477,12.477,12.477,0,0,1,12.477,0Z" stroke="none"/>
          <path d="M 12.47741794586182 4.999998092651367 C 8.354358673095703 4.999998092651367 4.999998092651367 8.354358673095703 4.999998092651367 12.47741794586182 C 4.999998092651367 16.60047912597656 8.354358673095703 19.95483779907227 12.47741794586182 19.95483779907227 C 16.60047912597656 19.95483779907227 19.95483779907227 16.60047912597656 19.95483779907227 12.47741794586182 C 19.95483779907227 8.354358673095703 16.60047912597656 4.999998092651367 12.47741794586182 4.999998092651367 M 12.47741794586182 -1.9073486328125e-06 C 19.36850738525391 -1.9073486328125e-06 24.95483779907227 5.586328506469727 24.95483779907227 12.47741794586182 C 24.95483779907227 19.36850738525391 19.36850738525391 24.95483779907227 12.47741794586182 24.95483779907227 C 5.586328506469727 24.95483779907227 -1.9073486328125e-06 19.36850738525391 -1.9073486328125e-06 12.47741794586182 C -1.9073486328125e-06 5.586328506469727 5.586328506469727 -1.9073486328125e-06 12.47741794586182 -1.9073486328125e-06 Z" stroke="none" fill="#fff7f7"/>
        </g>
        <path id="Path_20-2" data-name="Path 20" d="M0,0,9.624,9.92" transform="translate(19.642 20.573)" fill="#ac7f24" stroke="#fff7f7" stroke-linecap="round" stroke-width="5"/>
      </g>
    </g>
    <g id="Group_22" data-name="Group 22" transform="translate(-10.306 -15.336)">
      <g id="Polygon_1" data-name="Polygon 1" transform="translate(692.306 92.456)" fill="#e85845">
        <path d="M 61.95752334594727 63.00000762939453 L 18.04247283935547 63.00000762939453 C 14.72272205352783 63.00000762939453 11.78000259399414 61.26651763916016 10.17069244384766 58.3629264831543 C 8.561382293701172 55.45932769775391 8.651021957397461 52.0451545715332 10.41049194335938 49.23001480102539 L 32.36801147460938 14.09797668457031 C 33.22165298461914 12.73215579986572 34.35697174072266 11.66466617584229 35.74245071411133 10.92516613006592 C 37.03823089599609 10.23353576660156 38.51047134399414 9.867966651916504 40.00000381469727 9.867966651916504 C 41.48952102661133 9.867966651916504 42.96176147460938 10.23353576660156 44.25754165649414 10.92516613006592 C 45.64302062988281 11.66466617584229 46.77834320068359 12.73215579986572 47.63198089599609 14.09797668457031 L 69.58951568603516 49.23001480102539 C 71.34897613525391 52.0451545715332 71.43861389160156 55.45932769775391 69.82929229736328 58.3629264831543 C 68.21998596191406 61.26651763916016 65.27725982666016 63.00000762939453 61.95752334594727 63.00000762939453 Z" stroke="none"/>
        <path d="M 39.99999237060547 10.86795806884766 C 38.67412567138672 10.86795806884766 37.36471557617188 11.19280242919922 36.21332550048828 11.80735778808594 C 34.98416900634766 12.46341323852539 33.97573852539062 13.41241455078125 33.21601486206055 14.62796783447266 L 11.25849151611328 49.76001358032227 C 9.694526672363281 52.26235961914062 9.614837646484375 55.29718017578125 11.04533386230469 57.87815856933594 C 12.47583770751953 60.45912170410156 15.09158325195312 62 18.0424690246582 62 L 61.95751190185547 62 C 64.90840148925781 62 67.52414703369141 60.45912170410156 68.95465087890625 57.87815856933594 C 70.38514709472656 55.29718017578125 70.30547332763672 52.26235961914062 68.74150085449219 49.76001358032227 L 46.78398132324219 14.62796783447266 C 46.02425765991211 13.41241455078125 45.01581573486328 12.46342468261719 43.78667068481445 11.80735778808594 C 42.63526916503906 11.19280242919922 41.32585906982422 10.86795806884766 39.99999237060547 10.86795806884766 M 39.99999618530273 8.867961883544922 C 43.26081848144531 8.867961883544922 46.52164077758789 10.43463134765625 48.47998046875 13.56797027587891 L 70.4375 48.70001220703125 C 74.60029602050781 55.36048889160156 69.81187438964844 64 61.95751190185547 64 L 18.0424690246582 64 C 10.18811798095703 64 5.399688720703125 55.36048889160156 9.562492370605469 48.70001220703125 L 31.52001571655273 13.56797027587891 C 33.47835159301758 10.43463134765625 36.73917388916016 8.867961883544922 39.99999618530273 8.867961883544922 Z" stroke="none" fill="#e85845"/>
      </g>
      <text id="_" data-name="!" transform="translate(726.306 152.456)" fill="#080707" font-size="45" font-family="STHeitiSC-Medium, Heiti SC" font-weight="500"><tspan x="0" y="0">!</tspan></text>
    </g>
    <g id="Group_28" data-name="Group 28" transform="translate(-7 -7)">
      <g id="email_form_block" data-name="email form block" transform="translate(812 180.601)">
        <rect id="Rectangle_16-18" data-name="Rectangle 16" width="424" height="59" rx="14" transform="translate(0 0.399)" fill="#fff"/>
      </g>
      <path id="Path_40" data-name="Path 40" d="M.4-17.7v-1.75h9.85v1.75h-4V-1.5H4.425V-17.7ZM23.725-5.8l1.45.75a6.846,6.846,0,0,1-6.35,4,6.517,6.517,0,0,1-4.95-2.062,6.966,6.966,0,0,1-1.95-4.963,6.985,6.985,0,0,1,1.963-4.975,6.409,6.409,0,0,1,4.85-2.075,6.655,6.655,0,0,1,4.85,1.925,7.261,7.261,0,0,1,2.038,5.25H13.675a5.533,5.533,0,0,0,1.513,3.862,4.708,4.708,0,0,0,3.487,1.463A5.4,5.4,0,0,0,23.725-5.8Zm0-3.625a4.664,4.664,0,0,0-1.75-2.975,5.15,5.15,0,0,0-3.225-1.075q-3.75,0-4.9,4.05Zm9.15,2.375L29.025-1.5H27l4.85-7-4.375-6.275h2.05l3.35,4.8,3.325-4.8h2.05L33.9-8.525,38.825-1.5H36.75ZM44.025-3.6q0,.675.175.8a1.925,1.925,0,0,0,.9.125h1.025v1.45a10.679,10.679,0,0,1-1.65.175,2.189,2.189,0,0,1-1.65-.55A2.428,2.428,0,0,1,42.3-3.325v-10H39.95v-1.45H42.3V-19.9h1.725v5.125h2.7v1.45h-2.7Z" transform="translate(833 220)" fill="#d8d8d8"/>
    </g>
    <g id="Group_29" data-name="Group 29" transform="translate(-7 -20)">
      <g id="name_form_block" data-name="name form block" transform="translate(812 94)">
        <g transform="matrix(1, 0, 0, 1, -805, -74)" filter="url(#Rectangle_16-4)">
          <rect id="Rectangle_16-19" data-name="Rectangle 16" width="424" height="59" rx="14" transform="translate(805 74)" fill="#fff"/>
        </g>
      </g>
      <path id="Path_41" data-name="Path 41" d="M.4-17.7v-1.75h9.85v1.75h-4V-1.5H4.425V-17.7ZM23.725-5.8l1.45.75a6.846,6.846,0,0,1-6.35,4,6.517,6.517,0,0,1-4.95-2.062,6.966,6.966,0,0,1-1.95-4.963,6.985,6.985,0,0,1,1.963-4.975,6.409,6.409,0,0,1,4.85-2.075,6.655,6.655,0,0,1,4.85,1.925,7.261,7.261,0,0,1,2.038,5.25H13.675a5.533,5.533,0,0,0,1.513,3.862,4.708,4.708,0,0,0,3.487,1.463A5.4,5.4,0,0,0,23.725-5.8Zm0-3.625a4.664,4.664,0,0,0-1.75-2.975,5.15,5.15,0,0,0-3.225-1.075q-3.75,0-4.9,4.05Zm9.15,2.375L29.025-1.5H27l4.85-7-4.375-6.275h2.05l3.35,4.8,3.325-4.8h2.05L33.9-8.525,38.825-1.5H36.75ZM44.025-3.6q0,.675.175.8a1.925,1.925,0,0,0,.9.125h1.025v1.45a10.679,10.679,0,0,1-1.65.175,2.189,2.189,0,0,1-1.65-.55A2.428,2.428,0,0,1,42.3-3.325v-10H39.95v-1.45H42.3V-19.9h1.725v5.125h2.7v1.45h-2.7Z" transform="translate(833 134)"/>
    </g>
    <g id="Group_23" data-name="Group 23" transform="translate(433.544 -20)">
      <line id="Line_12" data-name="Line 12" x2="47.824" transform="translate(707.088 300.478)" fill="none" stroke="#000" stroke-linecap="round" stroke-width="8"/>
      <line id="Line_13" data-name="Line 13" x2="47.824" transform="translate(707.088 317.5)" fill="none" stroke="#000" stroke-linecap="round" stroke-width="8"/>
      <line id="Line_14" data-name="Line 14" x2="47.824" transform="translate(707.088 334.522)" fill="none" stroke="#000" stroke-linecap="round" stroke-width="8"/>
    </g>
    <g id="search_bar-4" data-name="search bar" transform="translate(405 404.416)">
      <g transform="matrix(1, 0, 0, 1, -405, -404.42)" filter="url(#Rectangle_16-5)">
        <rect id="Rectangle_16-20" data-name="Rectangle 16" width="261" height="57" rx="28.5" transform="translate(405 404.12)" fill="#fd9426"/>
      </g>
      <g id="magnifying_glass-3" data-name="magnifying glass" transform="translate(207.714 10.965)">
        <g id="Path_19-3" data-name="Path 19" fill="none" stroke-linecap="round">
          <path d="M12.477,0A12.477,12.477,0,1,1,0,12.477,12.477,12.477,0,0,1,12.477,0Z" stroke="none"/>
          <path d="M 12.47741794586182 4.999998092651367 C 8.354358673095703 4.999998092651367 4.999998092651367 8.354358673095703 4.999998092651367 12.47741794586182 C 4.999998092651367 16.60047912597656 8.354358673095703 19.95483779907227 12.47741794586182 19.95483779907227 C 16.60047912597656 19.95483779907227 19.95483779907227 16.60047912597656 19.95483779907227 12.47741794586182 C 19.95483779907227 8.354358673095703 16.60047912597656 4.999998092651367 12.47741794586182 4.999998092651367 M 12.47741794586182 -1.9073486328125e-06 C 19.36850738525391 -1.9073486328125e-06 24.95483779907227 5.586328506469727 24.95483779907227 12.47741794586182 C 24.95483779907227 19.36850738525391 19.36850738525391 24.95483779907227 12.47741794586182 24.95483779907227 C 5.586328506469727 24.95483779907227 -1.9073486328125e-06 19.36850738525391 -1.9073486328125e-06 12.47741794586182 C -1.9073486328125e-06 5.586328506469727 5.586328506469727 -1.9073486328125e-06 12.47741794586182 -1.9073486328125e-06 Z" stroke="none" fill="#fff"/>
        </g>
        <path id="Path_20-3" data-name="Path 20" d="M0,0,9.624,9.92" transform="translate(19.642 20.573)" fill="none" stroke="#fff" stroke-linecap="round" stroke-width="5"/>
      </g>
      <path id="search-2" data-name="search" d="M.364-8.339l1.413-.834Q3.26-6.439,5.23-6.439A3.147,3.147,0,0,0,7.408-7.25a2.6,2.6,0,0,0,.9-2.016,3.123,3.123,0,0,0-.765-1.923A14.02,14.02,0,0,0,5.01-13.494a20.388,20.388,0,0,1-2.387-1.993,4.39,4.39,0,0,1-.9-1.413,4.2,4.2,0,0,1-.29-1.518,3.7,3.7,0,0,1,1.147-2.746,3.955,3.955,0,0,1,2.885-1.124,4.184,4.184,0,0,1,2.387.684,7.853,7.853,0,0,1,1.97,2.027L8.474-18.534a8.278,8.278,0,0,0-1.344-1.46,2.572,2.572,0,0,0-1.7-.579,2.3,2.3,0,0,0-1.645.6,2.014,2.014,0,0,0-.637,1.529,2.442,2.442,0,0,0,.568,1.61,17.009,17.009,0,0,0,2.572,2.167A13.782,13.782,0,0,1,9.2-11.93a4.4,4.4,0,0,1,.915,2.642,4.194,4.194,0,0,1-1.4,3.14A4.581,4.581,0,0,1,5.462-4.817Q2.195-4.817.364-8.339Zm23.357-.881,1.344.7a6.345,6.345,0,0,1-5.886,3.707,6.041,6.041,0,0,1-4.588-1.912,6.456,6.456,0,0,1-1.807-4.6A6.474,6.474,0,0,1,14.6-15.939a5.94,5.94,0,0,1,4.5-1.923,6.168,6.168,0,0,1,4.5,1.784,6.73,6.73,0,0,1,1.888,4.866H14.406a5.128,5.128,0,0,0,1.4,3.58A4.364,4.364,0,0,0,19.04-6.277,5,5,0,0,0,23.721-9.219Zm0-3.36A4.323,4.323,0,0,0,22.1-15.337a4.773,4.773,0,0,0-2.989-1q-3.476,0-4.542,3.754Zm16.961-4.959v12.3H39.13V-7.342a6.179,6.179,0,0,1-4.82,2.526,6.11,6.11,0,0,1-4.576-1.935,6.414,6.414,0,0,1-1.865-4.611,6.315,6.315,0,0,1,1.877-4.588,6.078,6.078,0,0,1,4.5-1.912A5.79,5.79,0,0,1,39.13-15.29v-2.248Zm-1.46,6.21a4.9,4.9,0,0,0-1.413-3.557,4.653,4.653,0,0,0-3.464-1.448,4.583,4.583,0,0,0-3.464,1.495A4.971,4.971,0,0,0,29.467-11.3,4.929,4.929,0,0,0,30.9-7.771a4.606,4.606,0,0,0,3.441,1.495,4.694,4.694,0,0,0,3.441-1.437A4.9,4.9,0,0,0,39.222-11.328Zm4.426-6.21H45.27v1.784a6.213,6.213,0,0,1,1.263-1.6,2.088,2.088,0,0,1,1.367-.51,3.149,3.149,0,0,1,1.518.417L48.584-16.1a1.378,1.378,0,0,0-.718-.209,1.8,1.8,0,0,0-1.356.741,4.67,4.67,0,0,0-.938,1.912,19.9,19.9,0,0,0-.3,4.252v4.171H43.648Zm19.6,2.549L62-14.2a5.265,5.265,0,0,0-4.449-2.155,5.219,5.219,0,0,0-3.731,1.425A4.668,4.668,0,0,0,52.314-11.4,4.969,4.969,0,0,0,53.8-7.783a5.046,5.046,0,0,0,3.754,1.506A5.464,5.464,0,0,0,62-8.432l1.251.834A6,6,0,0,1,60.76-5.535a7.98,7.98,0,0,1-3.371.718,6.526,6.526,0,0,1-4.762-1.877,6.183,6.183,0,0,1-1.912-4.588,6.336,6.336,0,0,1,1.935-4.646,6.728,6.728,0,0,1,4.97-1.935,7.234,7.234,0,0,1,3.3.765A5.571,5.571,0,0,1,63.251-14.989Zm2.966-7.3h1.6v6.951a5.621,5.621,0,0,1,4.611-2.526,4.362,4.362,0,0,1,2.5.753A4.1,4.1,0,0,1,76.5-15.14a10.577,10.577,0,0,1,.463,3.58v6.326h-1.6V-11.1a19.441,19.441,0,0,0-.116-2.618,3.772,3.772,0,0,0-.51-1.367,2.586,2.586,0,0,0-1.054-.985,3.493,3.493,0,0,0-1.6-.336,3.88,3.88,0,0,0-1.8.44,4.285,4.285,0,0,0-1.46,1.228,4.448,4.448,0,0,0-.811,1.622,17.029,17.029,0,0,0-.209,3.36v4.518h-1.6Z" transform="translate(24.764 41.083)" fill="#fff"/>
      <g id="magnifying_glass-4" data-name="magnifying glass" transform="translate(207.714 10.965)">
        <g id="Path_19-4" data-name="Path 19" fill="none" stroke-linecap="round">
          <path d="M12.477,0A12.477,12.477,0,1,1,0,12.477,12.477,12.477,0,0,1,12.477,0Z" stroke="none"/>
          <path d="M 12.47741794586182 4.999998092651367 C 8.354358673095703 4.999998092651367 4.999998092651367 8.354358673095703 4.999998092651367 12.47741794586182 C 4.999998092651367 16.60047912597656 8.354358673095703 19.95483779907227 12.47741794586182 19.95483779907227 C 16.60047912597656 19.95483779907227 19.95483779907227 16.60047912597656 19.95483779907227 12.47741794586182 C 19.95483779907227 8.354358673095703 16.60047912597656 4.999998092651367 12.47741794586182 4.999998092651367 M 12.47741794586182 -1.9073486328125e-06 C 19.36850738525391 -1.9073486328125e-06 24.95483779907227 5.586328506469727 24.95483779907227 12.47741794586182 C 24.95483779907227 19.36850738525391 19.36850738525391 24.95483779907227 12.47741794586182 24.95483779907227 C 5.586328506469727 24.95483779907227 -1.9073486328125e-06 19.36850738525391 -1.9073486328125e-06 12.47741794586182 C -1.9073486328125e-06 5.586328506469727 5.586328506469727 -1.9073486328125e-06 12.47741794586182 -1.9073486328125e-06 Z" stroke="none" fill="#fff"/>
        </g>
        <path id="Path_20-4" data-name="Path 20" d="M0,0,9.624,9.92" transform="translate(19.642 20.573)" fill="none" stroke="#fff" stroke-linecap="round" stroke-width="5"/>
      </g>
    </g>
    <g id="search_bar-5" data-name="search bar" transform="translate(695.745 404.416)">
      <g transform="matrix(1, 0, 0, 1, -695.74, -404.42)" filter="url(#Rectangle_16-6)">
        <rect id="Rectangle_16-21" data-name="Rectangle 16" width="59" height="57" rx="28.5" transform="translate(696 404.12)" fill="#fd9426"/>
      </g>
      <g id="magnifying_glass-5" data-name="magnifying glass" transform="translate(14.745 13.304)">
        <g id="Path_19-5" data-name="Path 19" fill="none" stroke-linecap="round">
          <path d="M12.477,0A12.477,12.477,0,1,1,0,12.477,12.477,12.477,0,0,1,12.477,0Z" stroke="none"/>
          <path d="M 12.47741794586182 4.999998092651367 C 8.354358673095703 4.999998092651367 4.999998092651367 8.354358673095703 4.999998092651367 12.47741794586182 C 4.999998092651367 16.60047912597656 8.354358673095703 19.95483779907227 12.47741794586182 19.95483779907227 C 16.60047912597656 19.95483779907227 19.95483779907227 16.60047912597656 19.95483779907227 12.47741794586182 C 19.95483779907227 8.354358673095703 16.60047912597656 4.999998092651367 12.47741794586182 4.999998092651367 M 12.47741794586182 -1.9073486328125e-06 C 19.36850738525391 -1.9073486328125e-06 24.95483779907227 5.586328506469727 24.95483779907227 12.47741794586182 C 24.95483779907227 19.36850738525391 19.36850738525391 24.95483779907227 12.47741794586182 24.95483779907227 C 5.586328506469727 24.95483779907227 -1.9073486328125e-06 19.36850738525391 -1.9073486328125e-06 12.47741794586182 C -1.9073486328125e-06 5.586328506469727 5.586328506469727 -1.9073486328125e-06 12.47741794586182 -1.9073486328125e-06 Z" stroke="none" fill="#fff"/>
        </g>
        <path id="Path_20-5" data-name="Path 20" d="M0,0,9.624,9.92" transform="translate(19.642 20.573)" fill="none" stroke="#fff" stroke-linecap="round" stroke-width="5"/>
      </g>
    </g>
    <g id="search_bar-6" data-name="search bar" transform="translate(403 194.416)">
      <g transform="matrix(1, 0, 0, 1, -403, -194.42)" filter="url(#Rectangle_16-7)">
        <rect id="Rectangle_16-22" data-name="Rectangle 16" width="261" height="57" rx="28.5" transform="translate(403 194.12)" fill="#cf9bb2"/>
      </g>
      <g id="magnifying_glass-6" data-name="magnifying glass" transform="translate(207.714 10.965)">
        <g id="Path_19-6" data-name="Path 19" fill="none" stroke-linecap="round">
          <path d="M12.477,0A12.477,12.477,0,1,1,0,12.477,12.477,12.477,0,0,1,12.477,0Z" stroke="none"/>
          <path d="M 12.47741794586182 4.999998092651367 C 8.354358673095703 4.999998092651367 4.999998092651367 8.354358673095703 4.999998092651367 12.47741794586182 C 4.999998092651367 16.60047912597656 8.354358673095703 19.95483779907227 12.47741794586182 19.95483779907227 C 16.60047912597656 19.95483779907227 19.95483779907227 16.60047912597656 19.95483779907227 12.47741794586182 C 19.95483779907227 8.354358673095703 16.60047912597656 4.999998092651367 12.47741794586182 4.999998092651367 M 12.47741794586182 -1.9073486328125e-06 C 19.36850738525391 -1.9073486328125e-06 24.95483779907227 5.586328506469727 24.95483779907227 12.47741794586182 C 24.95483779907227 19.36850738525391 19.36850738525391 24.95483779907227 12.47741794586182 24.95483779907227 C 5.586328506469727 24.95483779907227 -1.9073486328125e-06 19.36850738525391 -1.9073486328125e-06 12.47741794586182 C -1.9073486328125e-06 5.586328506469727 5.586328506469727 -1.9073486328125e-06 12.47741794586182 -1.9073486328125e-06 Z" stroke="none" fill="#fff"/>
        </g>
        <path id="Path_20-6" data-name="Path 20" d="M0,0,9.624,9.92" transform="translate(19.642 20.573)" fill="none" stroke="#fff" stroke-linecap="round" stroke-width="5"/>
      </g>
      <path id="search-3" data-name="search" d="M.364-8.339l1.413-.834Q3.26-6.439,5.23-6.439A3.147,3.147,0,0,0,7.408-7.25a2.6,2.6,0,0,0,.9-2.016,3.123,3.123,0,0,0-.765-1.923A14.02,14.02,0,0,0,5.01-13.494a20.388,20.388,0,0,1-2.387-1.993,4.39,4.39,0,0,1-.9-1.413,4.2,4.2,0,0,1-.29-1.518,3.7,3.7,0,0,1,1.147-2.746,3.955,3.955,0,0,1,2.885-1.124,4.184,4.184,0,0,1,2.387.684,7.853,7.853,0,0,1,1.97,2.027L8.474-18.534a8.278,8.278,0,0,0-1.344-1.46,2.572,2.572,0,0,0-1.7-.579,2.3,2.3,0,0,0-1.645.6,2.014,2.014,0,0,0-.637,1.529,2.442,2.442,0,0,0,.568,1.61,17.009,17.009,0,0,0,2.572,2.167A13.782,13.782,0,0,1,9.2-11.93a4.4,4.4,0,0,1,.915,2.642,4.194,4.194,0,0,1-1.4,3.14A4.581,4.581,0,0,1,5.462-4.817Q2.195-4.817.364-8.339Zm23.357-.881,1.344.7a6.345,6.345,0,0,1-5.886,3.707,6.041,6.041,0,0,1-4.588-1.912,6.456,6.456,0,0,1-1.807-4.6A6.474,6.474,0,0,1,14.6-15.939a5.94,5.94,0,0,1,4.5-1.923,6.168,6.168,0,0,1,4.5,1.784,6.73,6.73,0,0,1,1.888,4.866H14.406a5.128,5.128,0,0,0,1.4,3.58A4.364,4.364,0,0,0,19.04-6.277,5,5,0,0,0,23.721-9.219Zm0-3.36A4.323,4.323,0,0,0,22.1-15.337a4.773,4.773,0,0,0-2.989-1q-3.476,0-4.542,3.754Zm16.961-4.959v12.3H39.13V-7.342a6.179,6.179,0,0,1-4.82,2.526,6.11,6.11,0,0,1-4.576-1.935,6.414,6.414,0,0,1-1.865-4.611,6.315,6.315,0,0,1,1.877-4.588,6.078,6.078,0,0,1,4.5-1.912A5.79,5.79,0,0,1,39.13-15.29v-2.248Zm-1.46,6.21a4.9,4.9,0,0,0-1.413-3.557,4.653,4.653,0,0,0-3.464-1.448,4.583,4.583,0,0,0-3.464,1.495A4.971,4.971,0,0,0,29.467-11.3,4.929,4.929,0,0,0,30.9-7.771a4.606,4.606,0,0,0,3.441,1.495,4.694,4.694,0,0,0,3.441-1.437A4.9,4.9,0,0,0,39.222-11.328Zm4.426-6.21H45.27v1.784a6.213,6.213,0,0,1,1.263-1.6,2.088,2.088,0,0,1,1.367-.51,3.149,3.149,0,0,1,1.518.417L48.584-16.1a1.378,1.378,0,0,0-.718-.209,1.8,1.8,0,0,0-1.356.741,4.67,4.67,0,0,0-.938,1.912,19.9,19.9,0,0,0-.3,4.252v4.171H43.648Zm19.6,2.549L62-14.2a5.265,5.265,0,0,0-4.449-2.155,5.219,5.219,0,0,0-3.731,1.425A4.668,4.668,0,0,0,52.314-11.4,4.969,4.969,0,0,0,53.8-7.783a5.046,5.046,0,0,0,3.754,1.506A5.464,5.464,0,0,0,62-8.432l1.251.834A6,6,0,0,1,60.76-5.535a7.98,7.98,0,0,1-3.371.718,6.526,6.526,0,0,1-4.762-1.877,6.183,6.183,0,0,1-1.912-4.588,6.336,6.336,0,0,1,1.935-4.646,6.728,6.728,0,0,1,4.97-1.935,7.234,7.234,0,0,1,3.3.765A5.571,5.571,0,0,1,63.251-14.989Zm2.966-7.3h1.6v6.951a5.621,5.621,0,0,1,4.611-2.526,4.362,4.362,0,0,1,2.5.753A4.1,4.1,0,0,1,76.5-15.14a10.577,10.577,0,0,1,.463,3.58v6.326h-1.6V-11.1a19.441,19.441,0,0,0-.116-2.618,3.772,3.772,0,0,0-.51-1.367,2.586,2.586,0,0,0-1.054-.985,3.493,3.493,0,0,0-1.6-.336,3.88,3.88,0,0,0-1.8.44,4.285,4.285,0,0,0-1.46,1.228,4.448,4.448,0,0,0-.811,1.622,17.029,17.029,0,0,0-.209,3.36v4.518h-1.6Z" transform="translate(24.764 41.083)" fill="#fff"/>
    </g>
    <g id="search_bar-7" data-name="search bar" transform="translate(693.745 194.416)">
      <g transform="matrix(1, 0, 0, 1, -693.74, -194.42)" filter="url(#Rectangle_16-8)">
        <rect id="Rectangle_16-23" data-name="Rectangle 16" width="59" height="57" rx="28.5" transform="translate(694 194.12)" fill="#cf9bb2"/>
      </g>
      <g id="magnifying_glass-7" data-name="magnifying glass" transform="translate(14.745 13.304)">
        <g id="Path_19-7" data-name="Path 19" fill="none" stroke-linecap="round">
          <path d="M12.477,0A12.477,12.477,0,1,1,0,12.477,12.477,12.477,0,0,1,12.477,0Z" stroke="none"/>
          <path d="M 12.47741794586182 4.999998092651367 C 8.354358673095703 4.999998092651367 4.999998092651367 8.354358673095703 4.999998092651367 12.47741794586182 C 4.999998092651367 16.60047912597656 8.354358673095703 19.95483779907227 12.47741794586182 19.95483779907227 C 16.60047912597656 19.95483779907227 19.95483779907227 16.60047912597656 19.95483779907227 12.47741794586182 C 19.95483779907227 8.354358673095703 16.60047912597656 4.999998092651367 12.47741794586182 4.999998092651367 M 12.47741794586182 -1.9073486328125e-06 C 19.36850738525391 -1.9073486328125e-06 24.95483779907227 5.586328506469727 24.95483779907227 12.47741794586182 C 24.95483779907227 19.36850738525391 19.36850738525391 24.95483779907227 12.47741794586182 24.95483779907227 C 5.586328506469727 24.95483779907227 -1.9073486328125e-06 19.36850738525391 -1.9073486328125e-06 12.47741794586182 C -1.9073486328125e-06 5.586328506469727 5.586328506469727 -1.9073486328125e-06 12.47741794586182 -1.9073486328125e-06 Z" stroke="none" fill="#fff"/>
        </g>
        <path id="Path_20-7" data-name="Path 20" d="M0,0,9.624,9.92" transform="translate(19.642 20.573)" fill="none" stroke="#fff" stroke-linecap="round" stroke-width="5"/>
      </g>
    </g>
    <g id="Group_25" data-name="Group 25" transform="translate(-9 -11.881)">
      <g id="Rectangle_13-3" data-name="Rectangle 13" transform="translate(511 94)" fill="#23d1e4" stroke="#23d1e4" stroke-width="1">
        <rect width="60" height="59" rx="16" stroke="none"/>
        <rect x="0.5" y="0.5" width="59" height="58" rx="15.5" fill="none"/>
      </g>
      <g id="checkmark-2" data-name="checkmark" transform="matrix(0.998, 0.07, -0.07, 0.998, 527.708, 113.009)">
        <line id="Line_1-2" data-name="Line 1" x2="11.092" y2="7.83" transform="translate(0 10.988)" fill="none" stroke="#fff" stroke-linecap="round" stroke-width="6"/>
        <g id="Group_21-2" data-name="Group 21" transform="translate(11.092 0)">
          <line id="Line_2-2" data-name="Line 2" x1="16.102" y2="18.817" transform="translate(0 0)" fill="none" stroke="#fff" stroke-linecap="round" stroke-width="6"/>
        </g>
      </g>
    </g>
    <g id="empty_check_box-2" data-name="empty check box" transform="translate(409 82.119)" fill="#fff">
      <path d="M 44 58.25 L 16 58.25 C 11.92658042907715 58.25 8.096969604492188 56.66371917724609 5.216619968414307 53.78337860107422 C 2.336280107498169 50.90303039550781 0.75 47.07342147827148 0.75 43 L 0.75 16 C 0.75 11.92658042907715 2.336280107498169 8.096969604492188 5.216619968414307 5.216619968414307 C 8.096969604492188 2.336280107498169 11.92658042907715 0.75 16 0.75 L 44 0.75 C 48.07342147827148 0.75 51.90303039550781 2.336280107498169 54.78337860107422 5.216619968414307 C 57.66371917724609 8.096969604492188 59.25 11.92658042907715 59.25 16 L 59.25 43 C 59.25 47.07342147827148 57.66371917724609 50.90304183959961 54.78337860107422 53.78337860107422 C 51.90304183959961 56.66371917724609 48.07342147827148 58.25 44 58.25 Z" stroke="none"/>
      <path d="M 16 1.5 C 12.12691116333008 1.5 8.485641479492188 3.008258819580078 5.7469482421875 5.7469482421875 C 3.008258819580078 8.485641479492188 1.5 12.12691116333008 1.5 16 L 1.5 43 C 1.5 46.87308883666992 3.008258819580078 50.51435852050781 5.7469482421875 53.2530517578125 C 8.485641479492188 55.99174118041992 12.12691116333008 57.5 16 57.5 L 44 57.5 C 47.87308883666992 57.5 51.51435852050781 55.99174118041992 54.2530517578125 53.2530517578125 C 56.99174118041992 50.51435852050781 58.5 46.87308883666992 58.5 43 L 58.5 16 C 58.5 12.12691116333008 56.99174118041992 8.485641479492188 54.2530517578125 5.7469482421875 C 51.51435852050781 3.008258819580078 47.87308883666992 1.5 44 1.5 L 16 1.5 M 16 0 L 44 0 C 52.83655166625977 0 60 7.163440704345703 60 16 L 60 43 C 60 51.83655166625977 52.83655166625977 59 44 59 L 16 59 C 7.163440704345703 59 0 51.83655166625977 0 43 L 0 16 C 0 7.163440704345703 7.163440704345703 0 16 0 Z" stroke="none" fill="#ab7e2e"/>
    </g>
    <g id="x_check_box-2" data-name="x check box" transform="translate(594.646 81.775)">
      <g id="Rectangle_13-4" data-name="Rectangle 13" transform="translate(0.354 0.345)" fill="#ff9419" stroke="#ff9419" stroke-width="1">
        <rect width="59" height="59" rx="16" stroke="none"/>
        <rect x="0.5" y="0.5" width="58" height="58" rx="15.5" fill="none"/>
      </g>
      <g id="X-2" data-name="X" transform="translate(17.676 17.666)">
        <line id="Line_4-2" data-name="Line 4" x2="24.232" y2="24.251" transform="translate(0)" fill="none" stroke="#fff" stroke-linecap="round" stroke-width="6"/>
        <path id="Path_18-2" data-name="Path 18" d="M24.163,0,0,24.251" transform="translate(0)" fill="none" stroke="#fff" stroke-linecap="round" stroke-width="6"/>
      </g>
    </g>
    <g id="Group_24" data-name="Group 24" transform="translate(-10.306 -15.336)">
      <g id="Polygon_1-2" data-name="Polygon 1" transform="translate(692.306 92.456)" fill="#e85845">
        <path d="M 61.95752334594727 63.00000762939453 L 18.04247283935547 63.00000762939453 C 14.72272205352783 63.00000762939453 11.78000259399414 61.26651763916016 10.17069244384766 58.3629264831543 C 8.561382293701172 55.45932769775391 8.651021957397461 52.0451545715332 10.41049194335938 49.23001480102539 L 32.36801147460938 14.09797668457031 C 33.22165298461914 12.73215579986572 34.35697174072266 11.66466617584229 35.74245071411133 10.92516613006592 C 37.03823089599609 10.23353576660156 38.51047134399414 9.867966651916504 40.00000381469727 9.867966651916504 C 41.48952102661133 9.867966651916504 42.96176147460938 10.23353576660156 44.25754165649414 10.92516613006592 C 45.64302062988281 11.66466617584229 46.77834320068359 12.73215579986572 47.63198089599609 14.09797668457031 L 69.58951568603516 49.23001480102539 C 71.34897613525391 52.0451545715332 71.43861389160156 55.45932769775391 69.82929229736328 58.3629264831543 C 68.21998596191406 61.26651763916016 65.27725982666016 63.00000762939453 61.95752334594727 63.00000762939453 Z" stroke="none"/>
        <path d="M 39.99999237060547 10.86795806884766 C 38.67412567138672 10.86795806884766 37.36471557617188 11.19280242919922 36.21332550048828 11.80735778808594 C 34.98416900634766 12.46341323852539 33.97573852539062 13.41241455078125 33.21601486206055 14.62796783447266 L 11.25849151611328 49.76001358032227 C 9.694526672363281 52.26235961914062 9.614837646484375 55.29718017578125 11.04533386230469 57.87815856933594 C 12.47583770751953 60.45912170410156 15.09158325195312 62 18.0424690246582 62 L 61.95751190185547 62 C 64.90840148925781 62 67.52414703369141 60.45912170410156 68.95465087890625 57.87815856933594 C 70.38514709472656 55.29718017578125 70.30547332763672 52.26235961914062 68.74150085449219 49.76001358032227 L 46.78398132324219 14.62796783447266 C 46.02425765991211 13.41241455078125 45.01581573486328 12.46342468261719 43.78667068481445 11.80735778808594 C 42.63526916503906 11.19280242919922 41.32585906982422 10.86795806884766 39.99999237060547 10.86795806884766 M 39.99999618530273 8.867961883544922 C 43.26081848144531 8.867961883544922 46.52164077758789 10.43463134765625 48.47998046875 13.56797027587891 L 70.4375 48.70001220703125 C 74.60029602050781 55.36048889160156 69.81187438964844 64 61.95751190185547 64 L 18.0424690246582 64 C 10.18811798095703 64 5.399688720703125 55.36048889160156 9.562492370605469 48.70001220703125 L 31.52001571655273 13.56797027587891 C 33.47835159301758 10.43463134765625 36.73917388916016 8.867961883544922 39.99999618530273 8.867961883544922 Z" stroke="none" fill="#e85845"/>
      </g>
      <text id="_2" data-name="!" transform="translate(726.306 152.456)" fill="#fff" font-size="45" font-family="STHeitiSC-Medium, Heiti SC" font-weight="500"><tspan x="0" y="0">!</tspan></text>
    </g>
    <g id="search_bar-8" data-name="search bar" transform="translate(984 451.297)">
      <g id="Group_30" data-name="Group 30">
        <g transform="matrix(1, 0, 0, 1, -984, -451.3)" filter="url(#Rectangle_16-9)">
          <rect id="Rectangle_16-24" data-name="Rectangle 16" width="116" height="48" rx="19" transform="translate(984 451)" fill="#cf9bb2"/>
        </g>
      </g>
    </g>
    <g id="search_bar-9" data-name="search bar" transform="translate(850 451.297)">
      <g transform="matrix(1, 0, 0, 1, -850, -451.3)" filter="url(#Rectangle_16-10)">
        <rect id="Rectangle_16-25" data-name="Rectangle 16" width="116" height="48" rx="19" transform="translate(850 451)" fill="#23d1e4"/>
      </g>
    </g>
    <g id="Group_31" data-name="Group 31" transform="translate(-43 3)">
      <g transform="matrix(1, 0, 0, 1, 43, -3)" filter="url(#Rectangle_16-11)">
        <rect id="Rectangle_16-26" data-name="Rectangle 16" width="116" height="48" rx="19" transform="translate(850 539)" fill="#e85845"/>
      </g>
    </g>
    <path id="Path_38" data-name="Path 38" d="M2.175-19.45H4V-3.225h6.9V-1.5H2.175Zm24.5,4.675V-1.5H25V-3.775A6.666,6.666,0,0,1,19.8-1.05a6.592,6.592,0,0,1-4.937-2.087A6.92,6.92,0,0,1,12.85-8.113a6.814,6.814,0,0,1,2.025-4.95,6.557,6.557,0,0,1,4.85-2.063A6.246,6.246,0,0,1,25-12.35v-2.425ZM25.1-8.075a5.283,5.283,0,0,0-1.525-3.837,5.021,5.021,0,0,0-3.738-1.562A4.945,4.945,0,0,0,16.1-11.863,5.363,5.363,0,0,0,14.575-8.05a5.318,5.318,0,0,0,1.55,3.813,4.969,4.969,0,0,0,3.712,1.612,5.065,5.065,0,0,0,3.712-1.55A5.288,5.288,0,0,0,25.1-8.075ZM30.65-1.5V-19.9h1.675v7.4a6.671,6.671,0,0,1,5.325-2.625,6.465,6.465,0,0,1,4.837,2.063A6.9,6.9,0,0,1,44.475-8.1,6.871,6.871,0,0,1,42.45-3.125,6.538,6.538,0,0,1,37.6-1.05a6.34,6.34,0,0,1-5.275-2.9V-1.5Zm1.575-6.725A5.474,5.474,0,0,0,33.75-4.3a4.949,4.949,0,0,0,3.725,1.6,4.953,4.953,0,0,0,3.738-1.625A5.368,5.368,0,0,0,42.75-8.138a5.44,5.44,0,0,0-1.5-3.812,4.891,4.891,0,0,0-3.75-1.625,5.086,5.086,0,0,0-3.763,1.525A5.211,5.211,0,0,0,32.225-8.225ZM58.75-5.8l1.45.75a6.846,6.846,0,0,1-6.35,4A6.517,6.517,0,0,1,48.9-3.112a6.966,6.966,0,0,1-1.95-4.963,6.985,6.985,0,0,1,1.962-4.975,6.409,6.409,0,0,1,4.85-2.075,6.655,6.655,0,0,1,4.85,1.925A7.261,7.261,0,0,1,60.65-7.95H48.7a5.533,5.533,0,0,0,1.512,3.862A4.708,4.708,0,0,0,53.7-2.625,5.4,5.4,0,0,0,58.75-5.8Zm0-3.625A4.664,4.664,0,0,0,57-12.4a5.15,5.15,0,0,0-3.225-1.075q-3.75,0-4.9,4.05ZM63.575-19.9h1.7V-1.5h-1.7Z" transform="translate(874 485)" fill="#fff"/>
    <path id="Path_39" data-name="Path 39" d="M2.175-19.45H4V-3.225h6.9V-1.5H2.175Zm24.5,4.675V-1.5H25V-3.775A6.666,6.666,0,0,1,19.8-1.05a6.592,6.592,0,0,1-4.937-2.087A6.92,6.92,0,0,1,12.85-8.113a6.814,6.814,0,0,1,2.025-4.95,6.557,6.557,0,0,1,4.85-2.063A6.246,6.246,0,0,1,25-12.35v-2.425ZM25.1-8.075a5.283,5.283,0,0,0-1.525-3.837,5.021,5.021,0,0,0-3.738-1.562A4.945,4.945,0,0,0,16.1-11.863,5.363,5.363,0,0,0,14.575-8.05a5.318,5.318,0,0,0,1.55,3.813,4.969,4.969,0,0,0,3.712,1.612,5.065,5.065,0,0,0,3.712-1.55A5.288,5.288,0,0,0,25.1-8.075ZM30.65-1.5V-19.9h1.675v7.4a6.671,6.671,0,0,1,5.325-2.625,6.465,6.465,0,0,1,4.837,2.063A6.9,6.9,0,0,1,44.475-8.1,6.871,6.871,0,0,1,42.45-3.125,6.538,6.538,0,0,1,37.6-1.05a6.34,6.34,0,0,1-5.275-2.9V-1.5Zm1.575-6.725A5.474,5.474,0,0,0,33.75-4.3a4.949,4.949,0,0,0,3.725,1.6,4.953,4.953,0,0,0,3.738-1.625A5.368,5.368,0,0,0,42.75-8.138a5.44,5.44,0,0,0-1.5-3.812,4.891,4.891,0,0,0-3.75-1.625,5.086,5.086,0,0,0-3.763,1.525A5.211,5.211,0,0,0,32.225-8.225ZM58.75-5.8l1.45.75a6.846,6.846,0,0,1-6.35,4A6.517,6.517,0,0,1,48.9-3.112a6.966,6.966,0,0,1-1.95-4.963,6.985,6.985,0,0,1,1.962-4.975,6.409,6.409,0,0,1,4.85-2.075,6.655,6.655,0,0,1,4.85,1.925A7.261,7.261,0,0,1,60.65-7.95H48.7a5.533,5.533,0,0,0,1.512,3.862A4.708,4.708,0,0,0,53.7-2.625,5.4,5.4,0,0,0,58.75-5.8Zm0-3.625A4.664,4.664,0,0,0,57-12.4a5.15,5.15,0,0,0-3.225-1.075q-3.75,0-4.9,4.05ZM63.575-19.9h1.7V-1.5h-1.7Z" transform="translate(1009 485)" fill="#fff"/>
    <g id="sort_by_bar-2" data-name="sort by bar" transform="translate(846.026 362.64)">
      <g id="search_bar-10" data-name="search bar" transform="translate(0 0)">
        <rect id="Rectangle_16-27" data-name="Rectangle 16" width="259" height="47" rx="17" transform="translate(-0.483 -0.118)" fill="#fff"/>
      </g>
      <g id="back_arrow-2" data-name="back arrow" transform="translate(226.208 29.294) rotate(-90)">
        <line id="Line_10-2" data-name="Line 10" y1="8.521" x2="7.78" transform="translate(0 0)" fill="none" stroke="#d8d8d8" stroke-linecap="round" stroke-width="5"/>
        <path id="Path_23-2" data-name="Path 23" d="M0,0,7.767,8.244" transform="translate(0.013 8.595)" fill="none" stroke="#d8d8d8" stroke-linecap="round" stroke-width="5"/>
      </g>
      <path id="Path_33-2" data-name="Path 33" d="M6.306-13.9a5.4,5.4,0,0,0-1.182-1.26,2.017,2.017,0,0,0-1.138-.322,1.537,1.537,0,0,0-1.095.417,1.4,1.4,0,0,0-.443,1.069,1.7,1.7,0,0,0,.417,1.138,13.448,13.448,0,0,0,1.92,1.59,9.872,9.872,0,0,1,2.2,2.077,3.472,3.472,0,0,1,.7,2.051A3.263,3.263,0,0,1,6.592-4.7,3.553,3.553,0,0,1,4.064-3.663Q1.526-3.663.084-6.5l1.269-.73q1.13,2.1,2.537,2.1A2.243,2.243,0,0,0,5.437-5.7,1.745,1.745,0,0,0,6.08-7.035a2.314,2.314,0,0,0-.539-1.451,10.505,10.505,0,0,0-1.859-1.686,16.5,16.5,0,0,1-1.816-1.521A3.359,3.359,0,0,1,1.144-12.8a3.288,3.288,0,0,1-.226-1.182A2.919,2.919,0,0,1,1.8-16.132a3.069,3.069,0,0,1,2.268-.878,3.24,3.24,0,0,1,1.877.547A6.487,6.487,0,0,1,7.5-14.838Zm8.064.209a4.674,4.674,0,0,1,3.484,1.477,4.909,4.909,0,0,1,1.434,3.545,4.911,4.911,0,0,1-1.416,3.537,4.671,4.671,0,0,1-3.5,1.468,4.7,4.7,0,0,1-3.51-1.468A4.9,4.9,0,0,1,9.434-8.668a4.909,4.909,0,0,1,1.434-3.545A4.694,4.694,0,0,1,14.369-13.691Zm0,8.654a3.3,3.3,0,0,0,2.459-1.051,3.518,3.518,0,0,0,1.017-2.537A3.6,3.6,0,0,0,16.811-11.2a3.272,3.272,0,0,0-2.45-1.086A3.245,3.245,0,0,0,11.919-11.2a3.631,3.631,0,0,0-1.025,2.581,3.548,3.548,0,0,0,.991,2.537A3.284,3.284,0,0,0,14.369-5.036Zm10.879-8.272L24.5-12.092a1.223,1.223,0,0,0-.573-.156,1.25,1.25,0,0,0-.973.53,3.526,3.526,0,0,0-.652,1.39,14.738,14.738,0,0,0-.217,3.1v3.25h-1.46v-9.471h1.46v1.025a3.663,3.663,0,0,1,.878-.956,1.705,1.705,0,0,1,1.008-.313A2.761,2.761,0,0,1,25.248-13.308Zm5.6,1.112H28.967v6.639q0,.365.1.443a1.052,1.052,0,0,0,.521.078h.834V-3.8a8.391,8.391,0,0,1-1.269.139,1.659,1.659,0,0,1-1.234-.408,1.8,1.8,0,0,1-.4-1.295V-12.2H25.891v-1.251h1.634V-17.01h1.442v3.563h1.877Zm7.368.139a4.616,4.616,0,0,1,3.545-1.634,4.651,4.651,0,0,1,3.484,1.468,4.911,4.911,0,0,1,1.416,3.537A4.894,4.894,0,0,1,45.216-5.14a4.692,4.692,0,0,1-3.484,1.477,4.45,4.45,0,0,1-3.519-1.773v1.46H36.8V-17.01h1.408Zm3.458,7a3.326,3.326,0,0,0,2.511-1.095,3.614,3.614,0,0,0,1.034-2.563,3.664,3.664,0,0,0-1.008-2.563,3.283,3.283,0,0,0-2.52-1.095,3.417,3.417,0,0,0-2.529,1.025,3.515,3.515,0,0,0-1.017,2.581,3.676,3.676,0,0,0,1.025,2.633A3.323,3.323,0,0,0,41.671-5.054Zm14.98-8.394L51.038-.622H49.543l1.825-4.171-3.841-8.654h1.495l3.111,6.934,3.006-6.934Z" transform="translate(15.709 34.38)" fill="#d8d8d8"/>
    </g>
    <g id="Group_32" data-name="Group 32" transform="translate(-43 3)">
      <rect id="Rectangle_30" data-name="Rectangle 30" width="116" height="48" rx="19" transform="translate(1027 536)" fill="#fff"/>
    </g>
    <path id="Path_37" data-name="Path 37" d="M.325-4.85l1.525-.9Q3.45-2.8,5.575-2.8a3.4,3.4,0,0,0,2.35-.875A2.8,2.8,0,0,0,8.9-5.85a3.37,3.37,0,0,0-.825-2.075,15.126,15.126,0,0,0-2.738-2.488,22,22,0,0,1-2.575-2.15,4.737,4.737,0,0,1-.975-1.525,4.53,4.53,0,0,1-.313-1.638,3.989,3.989,0,0,1,1.237-2.962A4.267,4.267,0,0,1,5.825-19.9a4.514,4.514,0,0,1,2.575.737,8.473,8.473,0,0,1,2.125,2.188L9.075-15.85a8.931,8.931,0,0,0-1.45-1.575,2.774,2.774,0,0,0-1.838-.625,2.479,2.479,0,0,0-1.775.65,2.172,2.172,0,0,0-.688,1.65,2.635,2.635,0,0,0,.612,1.737,18.351,18.351,0,0,0,2.775,2.338,14.87,14.87,0,0,1,3.15,2.95,4.75,4.75,0,0,1,.988,2.85A4.525,4.525,0,0,1,9.337-2.487,4.942,4.942,0,0,1,5.825-1.05Q2.3-1.05.325-4.85Zm27.25-9.925V-1.5H25.9V-3.775A6.666,6.666,0,0,1,20.7-1.05a6.592,6.592,0,0,1-4.938-2.087A6.92,6.92,0,0,1,13.75-8.113a6.814,6.814,0,0,1,2.025-4.95,6.557,6.557,0,0,1,4.85-2.063A6.246,6.246,0,0,1,25.9-12.35v-2.425ZM26-8.075a5.283,5.283,0,0,0-1.525-3.837,5.021,5.021,0,0,0-3.738-1.562A4.945,4.945,0,0,0,17-11.863,5.363,5.363,0,0,0,15.475-8.05a5.318,5.318,0,0,0,1.55,3.813,4.969,4.969,0,0,0,3.712,1.612,5.065,5.065,0,0,0,3.713-1.55A5.288,5.288,0,0,0,26-8.075ZM31.175-19.9h1.7V-1.5h-1.7ZM47.6-5.8l1.45.75a6.846,6.846,0,0,1-6.35,4,6.517,6.517,0,0,1-4.95-2.062A6.966,6.966,0,0,1,35.8-8.075a6.985,6.985,0,0,1,1.962-4.975,6.409,6.409,0,0,1,4.85-2.075,6.655,6.655,0,0,1,4.85,1.925A7.261,7.261,0,0,1,49.5-7.95H37.55a5.533,5.533,0,0,0,1.512,3.862A4.708,4.708,0,0,0,42.55-2.625,5.4,5.4,0,0,0,47.6-5.8Zm0-3.625A4.664,4.664,0,0,0,45.85-12.4a5.15,5.15,0,0,0-3.225-1.075q-3.75,0-4.9,4.05Z" transform="translate(882 573)" fill="#fff"/>
    <path id="Path_36" data-name="Path 36" d="M.325-4.85l1.525-.9Q3.45-2.8,5.575-2.8a3.4,3.4,0,0,0,2.35-.875A2.8,2.8,0,0,0,8.9-5.85a3.37,3.37,0,0,0-.825-2.075,15.126,15.126,0,0,0-2.738-2.488,22,22,0,0,1-2.575-2.15,4.737,4.737,0,0,1-.975-1.525,4.53,4.53,0,0,1-.313-1.638,3.989,3.989,0,0,1,1.237-2.962A4.267,4.267,0,0,1,5.825-19.9a4.514,4.514,0,0,1,2.575.737,8.473,8.473,0,0,1,2.125,2.188L9.075-15.85a8.931,8.931,0,0,0-1.45-1.575,2.774,2.774,0,0,0-1.838-.625,2.479,2.479,0,0,0-1.775.65,2.172,2.172,0,0,0-.688,1.65,2.635,2.635,0,0,0,.612,1.737,18.351,18.351,0,0,0,2.775,2.338,14.87,14.87,0,0,1,3.15,2.95,4.75,4.75,0,0,1,.988,2.85A4.525,4.525,0,0,1,9.337-2.487,4.942,4.942,0,0,1,5.825-1.05Q2.3-1.05.325-4.85Zm13.4-3.2a6.923,6.923,0,0,1,2.013-5,6.568,6.568,0,0,1,4.9-2.075,6.568,6.568,0,0,1,4.9,2.075A6.893,6.893,0,0,1,27.55-8.075a6.9,6.9,0,0,1-1.987,4.963A6.55,6.55,0,0,1,20.65-1.05a6.591,6.591,0,0,1-4.925-2.062A6.843,6.843,0,0,1,13.725-8.05Zm12.1.025a5.34,5.34,0,0,0-1.538-3.812,4.875,4.875,0,0,0-3.65-1.612A4.836,4.836,0,0,0,17-11.838,5.393,5.393,0,0,0,15.475-8,5.273,5.273,0,0,0,16.95-4.225a4.851,4.851,0,0,0,3.662,1.55,4.952,4.952,0,0,0,3.7-1.562A5.245,5.245,0,0,0,25.825-8.025ZM30.475-19.9h1.7V-1.5h-1.7Zm18.5,0V-1.5H47.3V-3.775A6.677,6.677,0,0,1,42.088-1.05,6.585,6.585,0,0,1,37.15-3.125a6.915,6.915,0,0,1-2-4.975,6.829,6.829,0,0,1,2.025-4.962,6.557,6.557,0,0,1,4.85-2.063A6.246,6.246,0,0,1,47.3-12.35V-19.9ZM47.4-8.05a5.374,5.374,0,0,0-1.5-3.85,4.964,4.964,0,0,0-3.75-1.575,4.948,4.948,0,0,0-3.763,1.612,5.372,5.372,0,0,0-1.513,3.8,5.345,5.345,0,0,0,1.55,3.813,4.9,4.9,0,0,0,3.663,1.625A5.2,5.2,0,0,0,45.8-4.162,5.162,5.162,0,0,0,47.4-8.05Zm11.075,0a6.923,6.923,0,0,1,2.012-5,6.568,6.568,0,0,1,4.9-2.075,6.568,6.568,0,0,1,4.9,2.075A6.893,6.893,0,0,1,72.3-8.075a6.9,6.9,0,0,1-1.988,4.963A6.55,6.55,0,0,1,65.4-1.05a6.59,6.59,0,0,1-4.925-2.062A6.843,6.843,0,0,1,58.475-8.05Zm12.1.025a5.34,5.34,0,0,0-1.538-3.812,4.875,4.875,0,0,0-3.65-1.612,4.836,4.836,0,0,0-3.637,1.612A5.393,5.393,0,0,0,60.225-8,5.273,5.273,0,0,0,61.7-4.225a4.851,4.851,0,0,0,3.663,1.55,4.952,4.952,0,0,0,3.7-1.562A5.245,5.245,0,0,0,70.575-8.025ZM86.875-1.5H85.15V-3.875A6.064,6.064,0,0,1,80.175-1.15a4.706,4.706,0,0,1-2.7-.813,4.418,4.418,0,0,1-1.7-2.125,11.411,11.411,0,0,1-.5-3.862v-6.825h1.7V-8.45a15.09,15.09,0,0,0,.213,3.15,3.882,3.882,0,0,0,.65,1.4,2.8,2.8,0,0,0,1.113.875,4.019,4.019,0,0,0,1.637.3A4.089,4.089,0,0,0,82.475-3.2,4.623,4.623,0,0,0,84.05-4.525a4.8,4.8,0,0,0,.875-1.75A18.373,18.373,0,0,0,85.15-9.9v-4.875h1.725ZM93.9-3.6q0,.675.175.8a1.925,1.925,0,0,0,.9.125H96v1.45a10.679,10.679,0,0,1-1.65.175A2.189,2.189,0,0,1,92.7-1.6a2.428,2.428,0,0,1-.525-1.725v-10h-2.35v-1.45h2.35V-19.9H93.9v5.125h2.7v1.45H93.9Z" transform="translate(994 573)" fill="#d8d8d8"/>
    <g id="dark_blue_button-3" data-name="dark blue button" transform="translate(95 595.423)">
      <g transform="matrix(1, 0, 0, 1, -95, -595.42)" filter="url(#Rectangle_9-4)">
        <rect id="Rectangle_9-8" data-name="Rectangle 9" width="256" height="88" rx="44" transform="translate(95 595)" fill="#e85845"/>
      </g>
      <path id="button-5" data-name="button" d="M4.539-39.923H9.848q4.224,0,6.411,1.7a5.814,5.814,0,0,1,2.187,4.879,6.209,6.209,0,0,1-.879,3.234,6.393,6.393,0,0,1-2.561,2.374,8.625,8.625,0,0,1,4.206,2.692,6.6,6.6,0,0,1,1.439,4.262,7.1,7.1,0,0,1-2.43,5.514,9.031,9.031,0,0,1-6.281,2.187h-7.4Zm2.654,2.617v8.6H8.726a9.723,9.723,0,0,0,5.234-1.122,3.894,3.894,0,0,0,1.72-3.514q0-3.963-5.383-3.963Zm0,11.29V-15.7H10.52a11.55,11.55,0,0,0,4.243-.579,5.134,5.134,0,0,0,2.224-1.794,4.26,4.26,0,0,0,.86-2.486,4.952,4.952,0,0,0-.486-2.243,5.065,5.065,0,0,0-1.439-1.72,6.508,6.508,0,0,0-2.28-1.122,21.506,21.506,0,0,0-4.953-.374ZM42.559-13.081h-2.58v-3.552q-3.066,4.075-7.439,4.075A7.037,7.037,0,0,1,28.5-13.773,6.606,6.606,0,0,1,25.96-16.95a17.064,17.064,0,0,1-.748-5.776V-32.932h2.542v9.458a22.565,22.565,0,0,0,.318,4.71,5.806,5.806,0,0,0,.972,2.094,4.194,4.194,0,0,0,1.664,1.308,6.011,6.011,0,0,0,2.449.449,6.115,6.115,0,0,0,2.823-.71A6.913,6.913,0,0,0,38.334-17.6a7.177,7.177,0,0,0,1.308-2.617,27.475,27.475,0,0,0,.336-5.421v-7.29h2.58Zm10.505-3.14q0,1.009.262,1.2a2.878,2.878,0,0,0,1.346.187H56.2v2.168a15.968,15.968,0,0,1-2.467.262,3.274,3.274,0,0,1-2.467-.822,3.63,3.63,0,0,1-.785-2.58V-30.764H46.97v-2.168h3.514V-40.6h2.58v7.664H57.1v2.168H53.064Zm12.673,0q0,1.009.262,1.2a2.878,2.878,0,0,0,1.346.187h1.533v2.168a15.968,15.968,0,0,1-2.467.262,3.274,3.274,0,0,1-2.467-.822,3.63,3.63,0,0,1-.785-2.58V-30.764H59.644v-2.168h3.514V-40.6h2.58v7.664h4.038v2.168H65.737Zm6.916-6.654a10.352,10.352,0,0,1,3.009-7.477,9.822,9.822,0,0,1,7.327-3.1,9.822,9.822,0,0,1,7.327,3.1,10.307,10.307,0,0,1,3.009,7.439,10.311,10.311,0,0,1-2.972,7.421,9.8,9.8,0,0,1-7.346,3.084,9.855,9.855,0,0,1-7.365-3.084A10.233,10.233,0,0,1,72.653-22.876Zm18.094.037a7.985,7.985,0,0,0-2.3-5.7,7.291,7.291,0,0,0-5.458-2.411,7.232,7.232,0,0,0-5.439,2.411A8.065,8.065,0,0,0,75.27-22.8a7.885,7.885,0,0,0,2.206,5.645,7.254,7.254,0,0,0,5.477,2.318,7.4,7.4,0,0,0,5.533-2.337A7.844,7.844,0,0,0,90.747-22.838Zm7.327-10.094h2.58v3.552q3.066-4.075,7.439-4.075a7.037,7.037,0,0,1,4.038,1.215,6.606,6.606,0,0,1,2.542,3.178,17.064,17.064,0,0,1,.748,5.776v10.206h-2.542v-9.458a22.565,22.565,0,0,0-.318-4.71,5.806,5.806,0,0,0-.972-2.094,4.194,4.194,0,0,0-1.664-1.308,6.011,6.011,0,0,0-2.449-.449,6.115,6.115,0,0,0-2.823.71,6.913,6.913,0,0,0-2.355,1.981,7.177,7.177,0,0,0-1.308,2.617,27.475,27.475,0,0,0-.336,5.421v7.29h-2.58Z" transform="translate(68.426 68.014)" fill="#fff"/>
    </g>
    <g id="search_bar-11" data-name="search bar" transform="translate(405 509.416)">
      <g transform="matrix(1, 0, 0, 1, -405, -509.42)" filter="url(#Rectangle_16-12)">
        <rect id="Rectangle_16-28" data-name="Rectangle 16" width="261" height="57" rx="28.5" transform="translate(405 509.12)"/>
      </g>
      <g id="magnifying_glass-8" data-name="magnifying glass" transform="translate(207.714 10.965)">
        <path id="Path_19-8" data-name="Path 19" d="M12.477,0A12.477,12.477,0,1,1,0,12.477,12.477,12.477,0,0,1,12.477,0Z" fill="none"/>
        <path id="Path_20-8" data-name="Path 20" d="M0,0,9.624,9.92" transform="translate(19.642 20.573)" fill="none"/>
      </g>
      <path id="search-4" data-name="search" d="M.364-8.339l1.413-.834Q3.26-6.439,5.23-6.439A3.147,3.147,0,0,0,7.408-7.25a2.6,2.6,0,0,0,.9-2.016,3.123,3.123,0,0,0-.765-1.923A14.02,14.02,0,0,0,5.01-13.494a20.388,20.388,0,0,1-2.387-1.993,4.39,4.39,0,0,1-.9-1.413,4.2,4.2,0,0,1-.29-1.518,3.7,3.7,0,0,1,1.147-2.746,3.955,3.955,0,0,1,2.885-1.124,4.184,4.184,0,0,1,2.387.684,7.853,7.853,0,0,1,1.97,2.027L8.474-18.534a8.278,8.278,0,0,0-1.344-1.46,2.572,2.572,0,0,0-1.7-.579,2.3,2.3,0,0,0-1.645.6,2.014,2.014,0,0,0-.637,1.529,2.442,2.442,0,0,0,.568,1.61,17.009,17.009,0,0,0,2.572,2.167A13.782,13.782,0,0,1,9.2-11.93a4.4,4.4,0,0,1,.915,2.642,4.194,4.194,0,0,1-1.4,3.14A4.581,4.581,0,0,1,5.462-4.817Q2.195-4.817.364-8.339Zm23.357-.881,1.344.7a6.345,6.345,0,0,1-5.886,3.707,6.041,6.041,0,0,1-4.588-1.912,6.456,6.456,0,0,1-1.807-4.6A6.474,6.474,0,0,1,14.6-15.939a5.94,5.94,0,0,1,4.5-1.923,6.168,6.168,0,0,1,4.5,1.784,6.73,6.73,0,0,1,1.888,4.866H14.406a5.128,5.128,0,0,0,1.4,3.58A4.364,4.364,0,0,0,19.04-6.277,5,5,0,0,0,23.721-9.219Zm0-3.36A4.323,4.323,0,0,0,22.1-15.337a4.773,4.773,0,0,0-2.989-1q-3.476,0-4.542,3.754Zm16.961-4.959v12.3H39.13V-7.342a6.179,6.179,0,0,1-4.82,2.526,6.11,6.11,0,0,1-4.576-1.935,6.414,6.414,0,0,1-1.865-4.611,6.315,6.315,0,0,1,1.877-4.588,6.078,6.078,0,0,1,4.5-1.912A5.79,5.79,0,0,1,39.13-15.29v-2.248Zm-1.46,6.21a4.9,4.9,0,0,0-1.413-3.557,4.653,4.653,0,0,0-3.464-1.448,4.583,4.583,0,0,0-3.464,1.495A4.971,4.971,0,0,0,29.467-11.3,4.929,4.929,0,0,0,30.9-7.771a4.606,4.606,0,0,0,3.441,1.495,4.694,4.694,0,0,0,3.441-1.437A4.9,4.9,0,0,0,39.222-11.328Zm4.426-6.21H45.27v1.784a6.213,6.213,0,0,1,1.263-1.6,2.088,2.088,0,0,1,1.367-.51,3.149,3.149,0,0,1,1.518.417L48.584-16.1a1.378,1.378,0,0,0-.718-.209,1.8,1.8,0,0,0-1.356.741,4.67,4.67,0,0,0-.938,1.912,19.9,19.9,0,0,0-.3,4.252v4.171H43.648Zm19.6,2.549L62-14.2a5.265,5.265,0,0,0-4.449-2.155,5.219,5.219,0,0,0-3.731,1.425A4.668,4.668,0,0,0,52.314-11.4,4.969,4.969,0,0,0,53.8-7.783a5.046,5.046,0,0,0,3.754,1.506A5.464,5.464,0,0,0,62-8.432l1.251.834A6,6,0,0,1,60.76-5.535a7.98,7.98,0,0,1-3.371.718,6.526,6.526,0,0,1-4.762-1.877,6.183,6.183,0,0,1-1.912-4.588,6.336,6.336,0,0,1,1.935-4.646,6.728,6.728,0,0,1,4.97-1.935,7.234,7.234,0,0,1,3.3.765A5.571,5.571,0,0,1,63.251-14.989Zm2.966-7.3h1.6v6.951a5.621,5.621,0,0,1,4.611-2.526,4.362,4.362,0,0,1,2.5.753A4.1,4.1,0,0,1,76.5-15.14a10.577,10.577,0,0,1,.463,3.58v6.326h-1.6V-11.1a19.441,19.441,0,0,0-.116-2.618,3.772,3.772,0,0,0-.51-1.367,2.586,2.586,0,0,0-1.054-.985,3.493,3.493,0,0,0-1.6-.336,3.88,3.88,0,0,0-1.8.44,4.285,4.285,0,0,0-1.46,1.228,4.448,4.448,0,0,0-.811,1.622,17.029,17.029,0,0,0-.209,3.36v4.518h-1.6Z" transform="translate(24.764 41.083)" fill="#fff"/>
    </g>
    <g id="search_bar-12" data-name="search bar" transform="translate(695.745 509.416)">
      <g transform="matrix(1, 0, 0, 1, -695.74, -509.42)" filter="url(#Rectangle_16-13)">
        <rect id="Rectangle_16-29" data-name="Rectangle 16" width="59" height="57" rx="28.5" transform="translate(696 509.12)"/>
      </g>
      <g id="magnifying_glass-9" data-name="magnifying glass" transform="translate(14.745 13.304)">
        <g id="Path_19-9" data-name="Path 19" fill="none" stroke-linecap="round">
          <path d="M12.477,0A12.477,12.477,0,1,1,0,12.477,12.477,12.477,0,0,1,12.477,0Z" stroke="none"/>
          <path d="M 12.47741794586182 4.999998092651367 C 8.354358673095703 4.999998092651367 4.999998092651367 8.354358673095703 4.999998092651367 12.47741794586182 C 4.999998092651367 16.60047912597656 8.354358673095703 19.95483779907227 12.47741794586182 19.95483779907227 C 16.60047912597656 19.95483779907227 19.95483779907227 16.60047912597656 19.95483779907227 12.47741794586182 C 19.95483779907227 8.354358673095703 16.60047912597656 4.999998092651367 12.47741794586182 4.999998092651367 M 12.47741794586182 -1.9073486328125e-06 C 19.36850738525391 -1.9073486328125e-06 24.95483779907227 5.586328506469727 24.95483779907227 12.47741794586182 C 24.95483779907227 19.36850738525391 19.36850738525391 24.95483779907227 12.47741794586182 24.95483779907227 C 5.586328506469727 24.95483779907227 -1.9073486328125e-06 19.36850738525391 -1.9073486328125e-06 12.47741794586182 C -1.9073486328125e-06 5.586328506469727 5.586328506469727 -1.9073486328125e-06 12.47741794586182 -1.9073486328125e-06 Z" stroke="none" fill="#fff"/>
        </g>
        <path id="Path_20-9" data-name="Path 20" d="M0,0,9.624,9.92" transform="translate(19.642 20.573)" fill="none" stroke="#fff" stroke-linecap="round" stroke-width="5"/>
      </g>
    </g>
    <g id="magnifying_glass-10" data-name="magnifying glass" transform="translate(612.714 520.381)">
      <g id="Path_19-10" data-name="Path 19" fill="none" stroke-linecap="round">
        <path d="M12.477,0A12.477,12.477,0,1,1,0,12.477,12.477,12.477,0,0,1,12.477,0Z" stroke="none"/>
        <path d="M 12.47741794586182 4.999998092651367 C 8.354358673095703 4.999998092651367 4.999998092651367 8.354358673095703 4.999998092651367 12.47741794586182 C 4.999998092651367 16.60047912597656 8.354358673095703 19.95483779907227 12.47741794586182 19.95483779907227 C 16.60047912597656 19.95483779907227 19.95483779907227 16.60047912597656 19.95483779907227 12.47741794586182 C 19.95483779907227 8.354358673095703 16.60047912597656 4.999998092651367 12.47741794586182 4.999998092651367 M 12.47741794586182 -1.9073486328125e-06 C 19.36850738525391 -1.9073486328125e-06 24.95483779907227 5.586328506469727 24.95483779907227 12.47741794586182 C 24.95483779907227 19.36850738525391 19.36850738525391 24.95483779907227 12.47741794586182 24.95483779907227 C 5.586328506469727 24.95483779907227 -1.9073486328125e-06 19.36850738525391 -1.9073486328125e-06 12.47741794586182 C -1.9073486328125e-06 5.586328506469727 5.586328506469727 -1.9073486328125e-06 12.47741794586182 -1.9073486328125e-06 Z" stroke="none" fill="#fff"/>
      </g>
      <path id="Path_20-10" data-name="Path 20" d="M0,0,9.624,9.92" transform="translate(19.642 20.573)" fill="none" stroke="#fff" stroke-linecap="round" stroke-width="5"/>
    </g>
    <g id="search_bar-13" data-name="search bar" transform="translate(850 627.297)">
      <g id="Group_33" data-name="Group 33">
        <g transform="matrix(1, 0, 0, 1, -850, -627.3)" filter="url(#Rectangle_16-14)">
          <rect id="Rectangle_16-30" data-name="Rectangle 16" width="250" height="48" rx="19" transform="translate(850 627)"/>
        </g>
      </g>
    </g>
    <path id="Path_42" data-name="Path 42" d="M2.175-19.45H4V-3.225h6.9V-1.5H2.175Zm24.5,4.675V-1.5H25V-3.775A6.666,6.666,0,0,1,19.8-1.05a6.592,6.592,0,0,1-4.937-2.087A6.92,6.92,0,0,1,12.85-8.113a6.814,6.814,0,0,1,2.025-4.95,6.557,6.557,0,0,1,4.85-2.063A6.246,6.246,0,0,1,25-12.35v-2.425ZM25.1-8.075a5.283,5.283,0,0,0-1.525-3.837,5.021,5.021,0,0,0-3.738-1.562A4.945,4.945,0,0,0,16.1-11.863,5.363,5.363,0,0,0,14.575-8.05a5.318,5.318,0,0,0,1.55,3.813,4.969,4.969,0,0,0,3.712,1.612,5.065,5.065,0,0,0,3.712-1.55A5.288,5.288,0,0,0,25.1-8.075Zm4.775-6.7h1.75v1.925a6.7,6.7,0,0,1,1.362-1.725,2.253,2.253,0,0,1,1.475-.55,3.4,3.4,0,0,1,1.637.45l-.9,1.45a1.487,1.487,0,0,0-.775-.225,1.947,1.947,0,0,0-1.462.8,5.039,5.039,0,0,0-1.013,2.063A21.468,21.468,0,0,0,31.625-6v4.5h-1.75Zm19.8,0H51.4v10.25a12.336,12.336,0,0,1-.475,4A5.52,5.52,0,0,1,49.55,1.6a6.056,6.056,0,0,1-2.175,1.3,8.362,8.362,0,0,1-2.8.45q-5.2,0-6.85-4.15h1.85A5.174,5.174,0,0,0,44.5,1.8a6.18,6.18,0,0,0,2.913-.65,3.906,3.906,0,0,0,1.75-1.662,7.355,7.355,0,0,0,.513-3.162V-4.25a6.478,6.478,0,0,1-2.425,1.9,7.156,7.156,0,0,1-2.95.625A6.459,6.459,0,0,1,39.475-3.7,6.444,6.444,0,0,1,37.55-8.35a6.44,6.44,0,0,1,2.05-4.775,6.845,6.845,0,0,1,4.962-2,6.506,6.506,0,0,1,5.113,2.65ZM49.75-8.35A4.958,4.958,0,0,0,48.275-12a4.958,4.958,0,0,0-3.65-1.475A5.083,5.083,0,0,0,40.8-11.887,5.1,5.1,0,0,0,39.275-8.25,4.689,4.689,0,0,0,40.75-4.763a5.184,5.184,0,0,0,3.775,1.438,5.217,5.217,0,0,0,3.763-1.4A4.793,4.793,0,0,0,49.75-8.35ZM66.05-5.8l1.45.75a6.846,6.846,0,0,1-6.35,4A6.517,6.517,0,0,1,56.2-3.112a6.966,6.966,0,0,1-1.95-4.963,6.985,6.985,0,0,1,1.962-4.975,6.409,6.409,0,0,1,4.85-2.075,6.655,6.655,0,0,1,4.85,1.925A7.261,7.261,0,0,1,67.95-7.95H56a5.533,5.533,0,0,0,1.512,3.862A4.708,4.708,0,0,0,61-2.625,5.4,5.4,0,0,0,66.05-5.8Zm0-3.625A4.664,4.664,0,0,0,64.3-12.4a5.15,5.15,0,0,0-3.225-1.075q-3.75,0-4.9,4.05ZM77.65-19.45h1.825V-3.225h6.9V-1.5H77.65Zm24.5,4.675V-1.5h-1.675V-3.775a6.666,6.666,0,0,1-5.2,2.725,6.592,6.592,0,0,1-4.937-2.087,6.92,6.92,0,0,1-2.012-4.975,6.814,6.814,0,0,1,2.025-4.95,6.557,6.557,0,0,1,4.85-2.063,6.246,6.246,0,0,1,5.275,2.775v-2.425Zm-1.575,6.7a5.283,5.283,0,0,0-1.525-3.837,5.021,5.021,0,0,0-3.738-1.562,4.945,4.945,0,0,0-3.737,1.612A5.363,5.363,0,0,0,90.05-8.05,5.318,5.318,0,0,0,91.6-4.237a4.969,4.969,0,0,0,3.713,1.612,5.065,5.065,0,0,0,3.713-1.55A5.288,5.288,0,0,0,100.575-8.075Zm5.55,6.575V-19.9H107.8v7.4a6.672,6.672,0,0,1,5.325-2.625,6.465,6.465,0,0,1,4.837,2.063A6.9,6.9,0,0,1,119.95-8.1a6.871,6.871,0,0,1-2.025,4.975,6.538,6.538,0,0,1-4.85,2.075,6.34,6.34,0,0,1-5.275-2.9V-1.5ZM107.7-8.225A5.474,5.474,0,0,0,109.225-4.3a4.949,4.949,0,0,0,3.725,1.6,4.953,4.953,0,0,0,3.738-1.625,5.368,5.368,0,0,0,1.537-3.813,5.44,5.44,0,0,0-1.5-3.812,4.891,4.891,0,0,0-3.75-1.625,5.086,5.086,0,0,0-3.762,1.525A5.211,5.211,0,0,0,107.7-8.225ZM134.225-5.8l1.45.75a6.846,6.846,0,0,1-6.35,4,6.517,6.517,0,0,1-4.95-2.062,6.966,6.966,0,0,1-1.95-4.963,6.985,6.985,0,0,1,1.963-4.975,6.409,6.409,0,0,1,4.85-2.075,6.655,6.655,0,0,1,4.85,1.925,7.261,7.261,0,0,1,2.038,5.25h-11.95a5.533,5.533,0,0,0,1.512,3.862,4.708,4.708,0,0,0,3.488,1.463A5.4,5.4,0,0,0,134.225-5.8Zm0-3.625a4.664,4.664,0,0,0-1.75-2.975,5.15,5.15,0,0,0-3.225-1.075q-3.75,0-4.9,4.05ZM139.05-19.9h1.7V-1.5h-1.7Z" transform="translate(903 661)" fill="#fafafa"/>
  </g>
</svg>
