<?xml version="1.0" encoding="utf-8"?>
<!-- Generator: Adobe Illustrator 25.2.3, SVG Export Plug-In . SVG Version: 6.00 Build 0)  -->
<svg version="1.1" id="Layer_1" xmlns="http://www.w3.org/2000/svg" xmlns:xlink="http://www.w3.org/1999/xlink" x="0px" y="0px"
	 viewBox="0 0 252 144" style="enable-background:new 0 0 252 144;" xml:space="preserve">
<style type="text/css">
	.st0{fill:none;stroke:#5E3F1C;stroke-width:5;stroke-linecap:round;stroke-miterlimit:10;}
	.st1{fill:none;stroke:#5E3F1C;stroke-width:2;stroke-linecap:round;stroke-miterlimit:10;}
	.st2{fill:none;stroke:#B26B0D;stroke-width:5;stroke-linecap:round;stroke-miterlimit:10;}
	.st3{fill:none;stroke:#B26B0D;stroke-width:2;stroke-linecap:round;stroke-miterlimit:10;}
</style>
<g>
	<g>
		<path class="st0" d="M116.9,27.1L52.4,47.5c0,0-13.6,26.1,12.5,39.6l64.6-20.3"/>
		<g>
			<line class="st1" x1="115.9" y1="36.2" x2="57.3" y2="54.6"/>
			<line class="st1" x1="114.3" y1="42.9" x2="59.1" y2="60.3"/>
			<line class="st1" x1="115.2" y1="49.5" x2="61" y2="66.5"/>
			<line class="st1" x1="118.1" y1="55" x2="62.9" y2="72.3"/>
			<line class="st1" x1="123.4" y1="60" x2="64.8" y2="78.4"/>
		</g>
	</g>
	<g>
		<path class="st2" d="M203.2,53.6l-56.9-36.7c0,0-28.7,6.2-22.5,34.9l56.9,36.7"/>
		<g>
			<line class="st3" x1="195.6" y1="58.5" x2="144" y2="25.2"/>
			<line class="st3" x1="189.4" y1="61.7" x2="140.7" y2="30.3"/>
			<line class="st3" x1="184.9" y1="66.5" x2="137.2" y2="35.7"/>
			<line class="st3" x1="182.5" y1="72.3" x2="133.9" y2="40.9"/>
			<line class="st3" x1="182" y1="79.5" x2="130.4" y2="46.2"/>
		</g>
	</g>
	<g>
		<path d="M23.8,116c1.2,1.6,1.9,3.3,1.9,5.3c0,1.7-0.4,3.2-1.3,4.6s-2.2,2.4-3.8,3.2c-1.7,0.8-3.6,1.2-5.8,1.2H1.4V96.9h12.7
			c2.3,0,4.2,0.4,5.9,1.2c1.6,0.8,2.9,1.8,3.7,3.1c0.8,1.3,1.2,2.7,1.2,4.3c0,1.9-0.5,3.5-1.5,4.8s-2.4,2.2-4.1,2.8
			C21,113.5,22.5,114.4,23.8,116z M6.8,110.9h6.8c1.8,0,3.2-0.4,4.2-1.2c1-0.8,1.5-2,1.5-3.5s-0.5-2.7-1.5-3.5s-2.4-1.3-4.2-1.3H6.8
			V110.9z M18.6,124.5c1.1-0.9,1.6-2.1,1.6-3.7s-0.6-2.9-1.7-3.9s-2.6-1.4-4.5-1.4H6.8v10.3h7.4C16.1,125.8,17.6,125.4,18.6,124.5z"
			/>
		<path d="M36.3,129c-2-1.1-3.6-2.7-4.8-4.8c-1.2-2.1-1.7-4.5-1.7-7.2s0.6-5.1,1.8-7.2c1.2-2.1,2.8-3.7,4.8-4.8
			c2-1.1,4.3-1.7,6.9-1.7c2.5,0,4.8,0.6,6.9,1.7c2,1.1,3.7,2.7,4.8,4.8c1.2,2.1,1.8,4.5,1.8,7.2s-0.6,5.1-1.8,7.2s-2.9,3.7-5,4.8
			c-2.1,1.1-4.4,1.7-6.9,1.7S38.3,130.2,36.3,129z M47,125c1.2-0.7,2.2-1.7,3-3s1.2-3,1.2-4.9s-0.4-3.5-1.1-4.9
			c-0.7-1.3-1.7-2.3-2.9-3s-2.5-1-3.9-1s-2.7,0.3-3.9,1s-2.2,1.7-2.9,3s-1.1,3-1.1,4.9c0,2.8,0.7,5,2.2,6.6s3.3,2.3,5.5,2.3
			C44.5,126,45.8,125.6,47,125z"/>
		<path d="M66.9,129c-2-1.1-3.6-2.7-4.8-4.8c-1.2-2.1-1.7-4.5-1.7-7.2s0.6-5.1,1.8-7.2s2.8-3.7,4.8-4.8c2-1.1,4.3-1.7,6.9-1.7
			c2.5,0,4.8,0.6,6.9,1.7c2,1.1,3.7,2.7,4.8,4.8c1.2,2.1,1.8,4.5,1.8,7.2s-0.6,5.1-1.8,7.2s-2.9,3.7-5,4.8c-2.1,1.1-4.4,1.7-6.9,1.7
			C71.2,130.7,69,130.2,66.9,129z M77.7,125c1.2-0.7,2.2-1.7,3-3s1.2-3,1.2-4.9s-0.4-3.5-1.1-4.9c-0.8-1.4-1.8-2.4-3-3
			c-1.2-0.7-2.5-1-3.9-1s-2.7,0.3-3.9,1s-2.2,1.7-2.9,3c-0.7,1.3-1.1,3-1.1,4.9c0,2.8,0.7,5,2.2,6.6s3.3,2.3,5.5,2.3
			C75.1,126,76.4,125.6,77.7,125z"/>
		<path d="M103.3,117.1l12.2,13.2h-7.4l-9.8-11.4v11.4h-5.5V94.8h5.5v20.6l9.6-11.6h7.6L103.3,117.1z"/>
		<path d="M159.3,130.3h-5.5l-16.5-24.9v24.9h-5.5V96.9h5.5l16.5,24.9V96.9h5.5V130.3z"/>
		<path d="M171.2,129c-2-1.1-3.6-2.7-4.8-4.8c-1.2-2.1-1.7-4.5-1.7-7.2s0.6-5.1,1.8-7.2s2.8-3.7,4.8-4.8c2-1.1,4.3-1.7,6.9-1.7
			c2.5,0,4.8,0.6,6.9,1.7c2,1.1,3.7,2.7,4.8,4.8c1.2,2.1,1.8,4.5,1.8,7.2s-0.6,5.1-1.8,7.2s-2.9,3.7-5,4.8c-2.1,1.1-4.4,1.7-6.9,1.7
			S173.3,130.2,171.2,129z M182,125c1.2-0.7,2.2-1.7,3-3s1.2-3,1.2-4.9s-0.4-3.5-1.1-4.9c-0.7-1.3-1.7-2.3-2.9-3s-2.5-1-3.9-1
			s-2.7,0.3-3.9,1s-2.2,1.7-2.9,3s-1.1,3-1.1,4.9c0,2.8,0.7,5,2.2,6.6s3.3,2.3,5.5,2.3C179.4,126,180.7,125.6,182,125z"/>
		<path d="M201.9,129c-2-1.1-3.6-2.7-4.8-4.8c-1.2-2.1-1.7-4.5-1.7-7.2s0.6-5.1,1.8-7.2s2.8-3.7,4.8-4.8c2-1.1,4.3-1.7,6.9-1.7
			c2.5,0,4.8,0.6,6.9,1.7c2,1.1,3.7,2.7,4.8,4.8c1.2,2.1,1.8,4.5,1.8,7.2s-0.6,5.1-1.8,7.2s-2.9,3.7-5,4.8c-2.1,1.1-4.4,1.7-6.9,1.7
			C206.1,130.7,203.9,130.2,201.9,129z M212.6,125c1.2-0.7,2.2-1.7,3-3s1.2-3,1.2-4.9s-0.4-3.5-1.1-4.9c-0.7-1.3-1.7-2.3-2.9-3
			s-2.5-1-3.9-1s-2.7,0.3-3.9,1s-2.2,1.7-2.9,3s-1.1,3-1.1,4.9c0,2.8,0.7,5,2.2,6.6s3.3,2.3,5.5,2.3C210,126,211.4,125.6,212.6,125z
			"/>
		<path d="M238.3,117.1l12.2,13.2h-7.4l-9.8-11.4v11.4h-5.5V94.8h5.5v20.6l9.6-11.6h7.6L238.3,117.1z"/>
	</g>
</g>
</svg>
