<?xml version="1.0" encoding="utf-8"?>
<!-- Generator: Adobe Illustrator 25.2.3, SVG Export Plug-In . SVG Version: 6.00 Build 0)  -->
<svg version="1.1" id="Layer_1" xmlns="http://www.w3.org/2000/svg" xmlns:xlink="http://www.w3.org/1999/xlink" x="0px" y="0px"
	 viewBox="0 0 252 144" style="enable-background:new 0 0 252 144;" xml:space="preserve">
<style type="text/css">
	.st0{fill:none;stroke:#5E3F1C;stroke-width:5;stroke-linecap:round;stroke-miterlimit:10;}
	.st1{fill:none;stroke:#5E3F1C;stroke-width:2;stroke-linecap:round;stroke-miterlimit:10;}
	.st2{fill:none;stroke:#B26B0D;stroke-width:5;stroke-linecap:round;stroke-miterlimit:10;}
	.st3{fill:none;stroke:#B26B0D;stroke-width:2;stroke-linecap:round;stroke-miterlimit:10;}
</style>
<g>
	<g>
		<path class="st0" d="M116.3,19.8L51.8,40.2c0,0-13.6,26.1,12.5,39.6l64.6-20.3"/>
		<g>
			<line class="st1" x1="115.3" y1="28.9" x2="56.7" y2="47.3"/>
			<line class="st1" x1="113.7" y1="35.6" x2="58.5" y2="53"/>
			<line class="st1" x1="114.6" y1="42.2" x2="60.4" y2="59.2"/>
			<line class="st1" x1="117.5" y1="47.7" x2="62.3" y2="65"/>
			<line class="st1" x1="122.8" y1="52.7" x2="64.2" y2="71.1"/>
		</g>
	</g>
	<g>
		<path class="st2" d="M202.6,46.3L145.7,9.6c0,0-28.7,6.2-22.5,34.9l56.9,36.7"/>
		<g>
			<line class="st3" x1="195" y1="51.2" x2="143.4" y2="17.9"/>
			<line class="st3" x1="188.8" y1="54.4" x2="140.1" y2="23"/>
			<line class="st3" x1="184.3" y1="59.2" x2="136.6" y2="28.4"/>
			<line class="st3" x1="181.9" y1="65" x2="133.3" y2="33.6"/>
			<line class="st3" x1="181.4" y1="72.2" x2="129.8" y2="38.9"/>
		</g>
	</g>
	<g>
		<path d="M23.8,102.2c1.2,1.6,1.9,3.3,1.9,5.3c0,1.7-0.4,3.2-1.3,4.6c-0.9,1.4-2.2,2.4-3.8,3.2c-1.7,0.8-3.6,1.2-5.8,1.2H1.4V83.1
			h12.7c2.3,0,4.2,0.4,5.9,1.2c1.6,0.8,2.9,1.8,3.7,3.1c0.8,1.3,1.2,2.7,1.2,4.3c0,1.9-0.5,3.5-1.5,4.8c-1,1.3-2.4,2.2-4.1,2.8
			C21,99.7,22.5,100.6,23.8,102.2z M6.8,97.1h6.8c1.8,0,3.2-0.4,4.2-1.2c1-0.8,1.5-2,1.5-3.5c0-1.5-0.5-2.7-1.5-3.5
			c-1-0.8-2.4-1.3-4.2-1.3H6.8V97.1z M18.6,110.7c1.1-0.9,1.6-2.1,1.6-3.7c0-1.6-0.6-2.9-1.7-3.9s-2.6-1.4-4.5-1.4H6.8V112h7.4
			C16.1,112,17.6,111.6,18.6,110.7z"/>
		<path d="M36.3,115.2c-2-1.1-3.6-2.7-4.8-4.8c-1.2-2.1-1.7-4.5-1.7-7.2c0-2.7,0.6-5.1,1.8-7.2c1.2-2.1,2.8-3.7,4.8-4.8
			c2-1.1,4.3-1.7,6.9-1.7c2.5,0,4.8,0.6,6.9,1.7c2,1.1,3.7,2.7,4.8,4.8c1.2,2.1,1.8,4.5,1.8,7.2c0,2.7-0.6,5.1-1.8,7.2
			c-1.2,2.1-2.9,3.7-5,4.8c-2.1,1.1-4.4,1.7-6.9,1.7C40.6,116.9,38.3,116.4,36.3,115.2z M47,111.2c1.2-0.7,2.2-1.7,3-3
			c0.8-1.3,1.2-3,1.2-4.9s-0.4-3.5-1.1-4.9c-0.7-1.3-1.7-2.3-2.9-3c-1.2-0.7-2.5-1-3.9-1c-1.4,0-2.7,0.3-3.9,1
			c-1.2,0.7-2.2,1.7-2.9,3c-0.7,1.3-1.1,3-1.1,4.9c0,2.8,0.7,5,2.2,6.6c1.5,1.6,3.3,2.3,5.5,2.3C44.5,112.2,45.8,111.8,47,111.2z"/>
		<path d="M66.9,115.2c-2-1.1-3.6-2.7-4.8-4.8c-1.2-2.1-1.7-4.5-1.7-7.2c0-2.7,0.6-5.1,1.8-7.2c1.2-2.1,2.8-3.7,4.8-4.8
			c2-1.1,4.3-1.7,6.9-1.7c2.5,0,4.8,0.6,6.9,1.7c2,1.1,3.7,2.7,4.8,4.8c1.2,2.1,1.8,4.5,1.8,7.2c0,2.7-0.6,5.1-1.8,7.2
			s-2.9,3.7-5,4.8c-2.1,1.1-4.4,1.7-6.9,1.7C71.2,116.9,69,116.4,66.9,115.2z M77.7,111.2c1.2-0.7,2.2-1.7,3-3
			c0.8-1.3,1.2-3,1.2-4.9s-0.4-3.5-1.1-4.9C80,97,79,96,77.8,95.4c-1.2-0.7-2.5-1-3.9-1s-2.7,0.3-3.9,1s-2.2,1.7-2.9,3
			c-0.7,1.3-1.1,3-1.1,4.9c0,2.8,0.7,5,2.2,6.6c1.5,1.6,3.3,2.3,5.5,2.3C75.1,112.2,76.4,111.8,77.7,111.2z"/>
		<path d="M103.3,103.3l12.2,13.2h-7.4l-9.8-11.4v11.4h-5.5V81h5.5v20.6l9.6-11.6h7.6L103.3,103.3z"/>
		<path d="M159.3,116.5h-5.5l-16.5-24.9v24.9h-5.5V83.1h5.5l16.5,24.9V83.1h5.5V116.5z"/>
		<path d="M171.2,115.2c-2-1.1-3.6-2.7-4.8-4.8c-1.2-2.1-1.7-4.5-1.7-7.2c0-2.7,0.6-5.1,1.8-7.2c1.2-2.1,2.8-3.7,4.8-4.8
			c2-1.1,4.3-1.7,6.9-1.7c2.5,0,4.8,0.6,6.9,1.7c2,1.1,3.7,2.7,4.8,4.8c1.2,2.1,1.8,4.5,1.8,7.2c0,2.7-0.6,5.1-1.8,7.2
			s-2.9,3.7-5,4.8c-2.1,1.1-4.4,1.7-6.9,1.7C175.5,116.9,173.3,116.4,171.2,115.2z M182,111.2c1.2-0.7,2.2-1.7,3-3
			c0.8-1.3,1.2-3,1.2-4.9s-0.4-3.5-1.1-4.9c-0.7-1.3-1.7-2.3-2.9-3c-1.2-0.7-2.5-1-3.9-1s-2.7,0.3-3.9,1s-2.2,1.7-2.9,3
			c-0.7,1.3-1.1,3-1.1,4.9c0,2.8,0.7,5,2.2,6.6c1.5,1.6,3.3,2.3,5.5,2.3C179.4,112.2,180.7,111.8,182,111.2z"/>
		<path d="M201.9,115.2c-2-1.1-3.6-2.7-4.8-4.8c-1.2-2.1-1.7-4.5-1.7-7.2c0-2.7,0.6-5.1,1.8-7.2c1.2-2.1,2.8-3.7,4.8-4.8
			c2-1.1,4.3-1.7,6.9-1.7c2.5,0,4.8,0.6,6.9,1.7c2,1.1,3.7,2.7,4.8,4.8c1.2,2.1,1.8,4.5,1.8,7.2c0,2.7-0.6,5.1-1.8,7.2
			s-2.9,3.7-5,4.8c-2.1,1.1-4.4,1.7-6.9,1.7C206.1,116.9,203.9,116.4,201.9,115.2z M212.6,111.2c1.2-0.7,2.2-1.7,3-3
			c0.8-1.3,1.2-3,1.2-4.9s-0.4-3.5-1.1-4.9c-0.7-1.3-1.7-2.3-2.9-3c-1.2-0.7-2.5-1-3.9-1s-2.7,0.3-3.9,1s-2.2,1.7-2.9,3
			c-0.7,1.3-1.1,3-1.1,4.9c0,2.8,0.7,5,2.2,6.6c1.5,1.6,3.3,2.3,5.5,2.3C210,112.2,211.4,111.8,212.6,111.2z"/>
		<path d="M238.3,103.3l12.2,13.2h-7.4l-9.8-11.4v11.4h-5.5V81h5.5v20.6l9.6-11.6h7.6L238.3,103.3z"/>
	</g>
	<g>
		<path d="M56.9,126.4c-0.3-0.7-0.9-1.3-1.5-1.7c-0.7-0.4-1.4-0.6-2.3-0.6c-0.9,0-1.7,0.2-2.4,0.6c-0.7,0.4-1.3,1-1.7,1.7
			c-0.4,0.8-0.6,1.6-0.6,2.6c0,1,0.2,1.8,0.6,2.6c0.4,0.7,1,1.3,1.7,1.7s1.5,0.6,2.4,0.6c1.2,0,2.2-0.4,3-1.1c0.8-0.7,1.3-1.7,1.4-3
			h-5v-1.3h6.8v1.3c-0.1,1-0.4,2-1,2.8c-0.6,0.9-1.3,1.5-2.2,2s-1.9,0.7-3,0.7c-1.2,0-2.2-0.3-3.2-0.8c-1-0.5-1.7-1.3-2.3-2.3
			c-0.6-1-0.8-2.1-0.8-3.3c0-1.2,0.3-2.3,0.8-3.3c0.6-1,1.3-1.7,2.3-2.3c1-0.5,2-0.8,3.2-0.8c1.3,0,2.5,0.3,3.5,1
			c1,0.7,1.8,1.6,2.2,2.8H56.9z"/>
		<path d="M70.4,131h-7.9c0.1,1,0.4,1.7,1,2.3c0.6,0.5,1.3,0.8,2.2,0.8c0.7,0,1.3-0.2,1.8-0.5s0.8-0.8,1-1.3h1.8
			c-0.3,0.9-0.8,1.7-1.6,2.3c-0.8,0.6-1.8,0.9-3,0.9c-0.9,0-1.8-0.2-2.5-0.6c-0.7-0.4-1.3-1-1.7-1.8s-0.6-1.7-0.6-2.7
			c0-1,0.2-1.9,0.6-2.7c0.4-0.8,1-1.4,1.7-1.8c0.7-0.4,1.6-0.6,2.5-0.6c0.9,0,1.8,0.2,2.5,0.6c0.7,0.4,1.3,1,1.7,1.7
			c0.4,0.7,0.6,1.5,0.6,2.4C70.4,130.4,70.4,130.7,70.4,131z M68.3,128.1c-0.3-0.5-0.7-0.8-1.1-1c-0.5-0.2-1-0.4-1.6-0.4
			c-0.8,0-1.5,0.3-2.1,0.8s-0.9,1.3-1,2.2h6.2C68.8,129.1,68.6,128.5,68.3,128.1z"/>
		<path d="M74.6,126.8v5.8c0,0.5,0.1,0.8,0.3,1s0.6,0.3,1.1,0.3h1.2v1.4h-1.5c-0.9,0-1.6-0.2-2.1-0.6c-0.5-0.4-0.7-1.1-0.7-2.1v-5.8
			h-1.3v-1.3H73V123h1.6v2.5h2.6v1.3H74.6z"/>
		<path d="M92.5,125.5L86.5,140h-1.7l1.9-4.8l-4-9.8h1.8l3.1,8l3.1-8H92.5z"/>
		<path d="M95.9,134.9c-0.8-0.4-1.3-1-1.8-1.8c-0.4-0.8-0.6-1.7-0.6-2.7c0-1,0.2-1.9,0.7-2.7c0.4-0.8,1-1.4,1.8-1.8
			c0.8-0.4,1.6-0.6,2.5-0.6c0.9,0,1.8,0.2,2.5,0.6c0.8,0.4,1.4,1,1.8,1.8c0.4,0.8,0.7,1.7,0.7,2.7c0,1-0.2,1.9-0.7,2.7
			c-0.4,0.8-1.1,1.4-1.8,1.8c-0.8,0.4-1.6,0.6-2.6,0.6C97.5,135.5,96.6,135.3,95.9,134.9z M100.1,133.7c0.5-0.3,0.9-0.7,1.3-1.2
			c0.3-0.6,0.5-1.2,0.5-2s-0.2-1.5-0.5-2s-0.7-1-1.2-1.2c-0.5-0.3-1.1-0.4-1.6-0.4c-0.6,0-1.1,0.1-1.6,0.4c-0.5,0.3-0.9,0.7-1.2,1.2
			s-0.4,1.2-0.4,2c0,0.8,0.1,1.5,0.4,2c0.3,0.6,0.7,1,1.2,1.2c0.5,0.3,1,0.4,1.6,0.4S99.5,133.9,100.1,133.7z"/>
		<path d="M114.4,125.5v9.9h-1.6v-1.5c-0.3,0.5-0.7,0.9-1.3,1.2c-0.6,0.3-1.2,0.4-1.8,0.4c-0.8,0-1.5-0.2-2.1-0.5
			c-0.6-0.3-1.1-0.8-1.4-1.4c-0.4-0.6-0.5-1.4-0.5-2.3v-5.8h1.6v5.6c0,1,0.2,1.7,0.7,2.2c0.5,0.5,1.2,0.8,2,0.8
			c0.9,0,1.6-0.3,2.1-0.8c0.5-0.5,0.8-1.3,0.8-2.4v-5.4H114.4z"/>
		<path d="M120,125.8c0.5-0.3,1.2-0.5,2-0.5v1.7h-0.4c-1.8,0-2.8,1-2.8,3v5.4h-1.6v-9.9h1.6v1.6C119.1,126.5,119.5,126.1,120,125.8z
			"/>
		<path d="M131.5,125.8c0.5-0.3,1.2-0.5,2-0.5v1.7h-0.4c-1.8,0-2.8,1-2.8,3v5.4h-1.6v-9.9h1.6v1.6
			C130.6,126.5,131,126.1,131.5,125.8z"/>
		<path d="M144.3,131h-7.9c0.1,1,0.4,1.7,1,2.3c0.6,0.5,1.3,0.8,2.2,0.8c0.7,0,1.3-0.2,1.8-0.5s0.8-0.8,1-1.3h1.8
			c-0.3,0.9-0.8,1.7-1.6,2.3c-0.8,0.6-1.8,0.9-3,0.9c-0.9,0-1.8-0.2-2.5-0.6c-0.7-0.4-1.3-1-1.7-1.8c-0.4-0.8-0.6-1.7-0.6-2.7
			c0-1,0.2-1.9,0.6-2.7c0.4-0.8,1-1.4,1.7-1.8c0.7-0.4,1.6-0.6,2.5-0.6c0.9,0,1.8,0.2,2.5,0.6c0.7,0.4,1.3,1,1.7,1.7
			s0.6,1.5,0.6,2.4C144.4,130.4,144.4,130.7,144.3,131z M142.3,128.1c-0.3-0.5-0.7-0.8-1.1-1c-0.5-0.2-1-0.4-1.6-0.4
			c-0.8,0-1.5,0.3-2.1,0.8s-0.9,1.3-1,2.2h6.2C142.7,129.1,142.5,128.5,142.3,128.1z"/>
		<path d="M146.5,127.7c0.4-0.8,1-1.4,1.7-1.8c0.7-0.4,1.5-0.6,2.4-0.6c0.9,0,1.6,0.2,2.2,0.6c0.6,0.4,1.1,0.8,1.4,1.4v-1.8h1.7v9.9
			h-1.7v-1.8c-0.3,0.6-0.8,1.1-1.4,1.4c-0.6,0.4-1.4,0.6-2.2,0.6c-0.9,0-1.7-0.2-2.4-0.6c-0.7-0.4-1.3-1-1.7-1.8s-0.6-1.7-0.6-2.7
			C145.9,129.4,146.1,128.5,146.5,127.7z M153.8,128.5c-0.3-0.6-0.7-1-1.2-1.3c-0.5-0.3-1.1-0.4-1.7-0.4c-0.6,0-1.2,0.1-1.7,0.4
			c-0.5,0.3-0.9,0.7-1.2,1.3c-0.3,0.6-0.5,1.2-0.5,1.9c0,0.8,0.1,1.4,0.5,2c0.3,0.6,0.7,1,1.2,1.3c0.5,0.3,1.1,0.4,1.7,0.4
			c0.6,0,1.2-0.1,1.7-0.4s0.9-0.7,1.2-1.3c0.3-0.6,0.5-1.2,0.5-2C154.3,129.7,154.1,129,153.8,128.5z"/>
		<path d="M158.7,127.7c0.4-0.8,1-1.4,1.7-1.8c0.7-0.4,1.5-0.6,2.4-0.6c0.8,0,1.5,0.2,2.1,0.5c0.7,0.4,1.2,0.8,1.5,1.4V122h1.7v13.3
			h-1.7v-1.9c-0.3,0.6-0.8,1.1-1.4,1.4c-0.6,0.4-1.4,0.6-2.2,0.6c-0.9,0-1.7-0.2-2.4-0.6c-0.7-0.4-1.3-1-1.7-1.8s-0.6-1.7-0.6-2.7
			C158.1,129.4,158.3,128.5,158.7,127.7z M166,128.5c-0.3-0.6-0.7-1-1.2-1.3c-0.5-0.3-1.1-0.4-1.7-0.4c-0.6,0-1.2,0.1-1.7,0.4
			c-0.5,0.3-0.9,0.7-1.2,1.3c-0.3,0.6-0.5,1.2-0.5,1.9c0,0.8,0.1,1.4,0.5,2c0.3,0.6,0.7,1,1.2,1.3c0.5,0.3,1.1,0.4,1.7,0.4
			c0.6,0,1.2-0.1,1.7-0.4s0.9-0.7,1.2-1.3c0.3-0.6,0.5-1.2,0.5-2C166.4,129.7,166.3,129,166,128.5z"/>
		<path d="M177.5,134.9c-0.8-0.4-1.3-1-1.8-1.8s-0.6-1.7-0.6-2.7c0-1,0.2-1.9,0.7-2.7c0.4-0.8,1-1.4,1.8-1.8
			c0.8-0.4,1.6-0.6,2.5-0.6c0.9,0,1.8,0.2,2.5,0.6c0.8,0.4,1.4,1,1.8,1.8c0.4,0.8,0.7,1.7,0.7,2.7c0,1-0.2,1.9-0.7,2.7
			s-1.1,1.4-1.8,1.8c-0.8,0.4-1.6,0.6-2.6,0.6C179.1,135.5,178.2,135.3,177.5,134.9z M181.6,133.7c0.5-0.3,0.9-0.7,1.3-1.2
			c0.3-0.6,0.5-1.2,0.5-2s-0.2-1.5-0.5-2c-0.3-0.6-0.7-1-1.2-1.2c-0.5-0.3-1-0.4-1.6-0.4c-0.6,0-1.1,0.1-1.6,0.4
			c-0.5,0.3-0.9,0.7-1.2,1.2c-0.3,0.6-0.5,1.2-0.5,2c0,0.8,0.1,1.5,0.4,2c0.3,0.6,0.7,1,1.2,1.2c0.5,0.3,1,0.4,1.6,0.4
			C180.6,134.1,181.1,133.9,181.6,133.7z"/>
		<path d="M194.9,126.4c0.7,0.7,1.1,1.8,1.1,3.1v5.8h-1.6v-5.6c0-1-0.2-1.7-0.7-2.3c-0.5-0.5-1.2-0.8-2-0.8c-0.9,0-1.6,0.3-2.1,0.8
			s-0.8,1.3-0.8,2.4v5.5h-1.6v-9.9h1.6v1.4c0.3-0.5,0.8-0.9,1.3-1.2c0.6-0.3,1.2-0.4,1.8-0.4C193.2,125.3,194.2,125.7,194.9,126.4z"
			/>
		<path d="M198.4,135.1c-0.2-0.2-0.3-0.5-0.3-0.8c0-0.3,0.1-0.6,0.3-0.8s0.5-0.3,0.8-0.3c0.3,0,0.6,0.1,0.8,0.3s0.3,0.5,0.3,0.8
			c0,0.3-0.1,0.6-0.3,0.8s-0.5,0.3-0.8,0.3C198.9,135.5,198.7,135.4,198.4,135.1z"/>
	</g>
</g>
</svg>
