<?xml version="1.0" encoding="utf-8"?>
<!-- Generator: Adobe Illustrator 25.2.1, SVG Export Plug-In . SVG Version: 6.00 Build 0)  -->
<svg version="1.1" id="Layer_1" xmlns="http://www.w3.org/2000/svg" xmlns:xlink="http://www.w3.org/1999/xlink" x="0px" y="0px"
	 viewBox="0 0 252 144" style="enable-background:new 0 0 252 144;" xml:space="preserve">
<style type="text/css">
	.st0{fill:#FFFFFF;stroke:#000000;stroke-miterlimit:10;}
	.st1{fill:#DEAEF4;}
	.st2{fill:#FFCE45;}
	.st3{fill:#FF9F48;}
	.st4{fill:#64E2FF;}
	.st5{fill:#FC92BB;}
	.st6{fill:#F9813E;}
	.st7{fill:none;stroke:#000000;stroke-width:0.75;stroke-miterlimit:10;}
</style>
<g>
	<path class="st0" d="M124.6,74.5c-30.7-8.7-50.1,1.7-55.5,5.3c-0.7,0.4-1.6,0-1.6-0.7V18.2c0-0.5,0.4-0.8,0.9-0.9
		c5.1-0.6,32.3-3,57.1,11.1c0.3,0.2,0.5,0.5,0.5,0.8v44.5C125.9,74.3,125.3,74.7,124.6,74.5z"/>
	<path class="st0" d="M127.4,74.2c30.7-8.7,50.1,1.7,55.5,5.3c0.7,0.4,1.6,0,1.6-0.7V17.9c0-0.5-0.4-0.8-0.9-0.9
		c-5.1-0.6-32.3-3-57.1,11.1c-0.3,0.2-0.5,0.5-0.5,0.8v44.5C126.1,74,126.7,74.4,127.4,74.2z"/>
	<path class="st0" d="M124.4,73.1c-5.4-2.9-25-11.9-47.9-6.5c-0.6,0.1-1.3-0.3-1.3-0.9v-54c0-0.5,0.4-0.9,1-0.9
		c6.1-0.2,39.4-0.4,49.6,16.7c0.1,0.1,0.1,0.3,0.1,0.4v44.4C125.9,73,125.1,73.4,124.4,73.1z"/>
	<path class="st0" d="M124.3,72.5C120,69.1,107,60.4,83.9,57.9C83.4,57.8,83,57.5,83,57V5.5c0-0.5,0.4-0.9,0.9-0.9
		c5.6-0.3,35-0.8,42,22.8c0,0.1,0,0.2,0,0.3v44.2C125.9,72.6,124.9,73,124.3,72.5z"/>
	<path class="st0" d="M127.6,72.8c5.4-2.9,25-11.9,47.9-6.5c0.6,0.1,1.3-0.3,1.3-0.9v-54c0-0.5-0.4-0.9-1-0.9
		c-6.1-0.2-39.4-0.4-49.6,16.7c-0.1,0.1-0.1,0.3-0.1,0.4V72C126.1,72.7,126.9,73.1,127.6,72.8z"/>
	<path class="st0" d="M127.7,72.2c4.3-3.4,17.3-12.1,40.4-14.6c0.5-0.1,0.9-0.4,0.9-0.9V5.2c0-0.5-0.4-0.9-0.9-0.9
		c-5.6-0.3-35-0.8-42,22.8c0,0.1,0,0.2,0,0.3v44.2C126.1,72.3,127.1,72.7,127.7,72.2z"/>
</g>
<circle class="st1" cx="152.7" cy="18.3" r="10"/>
<circle class="st2" cx="96.8" cy="19.1" r="9.8"/>
<circle class="st3" cx="142.7" cy="32.8" r="9"/>
<circle class="st4" cx="151.6" cy="46.4" r="9"/>
<circle class="st5" cx="107.2" cy="33.6" r="9.8"/>
<circle class="st6" cx="96.8" cy="48.1" r="9"/>
<g>
	<g>
		<path class="st7" d="M91.1,19.1c0,0,18.5-0.7,29.5,13.5"/>
		<path class="st7" d="M91.1,30.7c0,0,18.5-0.7,29.5,13.5"/>
		<path class="st7" d="M92.4,43.9c0,0,18.5-0.7,29.5,13.5"/>
	</g>
	<g>
		<path class="st7" d="M160.9,19.3c0,0-18.5-0.7-29.5,13.5"/>
		<path class="st7" d="M160.9,30.9c0,0-18.5-0.7-29.5,13.5"/>
		<path class="st7" d="M159.6,44.1c0,0-18.5-0.7-29.5,13.5"/>
	</g>
</g>
<g>
	<path d="M1,102.6v-5.5h14.1v5.5h-4v20.2h4v5.4H1v-5.4h3.8v-20.2H1z M14.2,102.6l0-5.5h4c3.3,0,5.8,0.7,7.7,2c1.9,1.4,2.8,3.3,2.8,6
		c0,2.6-0.9,4.5-2.8,5.7c-1.9,1.2-4.7,1.8-8.3,1.8H9.2v-2.6h8.2c1.1,0,2-0.2,2.6-0.5c0.7-0.4,1.2-0.8,1.5-1.4c0.3-0.6,0.5-1.2,0.5-2
		c0-1.2-0.4-2.1-1.3-2.7c-0.9-0.6-2-0.9-3.5-0.9H14.2z M13.7,122.9h4.1c1.6,0,2.9-0.3,3.9-1c1-0.7,1.5-1.6,1.5-2.9
		c0-0.6-0.1-1.1-0.3-1.5c-0.2-0.5-0.5-0.9-1-1.2s-1-0.6-1.7-0.8c-0.7-0.2-1.5-0.3-2.5-0.3H9.2v-3.3h8.5c1.9,0,3.7,0.1,5.2,0.4
		s2.8,0.8,3.8,1.4c1,0.6,1.8,1.4,2.3,2.4c0.5,1,0.8,2.2,0.8,3.7c0,2.7-0.9,4.8-2.7,6.3c-1.8,1.5-4.3,2.2-7.5,2.2h-5.8V122.9z
		 M21.1,111.5h2v1.4h-2V111.5z"/>
	<path d="M45.3,128.8c-2.5,0-4.7-0.5-6.5-1.5c-1.9-1-3.3-2.4-4.3-4.1c-1-1.8-1.5-3.8-1.5-6.1c0-2.3,0.5-4.4,1.5-6.2
		c1-1.8,2.5-3.2,4.3-4.2c1.9-1,4-1.5,6.5-1.5s4.7,0.5,6.5,1.5c1.9,1,3.3,2.4,4.3,4.2c1,1.8,1.5,3.8,1.5,6.2c0,2.3-0.5,4.3-1.5,6.1
		c-1,1.8-2.5,3.1-4.3,4.1C50,128.3,47.8,128.8,45.3,128.8z M45.3,123.2c1.2,0,2.2-0.3,3.1-0.8c0.9-0.5,1.6-1.2,2.1-2.2
		c0.5-0.9,0.8-2,0.8-3.3c0-1.3-0.3-2.4-0.8-3.3c-0.5-0.9-1.2-1.7-2.1-2.2c-0.9-0.5-1.9-0.8-3.1-0.8c-1.2,0-2.2,0.3-3.1,0.8
		c-0.9,0.5-1.6,1.3-2.1,2.2c-0.5,1-0.8,2.1-0.8,3.3c0,1.2,0.3,2.3,0.8,3.3c0.5,0.9,1.2,1.7,2.1,2.2C43.1,123,44.1,123.2,45.3,123.2z
		"/>
	<path d="M73.5,128.8c-2.5,0-4.7-0.5-6.6-1.5s-3.3-2.4-4.3-4.1c-1-1.8-1.5-3.8-1.5-6.1c0-2.3,0.5-4.4,1.5-6.2c1-1.8,2.5-3.2,4.3-4.2
		c1.9-1,4-1.5,6.5-1.5s4.7,0.5,6.5,1.5c1.9,1,3.3,2.4,4.3,4.2s1.5,3.8,1.5,6.2c0,2.3-0.5,4.3-1.5,6.1c-1,1.8-2.5,3.1-4.3,4.1
		C78.1,128.3,75.9,128.8,73.5,128.8z M73.4,123.2c1.2,0,2.2-0.3,3.1-0.8s1.6-1.2,2.1-2.2c0.5-0.9,0.8-2,0.8-3.3
		c0-1.3-0.3-2.4-0.8-3.3c-0.5-0.9-1.2-1.7-2.1-2.2c-0.9-0.5-1.9-0.8-3.1-0.8c-1.2,0-2.2,0.3-3.1,0.8c-0.9,0.5-1.6,1.3-2.1,2.2
		c-0.5,1-0.8,2.1-0.8,3.3c0,1.2,0.3,2.3,0.8,3.3c0.5,0.9,1.2,1.7,2.1,2.2C71.2,123,72.2,123.2,73.4,123.2z"/>
	<path d="M97.7,123.2h2.8v5.1H88.1v-5.1h3.4V101h-3.4v-5.1h9.6V123.2z M95.7,122.6L94,119l11.6-8.2h-4.7v-5.1h14.9v5.1H113
		L95.7,122.6z M106.6,114l7,9.2h2.4v5.1h-12.6v-5.1h2.9l-4.8-6.5L106.6,114z"/>
	<path d="M129.8,102.6v-5.4h12.3l-1.1,7.7h-2v18h3.7v5.4h-12.9v-5.4h3.7v-20.3H129.8z M152.9,128.3l-17.8-31.1h7.1l17.8,31.1H152.9z
		 M151.9,102.6v-5.5h13v5.5h-3.8v25.7h-5.8l-2.1-8.5h2.5v-17.1H151.9z"/>
	<path d="M178.3,128.8c-2.5,0-4.7-0.5-6.5-1.5c-1.9-1-3.3-2.4-4.3-4.1c-1-1.8-1.5-3.8-1.5-6.1c0-2.3,0.5-4.4,1.5-6.2
		c1-1.8,2.5-3.2,4.3-4.2c1.9-1,4-1.5,6.5-1.5c2.5,0,4.7,0.5,6.5,1.5c1.9,1,3.3,2.4,4.3,4.2c1,1.8,1.5,3.8,1.5,6.2
		c0,2.3-0.5,4.3-1.5,6.1c-1,1.8-2.5,3.1-4.3,4.1C182.9,128.3,180.8,128.8,178.3,128.8z M178.3,123.2c1.2,0,2.2-0.3,3.1-0.8
		c0.9-0.5,1.6-1.2,2.1-2.2c0.5-0.9,0.8-2,0.8-3.3c0-1.3-0.3-2.4-0.8-3.3c-0.5-0.9-1.2-1.7-2.1-2.2c-0.9-0.5-1.9-0.8-3.1-0.8
		c-1.2,0-2.2,0.3-3.1,0.8c-0.9,0.5-1.6,1.3-2.1,2.2c-0.5,1-0.8,2.1-0.8,3.3c0,1.2,0.3,2.3,0.8,3.3c0.5,0.9,1.2,1.7,2.1,2.2
		S177.1,123.2,178.3,123.2z"/>
	<path d="M206.4,128.8c-2.5,0-4.7-0.5-6.6-1.5s-3.3-2.4-4.3-4.1c-1-1.8-1.5-3.8-1.5-6.1c0-2.3,0.5-4.4,1.5-6.2
		c1-1.8,2.5-3.2,4.3-4.2c1.9-1,4-1.5,6.5-1.5s4.7,0.5,6.5,1.5c1.9,1,3.3,2.4,4.3,4.2s1.5,3.8,1.5,6.2c0,2.3-0.5,4.3-1.5,6.1
		c-1,1.8-2.5,3.1-4.3,4.1C211.1,128.3,208.9,128.8,206.4,128.8z M206.4,123.2c1.2,0,2.2-0.3,3.1-0.8s1.6-1.2,2.1-2.2
		c0.5-0.9,0.8-2,0.8-3.3c0-1.3-0.3-2.4-0.8-3.3c-0.5-0.9-1.2-1.7-2.1-2.2c-0.9-0.5-1.9-0.8-3.1-0.8c-1.2,0-2.2,0.3-3.1,0.8
		c-0.9,0.5-1.6,1.3-2.1,2.2c-0.5,1-0.8,2.1-0.8,3.3c0,1.2,0.3,2.3,0.8,3.3c0.5,0.9,1.2,1.7,2.1,2.2
		C204.2,123,205.2,123.2,206.4,123.2z"/>
	<path d="M230.7,123.2h2.8v5.1h-12.4v-5.1h3.4V101h-3.4v-5.1h9.6V123.2z M228.6,122.6L227,119l11.6-8.2h-4.7v-5.1h14.9v5.1H246
		L228.6,122.6z M239.6,114l7,9.2h2.4v5.1h-12.6v-5.1h2.9l-4.8-6.5L239.6,114z"/>
</g>
</svg>
