<?xml version="1.0" encoding="utf-8"?>
<!-- Generator: Adobe Illustrator 25.2.1, SVG Export Plug-In . SVG Version: 6.00 Build 0)  -->
<svg version="1.1" id="Layer_1" xmlns="http://www.w3.org/2000/svg" xmlns:xlink="http://www.w3.org/1999/xlink" x="0px" y="0px"
	 viewBox="0 0 252 144" style="enable-background:new 0 0 252 144;" xml:space="preserve">
<style type="text/css">
	.st0{font-family:'LuckiestGuy-Regular';}
	.st1{font-size:48px;}
	.st2{fill:#FFFFFF;stroke:#020202;stroke-width:0.5;stroke-miterlimit:10;}
	.st3{fill:none;stroke:#020202;stroke-width:0.5;stroke-miterlimit:10;}
</style>
<text transform="matrix(1 0 0 1 2.288818e-04 129.1326)" class="st0 st1">Book Nook</text>
<g>
	<path class="st2" d="M124.6,74.5c-30.7-8.7-50.1,1.7-55.5,5.3c-0.7,0.4-1.6,0-1.6-0.7V18.2c0-0.5,0.4-0.8,0.9-0.9
		c5.1-0.6,32.3-3,57.1,11.1c0.3,0.2,0.5,0.5,0.5,0.8v44.5C125.9,74.3,125.3,74.7,124.6,74.5z"/>
	<path class="st2" d="M127.4,74.2c30.7-8.7,50.1,1.7,55.5,5.3c0.7,0.4,1.6,0,1.6-0.7V17.9c0-0.5-0.4-0.8-0.9-0.9
		c-5.1-0.6-32.3-3-57.1,11.1c-0.3,0.2-0.5,0.5-0.5,0.8v44.5C126.1,74,126.7,74.4,127.4,74.2z"/>
	<path class="st2" d="M124.4,73.1c-5.4-2.9-25-11.9-47.9-6.5c-0.6,0.1-1.3-0.3-1.3-0.9v-54c0-0.5,0.4-0.9,1-0.9
		c6.1-0.2,39.4-0.4,49.6,16.7c0.1,0.1,0.1,0.3,0.1,0.4v44.4C125.9,73,125.1,73.4,124.4,73.1z"/>
	<path class="st2" d="M124.3,72.5C120,69.1,107,60.4,83.9,57.9C83.4,57.8,83,57.5,83,57V5.5c0-0.5,0.4-0.9,0.9-0.9
		c5.6-0.3,35-0.8,42,22.8c0,0.1,0,0.2,0,0.3v44.2C125.9,72.6,124.9,73,124.3,72.5z"/>
	<path class="st2" d="M127.6,72.8c5.4-2.9,25-11.9,47.9-6.5c0.6,0.1,1.3-0.3,1.3-0.9v-54c0-0.5-0.4-0.9-1-0.9
		c-6.1-0.2-39.4-0.4-49.6,16.7c-0.1,0.1-0.1,0.3-0.1,0.4V72C126.1,72.7,126.9,73.1,127.6,72.8z"/>
	<path class="st2" d="M127.7,72.2c4.3-3.4,17.3-12.1,40.4-14.6c0.5-0.1,0.9-0.4,0.9-0.9V5.2c0-0.5-0.4-0.9-0.9-0.9
		c-5.6-0.3-35-0.8-42,22.8c0,0.1,0,0.2,0,0.3v44.2C126.1,72.3,127.1,72.7,127.7,72.2z"/>
</g>
<g>
	<g>
		<path class="st2" d="M91.1,19.1c0,0,18.5-0.7,29.5,13.5"/>
		<path class="st3" d="M91.1,30.7c0,0,18.5-0.7,29.5,13.5"/>
		<path class="st3" d="M92.4,43.9c0,0,18.5-0.7,29.5,13.5"/>
	</g>
	<g>
		<path class="st2" d="M160.9,19.3c0,0-18.5-0.7-29.5,13.5"/>
		<path class="st3" d="M160.9,30.9c0,0-18.5-0.7-29.5,13.5"/>
		<path class="st3" d="M159.6,44.1c0,0-18.5-0.7-29.5,13.5"/>
	</g>
</g>
</svg>
