<?xml version="1.0" encoding="utf-8"?>
<!-- Generator: Adobe Illustrator 25.2.3, SVG Export Plug-In . SVG Version: 6.00 Build 0)  -->
<svg version="1.1" id="Layer_1" xmlns="http://www.w3.org/2000/svg" xmlns:xlink="http://www.w3.org/1999/xlink" x="0px" y="0px"
	 viewBox="0 0 252 144" style="enable-background:new 0 0 252 144;" xml:space="preserve">
<style type="text/css">
	.st0{fill:none;stroke:#5E3F1C;stroke-width:6;stroke-linecap:round;stroke-miterlimit:10;}
	.st1{fill:none;stroke:#5E3F1C;stroke-width:2;stroke-linecap:round;stroke-miterlimit:10;}
	.st2{fill:none;stroke:#B26B0D;stroke-width:6;stroke-linecap:round;stroke-miterlimit:10;}
	.st3{fill:none;stroke:#B26B0D;stroke-width:2;stroke-linecap:round;stroke-miterlimit:10;}
</style>
<g>
	<g>
		<path class="st0" d="M116.3,19.8L51.8,40.2c0,0-13.6,26.1,12.5,39.6l64.6-20.3"/>
		<g>
			<line class="st1" x1="115.3" y1="28.9" x2="56.7" y2="47.3"/>
			<line class="st1" x1="113.7" y1="35.6" x2="58.5" y2="53"/>
			<line class="st1" x1="114.6" y1="42.2" x2="60.4" y2="59.2"/>
			<line class="st1" x1="117.5" y1="47.7" x2="62.3" y2="65"/>
			<line class="st1" x1="122.8" y1="52.7" x2="64.2" y2="71.1"/>
		</g>
	</g>
	<g>
		<path class="st2" d="M200.6,47.9l-56.9-36.7c0,0-28.7,6.2-22.5,34.9l56.9,36.7"/>
		<g>
			<line class="st3" x1="193" y1="52.8" x2="141.4" y2="19.5"/>
			<line class="st3" x1="186.8" y1="55.9" x2="138.2" y2="24.6"/>
			<line class="st3" x1="182.3" y1="60.8" x2="134.6" y2="30"/>
			<line class="st3" x1="179.9" y1="66.5" x2="131.3" y2="35.2"/>
			<line class="st3" x1="179.4" y1="73.8" x2="127.9" y2="40.5"/>
		</g>
	</g>
	<g>
		<path d="M31.2,116.9c0,1.4-0.3,2.8-0.8,4.1c-0.6,1.3-1.3,2.4-2.3,3.3c-1,1-2.1,1.7-3.3,2.3c-1.3,0.6-2.6,0.8-4.1,0.8H3.2v-35h17.5
			c1.4,0,2.8,0.3,4.1,0.8c1.3,0.6,2.4,1.3,3.3,2.3c1,1,1.7,2.1,2.3,3.3c0.6,1.3,0.8,2.6,0.8,4.1c0,0.7-0.1,1.3-0.3,2
			c-0.2,0.7-0.4,1.3-0.8,2c-0.3,0.6-0.7,1.2-1.2,1.7s-1,1-1.5,1.3c0.6,0.3,1.1,0.7,1.5,1.3c0.5,0.5,0.8,1.1,1.2,1.7
			c0.3,0.6,0.6,1.3,0.7,2C31.2,115.6,31.2,116.3,31.2,116.9z M10.3,106.4h10.5c0.5,0,0.9-0.1,1.4-0.3c0.4-0.2,0.8-0.4,1.1-0.7
			c0.3-0.3,0.6-0.7,0.7-1.1c0.2-0.4,0.3-0.9,0.3-1.4s-0.1-0.9-0.3-1.4c-0.2-0.4-0.4-0.8-0.7-1.1c-0.3-0.3-0.7-0.6-1.1-0.7
			c-0.4-0.2-0.9-0.3-1.4-0.3H10.3V106.4z M10.3,120.4h10.5c0.5,0,0.9-0.1,1.4-0.3c0.4-0.2,0.8-0.4,1.1-0.7c0.3-0.3,0.6-0.7,0.7-1.1
			c0.2-0.4,0.3-0.9,0.3-1.4s-0.1-0.9-0.3-1.4c-0.2-0.4-0.4-0.8-0.7-1.1c-0.3-0.3-0.7-0.6-1.1-0.7c-0.4-0.2-0.9-0.3-1.4-0.3H10.3
			V120.4z"/>
		<path d="M61.1,114.1c0,2-0.4,3.8-1.1,5.5c-0.7,1.7-1.7,3.1-2.9,4.4c-1.2,1.2-2.6,2.2-4.2,2.9c-1.6,0.7-3.4,1.1-5.2,1.1
			s-3.6-0.4-5.2-1.1c-1.6-0.7-3-1.7-4.2-2.9c-1.2-1.2-2.2-2.7-2.9-4.4c-0.7-1.7-1-3.5-1-5.5s0.3-3.8,1-5.5s1.7-3.2,2.9-4.4
			c1.2-1.2,2.6-2.2,4.2-2.9c1.6-0.7,3.3-1,5.2-1s3.6,0.3,5.2,1c1.6,0.7,3,1.6,4.2,2.8c1.2,1.2,2.2,2.7,2.9,4.4
			C60.8,110.2,61.1,112,61.1,114.1z M54.4,114.1c0-1.1-0.2-2-0.5-2.9s-0.8-1.6-1.4-2.2c-0.6-0.6-1.3-1.1-2.1-1.4s-1.7-0.5-2.6-0.5
			c-0.9,0-1.8,0.2-2.6,0.5s-1.5,0.8-2.1,1.4s-1.1,1.4-1.4,2.2c-0.3,0.9-0.5,1.8-0.5,2.9c0,1,0.2,1.9,0.5,2.8s0.8,1.6,1.4,2.2
			c0.6,0.6,1.3,1.1,2.1,1.5s1.7,0.5,2.6,0.5c0.9,0,1.8-0.2,2.6-0.5s1.5-0.8,2.1-1.4s1.1-1.4,1.4-2.2
			C54.2,116.2,54.4,115.2,54.4,114.1z"/>
		<path d="M90.1,114.1c0,2-0.4,3.8-1,5.5c-0.7,1.7-1.7,3.1-2.9,4.4c-1.2,1.2-2.6,2.2-4.2,2.9c-1.6,0.7-3.4,1.1-5.2,1.1
			c-1.8,0-3.6-0.4-5.2-1.1s-3-1.7-4.2-2.9c-1.2-1.2-2.2-2.7-2.9-4.4c-0.7-1.7-1-3.5-1-5.5s0.3-3.8,1-5.5c0.7-1.7,1.7-3.2,2.9-4.4
			c1.2-1.2,2.6-2.2,4.2-2.9c1.6-0.7,3.3-1,5.2-1c1.9,0,3.6,0.3,5.2,1s3,1.6,4.2,2.8c1.2,1.2,2.2,2.7,2.9,4.4
			C89.7,110.2,90.1,112,90.1,114.1z M83.3,114.1c0-1.1-0.2-2-0.5-2.9s-0.8-1.6-1.4-2.2s-1.3-1.1-2.1-1.4c-0.8-0.3-1.7-0.5-2.6-0.5
			s-1.8,0.2-2.6,0.5c-0.8,0.3-1.5,0.8-2.1,1.4s-1.1,1.4-1.4,2.2c-0.3,0.9-0.5,1.8-0.5,2.9c0,1,0.2,1.9,0.5,2.8s0.8,1.6,1.4,2.2
			s1.3,1.1,2.1,1.5c0.8,0.4,1.7,0.5,2.6,0.5s1.8-0.2,2.6-0.5c0.8-0.3,1.5-0.8,2.1-1.4s1.1-1.4,1.4-2.2
			C83.2,116.2,83.3,115.2,83.3,114.1z"/>
		<path d="M100.5,127.4h-6.7V90.9h6.7v23l9.9-12.6h7.7l-8.7,10.9l8.7,15.2h-7.7l-5.3-9.5l-4.6,6.2V127.4z"/>
		<path d="M163.4,127.4h-7.5l-13.5-23v23h-7v-35h7.5l13.5,23.1V92.4h7V127.4z"/>
		<path d="M194.1,114.1c0,2-0.3,3.8-1,5.5s-1.7,3.1-2.9,4.4c-1.2,1.2-2.6,2.2-4.2,2.9c-1.6,0.7-3.4,1.1-5.2,1.1s-3.6-0.4-5.2-1.1
			c-1.6-0.7-3-1.7-4.2-2.9c-1.2-1.2-2.2-2.7-2.9-4.4c-0.7-1.7-1.1-3.5-1.1-5.5s0.3-3.8,1.1-5.5c0.7-1.7,1.7-3.2,2.9-4.4
			c1.2-1.2,2.6-2.2,4.2-2.9c1.6-0.7,3.3-1,5.2-1s3.6,0.3,5.2,1c1.6,0.7,3,1.6,4.2,2.8c1.2,1.2,2.2,2.7,2.9,4.4
			C193.7,110.2,194.1,112,194.1,114.1z M187.4,114.1c0-1.1-0.2-2-0.5-2.9s-0.8-1.6-1.4-2.2c-0.6-0.6-1.3-1.1-2.1-1.4
			s-1.7-0.5-2.6-0.5c-0.9,0-1.8,0.2-2.6,0.5s-1.5,0.8-2.1,1.4s-1.1,1.4-1.4,2.2c-0.3,0.9-0.5,1.8-0.5,2.9c0,1,0.2,1.9,0.5,2.8
			s0.8,1.6,1.4,2.2s1.3,1.1,2.1,1.5s1.7,0.5,2.6,0.5c0.9,0,1.8-0.2,2.6-0.5s1.5-0.8,2.1-1.4s1.1-1.4,1.4-2.2
			S187.4,115.2,187.4,114.1z"/>
		<path d="M223,114.1c0,2-0.3,3.8-1,5.5s-1.7,3.1-2.9,4.4c-1.2,1.2-2.6,2.2-4.2,2.9c-1.6,0.7-3.4,1.1-5.2,1.1s-3.6-0.4-5.2-1.1
			c-1.6-0.7-3-1.7-4.2-2.9c-1.2-1.2-2.2-2.7-2.9-4.4c-0.7-1.7-1.1-3.5-1.1-5.5s0.3-3.8,1.1-5.5c0.7-1.7,1.7-3.2,2.9-4.4
			c1.2-1.2,2.6-2.2,4.2-2.9c1.6-0.7,3.3-1,5.2-1s3.6,0.3,5.2,1c1.6,0.7,3,1.6,4.2,2.8c1.2,1.2,2.2,2.7,2.9,4.4
			C222.7,110.2,223,112,223,114.1z M216.3,114.1c0-1.1-0.2-2-0.5-2.9s-0.8-1.6-1.4-2.2c-0.6-0.6-1.3-1.1-2.1-1.4s-1.7-0.5-2.6-0.5
			c-0.9,0-1.8,0.2-2.6,0.5s-1.5,0.8-2.1,1.4s-1.1,1.4-1.4,2.2c-0.3,0.9-0.5,1.8-0.5,2.9c0,1,0.2,1.9,0.5,2.8s0.8,1.6,1.4,2.2
			s1.3,1.1,2.1,1.5s1.7,0.5,2.6,0.5c0.9,0,1.8-0.2,2.6-0.5s1.5-0.8,2.1-1.4s1.1-1.4,1.4-2.2S216.3,115.2,216.3,114.1z"/>
		<path d="M233.4,127.4h-6.7V90.9h6.7v23l9.9-12.6h7.7l-8.7,10.9l8.7,15.2h-7.7l-5.3-9.5l-4.6,6.2L233.4,127.4L233.4,127.4z"/>
	</g>
</g>
</svg>
