<?xml version="1.0" encoding="utf-8"?>
<!-- Generator: Adobe Illustrator 25.2.1, SVG Export Plug-In . SVG Version: 6.00 Build 0)  -->
<svg version="1.1" id="Layer_1" xmlns="http://www.w3.org/2000/svg" xmlns:xlink="http://www.w3.org/1999/xlink" x="0px" y="0px"
	 viewBox="0 0 252 144" style="enable-background:new 0 0 252 144;" xml:space="preserve">
<style type="text/css">
	.st0{enable-background:new    ;}
	.st1{fill:#FFFFFF;stroke:#000000;stroke-miterlimit:10;}
	.st2{fill:#DEAEF4;}
	.st3{fill:#FFCE45;}
	.st4{fill:#FF9F48;}
	.st5{fill:#64E2FF;}
	.st6{fill:#FC92BB;}
	.st7{fill:#F9813E;}
	.st8{fill:none;stroke:#000000;stroke-width:0.75;stroke-miterlimit:10;}
</style>
<g class="st0">
	<path d="M28.5,120.8c0,1.3-0.2,2.4-0.7,3.4s-1.1,1.7-1.9,2.4s-1.7,1.2-2.8,1.6s-2.1,0.7-3.2,1s-2.3,0.4-3.4,0.5s-2.2,0.1-3.2,0.1
		c-1,0-2,0-3-0.1s-2.1-0.2-3.1-0.4s-2-0.4-3-0.7s-1.9-0.7-2.8-1.1l0-30.2c0.9-0.4,1.8-0.7,2.8-1s2-0.5,3-0.7s2-0.3,3.1-0.4
		s2-0.2,3-0.2c1.1,0,2.2,0.1,3.4,0.2s2.2,0.4,3.3,0.7s2,0.8,2.9,1.3s1.7,1.2,2.4,1.9s1.2,1.7,1.6,2.7s0.6,2.2,0.6,3.5
		c0,0.9-0.1,1.7-0.4,2.5s-0.6,1.5-1.1,2.1s-1,1.1-1.7,1.6s-1.4,0.7-2.3,0.9c1,0.3,1.9,0.7,2.8,1.2s1.5,1.1,2.1,1.9s1,1.6,1.4,2.5
		S28.5,119.7,28.5,120.8z M13.2,115.1c-0.5,0-0.9,0-1.3,0.1l-0.1,5.3c0.2,0,0.5,0.1,0.7,0.1s0.4,0.1,0.7,0.1c0.3,0,0.7,0,1.1-0.1
		s0.8-0.2,1.1-0.4s0.6-0.5,0.9-0.9s0.3-0.8,0.3-1.4s-0.1-1.1-0.3-1.5s-0.5-0.7-0.8-0.9s-0.7-0.4-1.1-0.4S13.6,115.1,13.2,115.1z
		 M16.6,107.4c0-0.5-0.1-0.8-0.3-1.2s-0.4-0.6-0.7-0.8s-0.6-0.4-0.9-0.4s-0.6-0.1-0.9-0.1c-0.3,0-0.6,0-0.9,0.1s-0.6,0.2-0.9,0.3
		l-0.1,5.2c0.4,0,0.8,0,1.3-0.1s1-0.2,1.5-0.4s0.9-0.5,1.3-0.9S16.6,108.1,16.6,107.4z"/>
	<path d="M58.1,111.2c0,1.4-0.2,2.8-0.5,4.1s-0.8,2.6-1.4,3.7s-1.4,2.2-2.2,3.2s-1.9,1.8-3,2.5s-2.3,1.2-3.6,1.6s-2.7,0.6-4.1,0.6
		c-1.4,0-2.7-0.2-4-0.5s-2.5-0.9-3.6-1.5s-2.1-1.4-3-2.3s-1.7-1.9-2.3-3s-1.1-2.3-1.5-3.6s-0.5-2.6-0.5-4c0-1.4,0.2-2.7,0.5-4
		s0.8-2.5,1.4-3.7s1.4-2.2,2.2-3.2s1.9-1.8,2.9-2.5s2.3-1.2,3.5-1.6s2.6-0.6,4-0.6c2.3,0,4.3,0.4,6.2,1.1s3.5,1.7,4.8,3
		s2.3,2.9,3.1,4.7S58.1,108.9,58.1,111.2z M47.7,111.8c0-0.7-0.1-1.3-0.3-2s-0.5-1.2-0.9-1.7s-0.8-0.9-1.4-1.2s-1.2-0.5-1.9-0.5
		c-0.7,0-1.4,0.1-2,0.4s-1.1,0.6-1.5,1.1s-0.7,1-0.9,1.6s-0.3,1.3-0.3,2c0,0.7,0.1,1.3,0.3,2s0.5,1.2,0.8,1.8s0.8,1,1.4,1.3
		s1.2,0.5,1.9,0.5s1.4-0.1,2-0.4s1.1-0.7,1.5-1.2s0.7-1.1,0.9-1.7S47.7,112.5,47.7,111.8z"/>
	<path d="M88.8,111.2c0,1.4-0.2,2.8-0.5,4.1s-0.8,2.6-1.4,3.7s-1.4,2.2-2.2,3.2s-1.9,1.8-3,2.5s-2.3,1.2-3.6,1.6s-2.7,0.6-4.1,0.6
		c-1.4,0-2.7-0.2-4-0.5s-2.5-0.9-3.6-1.5s-2.1-1.4-3-2.3s-1.7-1.9-2.3-3s-1.1-2.3-1.5-3.6s-0.5-2.6-0.5-4c0-1.4,0.2-2.7,0.5-4
		s0.8-2.5,1.4-3.7s1.4-2.2,2.2-3.2s1.9-1.8,2.9-2.5s2.3-1.2,3.5-1.6s2.6-0.6,4-0.6c2.3,0,4.3,0.4,6.2,1.1s3.5,1.7,4.8,3
		s2.3,2.9,3.1,4.7S88.8,108.9,88.8,111.2z M78.4,111.8c0-0.7-0.1-1.3-0.3-2s-0.5-1.2-0.9-1.7s-0.8-0.9-1.4-1.2s-1.2-0.5-1.9-0.5
		c-0.7,0-1.4,0.1-2,0.4s-1.1,0.6-1.5,1.1s-0.7,1-0.9,1.6s-0.3,1.3-0.3,2c0,0.7,0.1,1.3,0.3,2s0.5,1.2,0.8,1.8s0.8,1,1.4,1.3
		s1.2,0.5,1.9,0.5s1.4-0.1,2-0.4s1.1-0.7,1.5-1.2s0.7-1.1,0.9-1.7S78.4,112.5,78.4,111.8z"/>
	<path d="M119,98.9l-10.4,12.3l9.5,16.1l-10.9,1.9l-7.1-9.7l-0.4,9.2l-9.8,0.4l0.8-33.6l10.9,0.6l-0.8,9.7l6.8-9.8L119,98.9z"/>
	<path d="M160.3,95.5l-1.7,31.8l-12.3,1.1l-6.6-17l-1,17.3h-10.5l0.8-33.2l11.7-0.6l8.1,16.9l0.4-15.9L160.3,95.5z"/>
	<path d="M190.9,111.2c0,1.4-0.2,2.8-0.5,4.1s-0.8,2.6-1.4,3.7s-1.4,2.2-2.2,3.2s-1.9,1.8-3,2.5s-2.3,1.2-3.6,1.6s-2.7,0.6-4.1,0.6
		c-1.4,0-2.7-0.2-4-0.5s-2.5-0.9-3.6-1.5s-2.1-1.4-3-2.3s-1.7-1.9-2.3-3s-1.1-2.3-1.5-3.6s-0.5-2.6-0.5-4c0-1.4,0.2-2.7,0.5-4
		s0.8-2.5,1.4-3.7s1.4-2.2,2.2-3.2s1.9-1.8,2.9-2.5s2.3-1.2,3.5-1.6s2.6-0.6,4-0.6c2.3,0,4.3,0.4,6.2,1.1s3.5,1.7,4.8,3
		s2.3,2.9,3.1,4.7S190.9,108.9,190.9,111.2z M180.5,111.8c0-0.7-0.1-1.3-0.3-2s-0.5-1.2-0.9-1.7s-0.8-0.9-1.4-1.2s-1.2-0.5-1.9-0.5
		c-0.7,0-1.4,0.1-2,0.4s-1.1,0.6-1.5,1.1s-0.7,1-0.9,1.6s-0.3,1.3-0.3,2c0,0.7,0.1,1.3,0.3,2s0.5,1.2,0.8,1.8s0.8,1,1.4,1.3
		s1.2,0.5,1.9,0.5s1.4-0.1,2-0.4s1.1-0.7,1.5-1.2s0.7-1.1,0.9-1.7S180.5,112.5,180.5,111.8z"/>
	<path d="M221.6,111.2c0,1.4-0.2,2.8-0.5,4.1s-0.8,2.6-1.4,3.7s-1.4,2.2-2.2,3.2s-1.9,1.8-3,2.5s-2.3,1.2-3.6,1.6s-2.7,0.6-4.1,0.6
		c-1.4,0-2.7-0.2-4-0.5s-2.5-0.9-3.6-1.5s-2.1-1.4-3-2.3s-1.7-1.9-2.3-3s-1.1-2.3-1.5-3.6s-0.5-2.6-0.5-4c0-1.4,0.2-2.7,0.5-4
		s0.8-2.5,1.4-3.7s1.4-2.2,2.2-3.2s1.9-1.8,2.9-2.5s2.3-1.2,3.5-1.6s2.6-0.6,4-0.6c2.3,0,4.3,0.4,6.2,1.1s3.5,1.7,4.8,3
		s2.3,2.9,3.1,4.7S221.6,108.9,221.6,111.2z M211.1,111.8c0-0.7-0.1-1.3-0.3-2s-0.5-1.2-0.9-1.7s-0.8-0.9-1.4-1.2s-1.2-0.5-1.9-0.5
		c-0.7,0-1.4,0.1-2,0.4s-1.1,0.6-1.5,1.1s-0.7,1-0.9,1.6s-0.3,1.3-0.3,2c0,0.7,0.1,1.3,0.3,2s0.5,1.2,0.8,1.8s0.8,1,1.4,1.3
		s1.2,0.5,1.9,0.5s1.4-0.1,2-0.4s1.1-0.7,1.5-1.2s0.7-1.1,0.9-1.7S211.1,112.5,211.1,111.8z"/>
	<path d="M251.8,98.9l-10.4,12.3l9.5,16.1l-10.9,1.9l-7.1-9.7l-0.4,9.2l-9.8,0.4l0.8-33.6l10.9,0.6l-0.8,9.7l6.8-9.8L251.8,98.9z"/>
</g>
<g>
	<path class="st1" d="M124.6,74.5c-30.7-8.7-50.1,1.7-55.5,5.3c-0.7,0.4-1.6,0-1.6-0.7V18.2c0-0.5,0.4-0.8,0.9-0.9
		c5.1-0.6,32.3-3,57.1,11.1c0.3,0.2,0.5,0.5,0.5,0.8v44.5C125.9,74.3,125.3,74.7,124.6,74.5z"/>
	<path class="st1" d="M127.4,74.2c30.7-8.7,50.1,1.7,55.5,5.3c0.7,0.4,1.6,0,1.6-0.7V17.9c0-0.5-0.4-0.8-0.9-0.9
		c-5.1-0.6-32.3-3-57.1,11.1c-0.3,0.2-0.5,0.5-0.5,0.8v44.5C126.1,74,126.7,74.4,127.4,74.2z"/>
	<path class="st1" d="M124.4,73.1c-5.4-2.9-25-11.9-47.9-6.5c-0.6,0.1-1.3-0.3-1.3-0.9v-54c0-0.5,0.4-0.9,1-0.9
		c6.1-0.2,39.4-0.4,49.6,16.7c0.1,0.1,0.1,0.3,0.1,0.4v44.4C125.9,73,125.1,73.4,124.4,73.1z"/>
	<path class="st1" d="M124.3,72.5C120,69.1,107,60.4,83.9,57.9C83.4,57.8,83,57.5,83,57V5.5c0-0.5,0.4-0.9,0.9-0.9
		c5.6-0.3,35-0.8,42,22.8c0,0.1,0,0.2,0,0.3v44.2C125.9,72.6,124.9,73,124.3,72.5z"/>
	<path class="st1" d="M127.6,72.8c5.4-2.9,25-11.9,47.9-6.5c0.6,0.1,1.3-0.3,1.3-0.9v-54c0-0.5-0.4-0.9-1-0.9
		c-6.1-0.2-39.4-0.4-49.6,16.7c-0.1,0.1-0.1,0.3-0.1,0.4V72C126.1,72.7,126.9,73.1,127.6,72.8z"/>
	<path class="st1" d="M127.7,72.2c4.3-3.4,17.3-12.1,40.4-14.6c0.5-0.1,0.9-0.4,0.9-0.9V5.2c0-0.5-0.4-0.9-0.9-0.9
		c-5.6-0.3-35-0.8-42,22.8c0,0.1,0,0.2,0,0.3v44.2C126.1,72.3,127.1,72.7,127.7,72.2z"/>
</g>
<circle class="st2" cx="152.7" cy="18.3" r="10"/>
<circle class="st3" cx="96.8" cy="19.1" r="9.8"/>
<circle class="st4" cx="142.7" cy="32.8" r="9"/>
<circle class="st5" cx="151.6" cy="46.4" r="9"/>
<circle class="st6" cx="107.2" cy="33.6" r="9.8"/>
<circle class="st7" cx="96.8" cy="48.1" r="9"/>
<g>
	<g>
		<path class="st8" d="M91.1,19.1c0,0,18.5-0.7,29.5,13.5"/>
		<path class="st8" d="M91.1,30.7c0,0,18.5-0.7,29.5,13.5"/>
		<path class="st8" d="M92.4,43.9c0,0,18.5-0.7,29.5,13.5"/>
	</g>
	<g>
		<path class="st8" d="M160.9,19.3c0,0-18.5-0.7-29.5,13.5"/>
		<path class="st8" d="M160.9,30.9c0,0-18.5-0.7-29.5,13.5"/>
		<path class="st8" d="M159.6,44.1c0,0-18.5-0.7-29.5,13.5"/>
	</g>
</g>
</svg>
