<?xml version="1.0" encoding="utf-8"?>
<!-- Generator: Adobe Illustrator 25.2.1, SVG Export Plug-In . SVG Version: 6.00 Build 0)  -->
<svg version="1.1" id="Layer_1" xmlns="http://www.w3.org/2000/svg" xmlns:xlink="http://www.w3.org/1999/xlink" x="0px" y="0px"
	 viewBox="0 0 252 144" style="enable-background:new 0 0 252 144;" xml:space="preserve">
<style type="text/css">
	.st0{fill:#FFF4DE;}
	.st1{font-family:'FredokaOne-Regular';}
	.st2{font-size:48px;}
	.st3{fill:#FFFBF3;stroke:#FF7C48;stroke-width:4;stroke-miterlimit:10;}
	.st4{fill:#FFFBF3;stroke:#FFB05A;stroke-width:4;stroke-miterlimit:10;}
	.st5{fill:#FFFBF3;stroke:#FFD766;stroke-width:4;stroke-miterlimit:10;}
</style>
<g>
	<rect class="st0" width="252" height="144"/>
</g>
<text transform="matrix(1 0 0 1 3.8181 129.1326)" class="st1 st2">Book Nook</text>
<g>
	<g>
		<path class="st3" d="M123.4,74.5c-30.7-8.7-50.1,1.7-55.5,5.3c-0.7,0.4-1.6,0-1.6-0.7V18.2c0-0.5,0.4-0.8,0.9-0.9
			c5.1-0.6,32.3-3,57.1,11.1c0.3,0.2,0.5,0.5,0.5,0.8v44.5C124.7,74.3,124.1,74.7,123.4,74.5z"/>
		<path class="st3" d="M128.6,74.5c30.7-8.7,50.1,1.7,55.5,5.3c0.7,0.4,1.6,0,1.6-0.7V18.2c0-0.5-0.4-0.8-0.9-0.9
			c-5.1-0.6-32.3-3-57.1,11.1c-0.3,0.2-0.5,0.5-0.5,0.8v44.5C127.3,74.3,127.9,74.7,128.6,74.5z"/>
		<path class="st4" d="M123.2,73.1c-5.4-2.9-25-11.9-47.9-6.5c-0.6,0.1-1.3-0.3-1.3-0.9v-54c0-0.5,0.4-0.9,1-0.9
			c6.1-0.2,39.4-0.4,49.6,16.7c0.1,0.1,0.1,0.3,0.1,0.4v44.4C124.7,73,123.9,73.4,123.2,73.1z"/>
		<path class="st5" d="M123.1,72.5c-4.3-3.4-17.3-12.1-40.4-14.6c-0.5-0.1-0.9-0.4-0.9-0.9V5.5c0-0.5,0.4-0.9,0.9-0.9
			c5.6-0.3,35-0.8,42,22.8c0,0.1,0,0.2,0,0.3v44.2C124.7,72.6,123.7,73,123.1,72.5z"/>
		<path class="st4" d="M128.8,73.1c5.4-2.9,25-11.9,47.9-6.5c0.6,0.1,1.3-0.3,1.3-0.9v-54c0-0.5-0.4-0.9-1-0.9
			c-6.1-0.2-39.4-0.4-49.6,16.7c-0.1,0.1-0.1,0.3-0.1,0.4v44.4C127.3,73,128.1,73.4,128.8,73.1z"/>
		<path class="st5" d="M128.9,72.5c4.3-3.4,17.3-12.1,40.4-14.6c0.5-0.1,0.9-0.4,0.9-0.9V5.5c0-0.5-0.4-0.9-0.9-0.9
			c-5.6-0.3-35-0.8-42,22.8c0,0.1,0,0.2,0,0.3v44.2C127.3,72.6,128.3,73,128.9,72.5z"/>
	</g>
</g>
</svg>
