<?xml version="1.0" encoding="utf-8"?>
<!-- Generator: Adobe Illustrator 25.2.3, SVG Export Plug-In . SVG Version: 6.00 Build 0)  -->
<svg version="1.1" id="Layer_1" xmlns="http://www.w3.org/2000/svg" xmlns:xlink="http://www.w3.org/1999/xlink" x="0px" y="0px"
	 viewBox="0 0 60 59" style="enable-background:new 0 0 60 59;" xml:space="preserve">
<style type="text/css">
	.st0{fill:#FF9419;}
	.st1{fill:none;stroke:#FF9419;}
	.st2{fill:none;stroke:#FFFFFF;stroke-width:6.0027;stroke-linecap:round;stroke-miterlimit:4.0018;}
</style>
<g id="Group_25" transform="translate(-511 -94)">
	<g id="Rectangle_13" transform="translate(511 94)">
		<path class="st0" d="M16,0h28c8.8,0,16,7.2,16,16v27c0,8.8-7.2,16-16,16H16C7.2,59,0,51.8,0,43V16C0,7.2,7.2,0,16,0z"/>
		<path class="st1" d="M16,0.5h28c8.6,0,15.5,6.9,15.5,15.5v27c0,8.6-6.9,15.5-15.5,15.5H16C7.4,58.5,0.5,51.6,0.5,43V16
			C0.5,7.4,7.4,0.5,16,0.5z"/>
	</g>
	<g id="checkmark" transform="matrix(0.998, 0.07, -0.07, 0.998, 527.708, 113.009)">
		<line id="Line_1" class="st2" x1="0" y1="11" x2="11.1" y2="18.8"/>
		<g id="Group_21" transform="translate(11.092 0)">
			<line id="Line_2" class="st2" x1="16.1" y1="0" x2="0" y2="18.8"/>
		</g>
	</g>
</g>
</svg>
