<svg xmlns="http://www.w3.org/2000/svg" width="260.943" height="41.881" viewBox="0 0 260.943 41.881">
  <g id="Group_45" data-name="Group 45" transform="translate(-39.557 -722.71)">
    <g id="Group_35" data-name="Group 35" transform="translate(-363.443 -15.29)">
      <rect id="Rectangle_31" data-name="Rectangle 31" width="125" height="41.881" rx="20.94" transform="translate(403 738)" fill="#9f6421"/>
      <path id="Path_46" data-name="Path 46" d="M2.22,0V-21H15v2.07H4.74v7.38h8.73v2.04H4.74V0Zm17.4-18.18a1.688,1.688,0,0,1-1.245-.495,1.688,1.688,0,0,1-.495-1.245,1.6,1.6,0,0,1,.495-1.2,1.716,1.716,0,0,1,1.245-.48,1.73,1.73,0,0,1,1.23.48,1.58,1.58,0,0,1,.51,1.2,1.662,1.662,0,0,1-.51,1.245A1.7,1.7,0,0,1,19.62-18.18ZM18.36,0V-14.88h2.52V0ZM32.1.36a7.532,7.532,0,0,1-3.825-.975,7.01,7.01,0,0,1-2.67-2.73,8.3,8.3,0,0,1-.975-4.1,8.3,8.3,0,0,1,.975-4.095,7.01,7.01,0,0,1,2.67-2.73A7.532,7.532,0,0,1,32.1-15.24a7.146,7.146,0,0,1,4.455,1.38,6.014,6.014,0,0,1,2.3,3.69H36.27a3.307,3.307,0,0,0-1.47-2.145,4.875,4.875,0,0,0-2.73-.765,4.726,4.726,0,0,0-2.37.63,4.7,4.7,0,0,0-1.8,1.89,6.427,6.427,0,0,0-.69,3.12,6.427,6.427,0,0,0,.69,3.12,4.807,4.807,0,0,0,1.8,1.9,4.641,4.641,0,0,0,2.37.645,4.875,4.875,0,0,0,2.73-.765A3.32,3.32,0,0,0,36.27-4.71h2.58a5.957,5.957,0,0,1-2.28,3.66A7.105,7.105,0,0,1,32.1.36ZM47.82,0a4.814,4.814,0,0,1-3.21-.99q-1.17-.99-1.17-3.57v-8.19H40.86v-2.13h2.58l.33-3.57h2.19v3.57h4.38v2.13H45.96v8.19a2.474,2.474,0,0,0,.57,1.9,3.107,3.107,0,0,0,2.01.5H50.1V0Zm7.26-18.18a1.688,1.688,0,0,1-1.245-.495,1.688,1.688,0,0,1-.495-1.245,1.6,1.6,0,0,1,.495-1.2,1.716,1.716,0,0,1,1.245-.48,1.73,1.73,0,0,1,1.23.48,1.58,1.58,0,0,1,.51,1.2,1.662,1.662,0,0,1-.51,1.245A1.7,1.7,0,0,1,55.08-18.18ZM53.82,0V-14.88h2.52V0ZM67.5.36A7.482,7.482,0,0,1,63.72-.6a6.935,6.935,0,0,1-2.655-2.715A8.36,8.36,0,0,1,60.09-7.44a8.258,8.258,0,0,1,.99-4.125,7.008,7.008,0,0,1,2.685-2.715,7.564,7.564,0,0,1,3.795-.96,7.482,7.482,0,0,1,3.78.96A6.935,6.935,0,0,1,74-11.565,8.36,8.36,0,0,1,74.97-7.44a8.258,8.258,0,0,1-.99,4.125A7.008,7.008,0,0,1,71.295-.6,7.564,7.564,0,0,1,67.5.36Zm0-2.16a4.781,4.781,0,0,0,2.4-.63,4.7,4.7,0,0,0,1.8-1.89,6.427,6.427,0,0,0,.69-3.12,6.545,6.545,0,0,0-.675-3.12,4.6,4.6,0,0,0-1.785-1.89,4.726,4.726,0,0,0-2.37-.63,4.781,4.781,0,0,0-2.4.63,4.7,4.7,0,0,0-1.8,1.89,6.427,6.427,0,0,0-.69,3.12,6.427,6.427,0,0,0,.69,3.12,4.734,4.734,0,0,0,1.785,1.89A4.644,4.644,0,0,0,67.5-1.8ZM78.48,0V-14.88h2.28l.15,2.67a5.4,5.4,0,0,1,2.07-2.22,5.831,5.831,0,0,1,3.06-.81,5.637,5.637,0,0,1,4.215,1.605A6.8,6.8,0,0,1,91.83-8.7V0H89.31V-8.43q0-4.65-3.84-4.65a4.147,4.147,0,0,0-3.195,1.4A5.685,5.685,0,0,0,81-7.71V0Z" transform="translate(419 769)" fill="#fff4de"/>
    </g>
    <rect id="Rectangle_34" data-name="Rectangle 34" width="260.943" height="41.881" rx="20.94" transform="translate(39.557 722.71)" fill="none"/>
  </g>
</svg>
