<svg xmlns="http://www.w3.org/2000/svg" width="116" height="48" viewBox="0 0 116 48">
  <g id="hot-label" transform="translate(-828 -509)">
    <g id="Group_31" data-name="Group 31" transform="translate(-65 -27)">
      <rect id="Rectangle_16" data-name="Rectangle 16" width="116" height="48" rx="19" transform="translate(893 536)" fill="#e85845"/>
    </g>
    <path id="Path_49" data-name="Path 49" d="M2.15-19.45H3.975v7.525H13.1V-19.45h1.8V-1.5H13.1v-8.675H3.975V-1.5H2.15Zm16.2,11.4a6.923,6.923,0,0,1,2.013-5,6.568,6.568,0,0,1,4.9-2.075,6.568,6.568,0,0,1,4.9,2.075,6.893,6.893,0,0,1,2.012,4.975,6.9,6.9,0,0,1-1.987,4.963A6.55,6.55,0,0,1,25.275-1.05,6.591,6.591,0,0,1,20.35-3.112,6.843,6.843,0,0,1,18.35-8.05Zm12.1.025a5.34,5.34,0,0,0-1.537-3.812,4.875,4.875,0,0,0-3.65-1.612,4.836,4.836,0,0,0-3.638,1.612A5.393,5.393,0,0,0,20.1-8a5.273,5.273,0,0,0,1.475,3.775,4.851,4.851,0,0,0,3.663,1.55,4.952,4.952,0,0,0,3.7-1.562A5.245,5.245,0,0,0,30.45-8.025ZM38.575-3.6q0,.675.175.8a1.925,1.925,0,0,0,.9.125h1.025v1.45a10.679,10.679,0,0,1-1.65.175,2.189,2.189,0,0,1-1.65-.55,2.428,2.428,0,0,1-.525-1.725v-10H34.5v-1.45h2.35V-19.9h1.725v5.125h2.7v1.45h-2.7Zm7.9-16.3V-6H44.7V-19.9ZM44.1-2.675a1.427,1.427,0,0,1,.45-1.062,1.488,1.488,0,0,1,1.075-.437,1.447,1.447,0,0,1,1.063.437,1.447,1.447,0,0,1,.438,1.063,1.467,1.467,0,0,1-.45,1.075,1.453,1.453,0,0,1-1.062.45A1.453,1.453,0,0,1,44.55-1.6,1.467,1.467,0,0,1,44.1-2.675Z" transform="translate(861.087 543)" fill="#fff"/>
  </g>
</svg>
