<svg xmlns="http://www.w3.org/2000/svg" width="260.943" height="41.881" viewBox="0 0 260.943 41.881"><g transform="translate(-903.443 -722.71)"><g transform="translate(500.443 -15.29)"><rect width="160" height="41.881" rx="20.94" transform="translate(403 738)" fill="#ffc247"/><path d="M2.22,0V-21H4.74v9.51L13.5-21h3.18l-7.8,8.37L16.8,0H13.74L7.08-10.68,4.74-8.19V0ZM21.06-18.18a1.688,1.688,0,0,1-1.245-.495,1.688,1.688,0,0,1-.495-1.245,1.6,1.6,0,0,1,.495-1.2,1.716,1.716,0,0,1,1.245-.48,1.73,1.73,0,0,1,1.23.48,1.58,1.58,0,0,1,.51,1.2,1.662,1.662,0,0,1-.51,1.245A1.7,1.7,0,0,1,21.06-18.18ZM19.8,0V-14.88h2.52V0ZM33.45.36A7.287,7.287,0,0,1,29.565-.66a6.945,6.945,0,0,1-2.58-2.79,8.626,8.626,0,0,1-.915-4.02,8.423,8.423,0,0,1,.93-4,7,7,0,0,1,2.58-2.76,7.351,7.351,0,0,1,3.9-1.005,6.8,6.8,0,0,1,3.24.75,5.4,5.4,0,0,1,2.19,2.1V-21.6h2.52V0H39.15l-.24-2.46A6.967,6.967,0,0,1,36.84-.51,6.141,6.141,0,0,1,33.45.36Zm.27-2.19a4.993,4.993,0,0,0,2.655-.705,4.821,4.821,0,0,0,1.8-1.965,6.369,6.369,0,0,0,.645-2.94,6.369,6.369,0,0,0-.645-2.94,4.821,4.821,0,0,0-1.8-1.965,4.993,4.993,0,0,0-2.655-.7,4.937,4.937,0,0,0-2.625.7,4.821,4.821,0,0,0-1.8,1.965,6.369,6.369,0,0,0-.645,2.94,6.369,6.369,0,0,0,.645,2.94,4.821,4.821,0,0,0,1.8,1.965A4.937,4.937,0,0,0,33.72-1.83ZM51.24.36A7.109,7.109,0,0,1,46.8-.99a5.264,5.264,0,0,1-2.07-3.66h2.58a3.559,3.559,0,0,0,1.245,2.025,4.052,4.052,0,0,0,2.715.855,3.424,3.424,0,0,0,2.34-.675,2.09,2.09,0,0,0,.75-1.605,1.782,1.782,0,0,0-.975-1.8,12.978,12.978,0,0,0-2.745-.81,15.472,15.472,0,0,1-2.4-.69,5.452,5.452,0,0,1-2.01-1.275,2.971,2.971,0,0,1-.81-2.175A4.015,4.015,0,0,1,46.875-14,5.867,5.867,0,0,1,50.82-15.24a6.119,6.119,0,0,1,3.885,1.185A4.729,4.729,0,0,1,56.46-10.68H53.97A2.6,2.6,0,0,0,53-12.465a3.484,3.484,0,0,0-2.205-.645,3.337,3.337,0,0,0-2.085.57,1.807,1.807,0,0,0-.735,1.5,1.558,1.558,0,0,0,.945,1.41,10.146,10.146,0,0,0,2.565.87,22.343,22.343,0,0,1,2.625.735,4.961,4.961,0,0,1,2.04,1.29,3.506,3.506,0,0,1,.8,2.475A4.065,4.065,0,0,1,55.425-.945,6.277,6.277,0,0,1,51.24.36ZM76.2.36A7.9,7.9,0,0,1,72.36-.5,6.921,6.921,0,0,1,69.855-2.79a10.249,10.249,0,0,1-1.38-3.225A15.339,15.339,0,0,1,68.04-9.66,17.743,17.743,0,0,1,69-15.765a9.281,9.281,0,0,1,2.775-4.11A6.717,6.717,0,0,1,76.17-21.36a6.9,6.9,0,0,1,3.39.78A6.063,6.063,0,0,1,81.795-18.5a7.085,7.085,0,0,1,1.035,2.9H80.49a4.326,4.326,0,0,0-1.47-2.64,4.407,4.407,0,0,0-2.88-.93,4.758,4.758,0,0,0-3.975,2.235Q70.56-14.7,70.44-9.96a6.486,6.486,0,0,1,2.3-2.445A6.756,6.756,0,0,1,76.53-13.44a7.065,7.065,0,0,1,3.375.84,6.9,6.9,0,0,1,2.565,2.355,6.351,6.351,0,0,1,.99,3.555,7.069,7.069,0,0,1-.87,3.39,6.962,6.962,0,0,1-2.5,2.64A7.19,7.19,0,0,1,76.2.36Zm-.18-2.22a5.214,5.214,0,0,0,2.52-.6,4.426,4.426,0,0,0,1.74-1.665,4.711,4.711,0,0,0,.63-2.445,4.389,4.389,0,0,0-1.395-3.405,4.984,4.984,0,0,0-3.5-1.275,4.923,4.923,0,0,0-2.52.645A4.839,4.839,0,0,0,71.745-8.88,4.483,4.483,0,0,0,71.1-6.54a4.569,4.569,0,0,0,.645,2.415A4.533,4.533,0,0,0,73.5-2.46,5.214,5.214,0,0,0,76.02-1.86ZM87.09-7.65V-9.78H98.97v2.13ZM105,0V-18.18l-3.39.75v-1.74L105.84-21h1.71V0Zm6.66,0V-1.77q2.13-1.68,4.035-3.405a43.4,43.4,0,0,0,3.39-3.4,17.091,17.091,0,0,0,2.34-3.3A6.681,6.681,0,0,0,122.28-15a5.639,5.639,0,0,0-.375-2.07,3.308,3.308,0,0,0-1.215-1.545,3.928,3.928,0,0,0-2.28-.585,4.1,4.1,0,0,0-2.31.615,3.823,3.823,0,0,0-1.4,1.635,5.217,5.217,0,0,0-.465,2.19h-2.43a6.913,6.913,0,0,1,.87-3.555,5.8,5.8,0,0,1,2.37-2.265,7.238,7.238,0,0,1,3.39-.78,6.659,6.659,0,0,1,4.575,1.575A5.932,5.932,0,0,1,124.8-15.09a7.983,7.983,0,0,1-.93,3.675,18.362,18.362,0,0,1-2.37,3.51,32.858,32.858,0,0,1-3.075,3.165Q116.79-3.27,115.38-2.1h10.14V0Z" transform="translate(419.5 769.44)" fill="#fff4de"/></g><rect width="260.943" height="41.881" rx="20.94" transform="translate(903.443 722.71)" fill="none"/></g></svg>