<svg xmlns="http://www.w3.org/2000/svg" width="116" height="48" viewBox="0 0 116 48">
  <g id="Group_49" data-name="Group 49" transform="translate(-828 -421)">
    <g id="Group_48" data-name="Group 48">
      <g id="search_bar" data-name="search bar" transform="translate(828 421.297)">
        <rect id="Rectangle_16" data-name="Rectangle 16" width="116" height="48" rx="19" transform="translate(0 -0.297)" fill="#fd9426"/>
      </g>
    </g>
    <path id="Path_49" data-name="Path 49" d="M2.2-1.5V-19.45h.4L14.525-5.7V-19.45H16.3V-1.5h-.4L4.05-15.075V-1.5ZM31.575-5.8l1.45.75a6.846,6.846,0,0,1-6.35,4,6.517,6.517,0,0,1-4.95-2.062,6.966,6.966,0,0,1-1.95-4.963,6.985,6.985,0,0,1,1.962-4.975,6.409,6.409,0,0,1,4.85-2.075,6.655,6.655,0,0,1,4.85,1.925,7.261,7.261,0,0,1,2.037,5.25H21.525a5.533,5.533,0,0,0,1.513,3.862,4.708,4.708,0,0,0,3.488,1.463A5.4,5.4,0,0,0,31.575-5.8Zm0-3.625a4.664,4.664,0,0,0-1.75-2.975A5.15,5.15,0,0,0,26.6-13.475q-3.75,0-4.9,4.05Zm3.275-5.35h1.775L40.675-4.7,44.95-14.775h.3L49.5-4.7l4.125-10.075h1.8L49.65-1.05h-.325L45.1-11,40.85-1.05h-.325ZM60.075-19.9V-6H58.3V-19.9ZM57.7-2.675a1.427,1.427,0,0,1,.45-1.062,1.488,1.488,0,0,1,1.075-.437,1.447,1.447,0,0,1,1.063.437,1.447,1.447,0,0,1,.438,1.063,1.467,1.467,0,0,1-.45,1.075,1.453,1.453,0,0,1-1.062.45A1.453,1.453,0,0,1,58.15-1.6,1.467,1.467,0,0,1,57.7-2.675Z" transform="translate(855 455)" fill="#fff"/>
  </g>
</svg>
