<?xml version="1.0" encoding="utf-8"?>
<!-- Generator: Adobe Illustrator 25.2.1, SVG Export Plug-In . SVG Version: 6.00 Build 0)  -->
<svg version="1.1" id="Layer_1" xmlns="http://www.w3.org/2000/svg" xmlns:xlink="http://www.w3.org/1999/xlink" x="0px" y="0px"
	 viewBox="0 0 252 144" style="enable-background:new 0 0 252 144;" xml:space="preserve">
<style type="text/css">
	.st0{fill:#F6F5DD;}
	.st1{fill:#3FD146;stroke:#208920;stroke-width:0.2;stroke-miterlimit:10;}
	.st2{fill:#443813;}
	.st3{fill:none;stroke:#000000;stroke-width:0.2;}
	.st4{fill:#564113;}
	.st5{fill:#634E1E;}
</style>
<rect class="st0" width="252" height="144"/>
<path id="trunk" class="st1" d="M69.2,85.4c-8-21.9,1.8-43.9,1.8-43.9l-7.1-3c-11.5,20.8-2.7,46.9-2.7,46.9H69.2z"/>
<g id="pot" transform="translate(46.233 102.552)">
	<path class="st2" d="M6.6-19.9h21.9c3.4,0,6.1,2.7,6.1,6.1v23.9c0,3.4-2.7,6.1-6.1,6.1H6.6c-3.4,0-6.1-2.7-6.1-6.1v-23.9
		C0.5-17.2,3.3-19.9,6.6-19.9z"/>
	<path class="st3" d="M6.6-19.8h21.9c3.3,0,6,2.7,6,6v23.9c0,3.3-2.7,6-6,6H6.6c-3.3,0-6-2.7-6-6v-23.9C0.6-17.1,3.3-19.8,6.6-19.8z
		"/>
</g>
<path id="leaf" class="st1" d="M59.8,66.8c0,0-6.6,10.2-25.4,2.7c0,0-5.6-2-5.6,2.7c0,2.9,3.8,4.8,3.8,4.8S55.1,90.1,59.8,66.8z"/>
<path id="leaf-2" class="st1" d="M65.3,66.8c0,0,6.6,10.2,25.4,2.7c0,0,5.6-2,5.6,2.7c0,2.9-3.8,4.8-3.8,4.8S70.1,90.1,65.3,66.8z"
	/>
<path id="leaf-3" class="st1" d="M60.7,54.5c0,0-26.2,0-18.7-20.6c0,0,1.6-5.1,5.6-3.8c0,0,3.9,1.3,3.1,4.5c-1.2,4.9-6.8,12.4,10,18
	L60.7,54.5z"/>
<path id="leaf-4" class="st1" d="M65.6,51.9c0,0,25.5,6,23-15.8c0,0-0.4-5.3-4.6-4.9c0,0-4,0.4-4,3.6c0,5,3.8,13.6-13.9,15.2
	L65.6,51.9z"/>
<path id="leaf-5" class="st1" d="M58,60.7c0,0-8.5,3.2-23.5-4.3c0,0-5.7-3.8-7.5-1.9c-3,3.1,1.9,7.5,1.9,7.5S36.3,71.4,58,60.7z"/>
<path id="leaf-6" class="st1" d="M60.7,60.8c0,0-10.6,13.3-18.6,0c0,0-3.2-6.1,0-8c3.6-2.1,5.3,2.7,5.3,2.7s2.7,8,13.3,3.5V60.8z"/>
<path id="leaf-7" class="st1" d="M67.2,60.7c0,0,8.5,3.2,23.5-4.3c0,0,5.7-3.8,7.5-1.9c3,3.1-1.9,7.5-1.9,7.5S88.8,71.4,67.2,60.7z"
	/>
<path id="leaf-8" class="st1" d="M63.9,42.8c0,0-10.8-8.3-8-13.9c2.1-4.1,5.8-1,5.8-1s2.9,2.1,2.6,5.3
	C63.9,35.9,62.9,36.6,63.9,42.8z"/>
<path id="leaf-9" class="st1" d="M70.2,42.2c0,0,13.5-1.2,11.1-8.3c-1.9-5.6-8.9,0.2-8.9,0.2S73.8,37.6,70.2,42.2z"/>
<path id="leaf-10" class="st1" d="M64.5,60.8c0,0,10.6,13.3,18.6,0c0,0,3.2-6.1,0-8c-3.6-2.1-5.3,2.7-5.3,2.7s-2.7,8-13.3,3.5
	L64.5,60.8z"/>
<path id="leaf-11" class="st1" d="M73.5,32.1c0,0,2.2-3.8,2.2-5.7c0-3.8-4.1-5.4-7.5-3.8c-3.8,1.9-1.9,7.5-1.9,7.5
	S71.7,26.5,73.5,32.1z"/>
<path id="leaf-12" class="st1" d="M64.2,48.5c13.3-7.3,9.7-16.7,9.7-16.7s-1.8-5.7-7.5-2C59.7,34.1,64.2,48.5,64.2,48.5L64.2,48.5z"
	/>
<path id="pot-2" class="st4" d="M60.2,84.8h14.2c2.6,0,4.7,2.1,4.7,4.7v22.4c0,2.6-2.1,4.7-4.7,4.7H60.2c-2.6,0-4.7-2.1-4.7-4.7
	V89.6C55.4,86.9,57.5,84.8,60.2,84.8z"/>
<path id="pot-3" class="st5" d="M73.3,86.6L73.3,86.6c2,0,3.6,1.6,3.6,3.6v21.1c0,2-1.6,3.6-3.6,3.6l0,0c-2,0-3.6-1.6-3.6-3.6V90.2
	C69.7,88.2,71.3,86.6,73.3,86.6z"/>
<path id="leaf-13" class="st1" d="M61.5,73.7c0,0-1,11.2-8.3,12.7c-9.4,1.9-5.6,7.5-5.6,7.5s3.7,5.6,10.4,1.1
	c6.7-4.6,4.6-21.2,4.6-21.2L61.5,73.7z"/>
<g>
	<path d="M110.5,68.6V41.8h9.3c2,0,3.6,0.3,5,0.9c1.4,0.6,2.5,1.5,3.2,2.8c0.7,1.3,1.1,2.9,1.1,5c0,2-0.4,3.7-1.1,5
		c-0.7,1.3-1.8,2.3-3.2,2.9c-1.4,0.6-3.1,0.9-5,0.9H115v9.3H110.5z M115,55.5h4.3c1.8,0,3.1-0.4,4-1.2c0.9-0.8,1.3-2.1,1.3-3.8
		c0-1.7-0.4-2.9-1.3-3.7c-0.9-0.8-2.2-1.2-4.1-1.2H115V55.5z"/>
	<path d="M140.9,69c-2.3,0-4.2-0.5-5.7-1.4s-2.7-2.1-3.4-3.6c-0.8-1.5-1.2-3.2-1.2-5c0-1.7,0.4-3.4,1.1-4.8c0.7-1.5,1.8-2.7,3.2-3.5
		c1.4-0.9,3.1-1.3,5-1.3c1.7,0,3.2,0.4,4.4,1.1c1.2,0.7,2.2,1.7,2.8,2.9c0.6,1.2,1,2.6,1,4.2c0,0.4,0,0.7-0.1,1.1
		c0,0.4-0.1,0.8-0.2,1.2H135c0.2,1.4,0.6,2.5,1.2,3.3c0.6,0.8,1.3,1.4,2.2,1.8c0.9,0.4,1.9,0.5,2.9,0.5c1,0,2-0.1,3-0.4
		s1.8-0.6,2.7-1l0.3,3.5c-0.7,0.4-1.6,0.7-2.7,1C143.5,68.9,142.3,69,140.9,69z M135.2,56.9h8.5c0-0.7-0.1-1.3-0.4-1.9
		c-0.3-0.6-0.7-1.1-1.2-1.5c-0.6-0.4-1.3-0.6-2.2-0.6c-1.3,0-2.4,0.4-3.1,1.1S135.5,55.7,135.2,56.9z"/>
	<path d="M155.7,69c-1.1,0-2-0.2-2.9-0.7c-0.9-0.5-1.5-1.1-2-2c-0.5-0.8-0.7-1.8-0.7-3c0-1.1,0.2-2,0.7-2.8c0.5-0.8,1.1-1.4,2-1.9
		c0.8-0.5,1.7-0.9,2.7-1.2c1-0.3,1.9-0.5,2.9-0.7c1-0.1,1.9-0.2,2.7-0.2c0-1.4-0.3-2.3-0.9-2.8c-0.6-0.5-1.5-0.8-2.7-0.8
		c-0.8,0-1.6,0.1-2.4,0.3c-0.8,0.2-1.7,0.6-2.7,1.2l-0.4-3.5c1-0.6,2.1-1,3.2-1.3c1.1-0.3,2.3-0.5,3.5-0.5c1.5,0,2.7,0.3,3.8,0.8
		c1,0.5,1.8,1.4,2.3,2.6c0.5,1.2,0.8,2.8,0.8,4.8v4.7c0,0.9,0,1.6,0.1,2.1c0.1,0.5,0.3,0.8,0.5,1c0.3,0.2,0.7,0.3,1.2,0.3h0.5
		l-0.5,3.5H166c-0.9,0-1.6-0.1-2.2-0.3c-0.6-0.2-1-0.5-1.4-0.8c-0.4-0.4-0.7-0.8-0.9-1.3c-0.7,0.7-1.5,1.3-2.5,1.8
		C157.9,68.8,156.8,69,155.7,69z M157.2,65.7c0.6,0,1.3-0.2,2-0.5c0.7-0.3,1.3-0.8,1.8-1.3v-4.4c-1.2,0-2.3,0.2-3.3,0.5
		c-1,0.3-1.8,0.7-2.3,1.2c-0.6,0.5-0.9,1.2-0.9,2c0,0.9,0.2,1.5,0.7,1.9C155.6,65.5,156.3,65.7,157.2,65.7z"/>
	<path d="M179.1,69c-2.2,0-4-0.4-5.5-1.3c-1.5-0.9-2.6-2.1-3.3-3.6c-0.7-1.5-1.1-3.1-1.1-4.9c0-1.8,0.4-3.5,1.1-5
		c0.7-1.5,1.8-2.7,3.3-3.6c1.5-0.9,3.4-1.3,5.7-1.3c1,0,2,0.1,2.9,0.3c0.9,0.2,1.6,0.5,2.3,0.9l-0.4,3.5c-0.6-0.3-1.3-0.6-2.1-0.8
		c-0.8-0.2-1.5-0.3-2.4-0.3c-1.9,0-3.4,0.6-4.4,1.7c-1,1.1-1.6,2.6-1.6,4.5c0,1.8,0.5,3.3,1.6,4.5c1,1.2,2.5,1.8,4.4,1.8
		c0.8,0,1.6-0.1,2.3-0.3c0.8-0.2,1.5-0.5,2.2-0.9l0.4,3.6c-0.6,0.3-1.4,0.6-2.3,0.9C181.1,68.9,180.1,69,179.1,69z"/>
	<path d="M187.6,68.6V39.9h4.3v12.7l-1.1-0.6c0.8-0.8,1.7-1.4,2.7-1.9c1-0.5,2.2-0.8,3.6-0.8c1.7,0,3,0.4,4.1,1.1
		c1.1,0.7,1.9,1.8,2.4,3.1c0.5,1.3,0.8,2.8,0.8,4.6v10.6h-4.3V58.4c0-1.9-0.3-3.3-1-4.2c-0.6-0.9-1.7-1.3-3.1-1.3
		c-1.1,0-2.1,0.3-2.9,0.8c-0.8,0.6-1.4,1.3-2,2.3l0.8-2.4v15H187.6z"/>
	<path d="M209.6,77.9l4.3-10.4l-7.9-17.9h4.8l5.2,12.9l5.1-12.9h4.8L214,77.9H209.6z"/>
	<path d="M110.5,114.6V87.8h9.3c2,0,3.6,0.3,5,0.9c1.4,0.6,2.5,1.5,3.2,2.8c0.7,1.3,1.1,2.9,1.1,5c0,2-0.4,3.7-1.1,5
		c-0.7,1.3-1.8,2.3-3.2,2.9c-1.4,0.6-3.1,0.9-5,0.9H115v9.3H110.5z M115,101.5h4.3c1.8,0,3.1-0.4,4-1.2c0.9-0.8,1.3-2.1,1.3-3.8
		c0-1.7-0.4-2.9-1.3-3.7c-0.9-0.8-2.2-1.2-4.1-1.2H115V101.5z"/>
	<path d="M136.9,115c-1.2,0-2.1-0.2-2.8-0.7c-0.7-0.4-1.2-1-1.6-1.8c-0.3-0.7-0.5-1.5-0.5-2.4V85.9h4.3v22.3c0,1,0.1,1.8,0.2,2.2
		c0.1,0.5,0.4,0.8,0.7,0.9c0.4,0.1,0.9,0.2,1.6,0.2l-0.5,3.5H136.9z"/>
	<path d="M146,115c-1.1,0-2-0.2-2.9-0.7c-0.9-0.5-1.5-1.1-2-2c-0.5-0.8-0.7-1.8-0.7-3c0-1.1,0.2-2,0.7-2.8c0.5-0.8,1.1-1.4,2-1.9
		c0.8-0.5,1.7-0.9,2.7-1.2c1-0.3,1.9-0.5,2.9-0.7c1-0.1,1.9-0.2,2.7-0.2c0-1.4-0.3-2.3-0.9-2.8c-0.6-0.5-1.5-0.8-2.7-0.8
		c-0.8,0-1.6,0.1-2.4,0.3c-0.8,0.2-1.7,0.6-2.7,1.2l-0.4-3.5c1-0.6,2.1-1,3.2-1.3c1.1-0.3,2.3-0.5,3.5-0.5c1.5,0,2.7,0.3,3.8,0.8
		c1,0.5,1.8,1.4,2.3,2.6c0.5,1.2,0.8,2.8,0.8,4.8v4.7c0,0.9,0,1.6,0.1,2.1c0.1,0.5,0.3,0.8,0.5,1c0.3,0.2,0.7,0.3,1.2,0.3h0.5
		l-0.5,3.5h-1.2c-0.9,0-1.6-0.1-2.2-0.3c-0.6-0.2-1-0.5-1.4-0.8c-0.4-0.4-0.7-0.8-0.9-1.3c-0.7,0.7-1.5,1.3-2.5,1.8
		C148.2,114.8,147.1,115,146,115z M147.5,111.7c0.6,0,1.3-0.2,2-0.5c0.7-0.3,1.3-0.8,1.8-1.3v-4.4c-1.2,0-2.3,0.2-3.3,0.5
		c-1,0.3-1.8,0.7-2.3,1.2c-0.6,0.5-0.9,1.2-0.9,2c0,0.9,0.2,1.5,0.7,1.9S146.6,111.7,147.5,111.7z"/>
	<path d="M160.6,114.6v-19h3.8l0.4,3.6l-1.2-1.1c0.9-0.9,1.9-1.6,3-2.1c1.1-0.5,2.3-0.7,3.5-0.7c2.6,0,4.4,0.8,5.6,2.4
		c1.2,1.6,1.8,3.7,1.8,6.4v10.6h-4.3v-10.3c0-1.9-0.3-3.2-1-4.1c-0.7-0.9-1.7-1.3-3.2-1.3c-1.2,0-2.2,0.3-3,0.8
		c-0.8,0.5-1.5,1.3-1.9,2.3l0.7-2.3v14.9H160.6z"/>
	<path d="M187.9,115c-1.2,0-2.2-0.2-2.9-0.7c-0.7-0.5-1.3-1.1-1.6-1.8s-0.5-1.5-0.5-2.3V99.1h-2.9l0.4-3.5h2.5v-4.4l4.3-0.4v4.8h4.5
		v3.5h-4.5v9.1c0,1.1,0.1,1.8,0.2,2.3c0.1,0.5,0.4,0.8,0.9,0.9c0.5,0.1,1.2,0.2,2.2,0.2h1.1l-0.4,3.5H187.9z"/>
</g>
</svg>
