<svg xmlns="http://www.w3.org/2000/svg" width="260.943" height="42.113" viewBox="0 0 260.943 42.113">
  <g id="Group_44" data-name="Group 44" transform="translate(-173.557 -722.71)">
    <g id="Group_42" data-name="Group 42" transform="translate(-229.443 -15.29)">
      <rect id="Rectangle_31" data-name="Rectangle 31" width="189" height="41.881" rx="20.94" transform="translate(403 738)" fill="#9f6421"/>
      <path id="Path_45" data-name="Path 45" d="M2.22,0V-21H4.74L15.93-4.17V-21h2.52V0H15.93L4.74-16.83V0Zm27.3.36A7.482,7.482,0,0,1,25.74-.6a6.935,6.935,0,0,1-2.655-2.715A8.36,8.36,0,0,1,22.11-7.44a8.258,8.258,0,0,1,.99-4.125,7.008,7.008,0,0,1,2.685-2.715,7.564,7.564,0,0,1,3.8-.96,7.482,7.482,0,0,1,3.78.96,6.935,6.935,0,0,1,2.655,2.715A8.36,8.36,0,0,1,36.99-7.44,8.258,8.258,0,0,1,36-3.315,7.008,7.008,0,0,1,33.315-.6,7.564,7.564,0,0,1,29.52.36Zm0-2.16a4.781,4.781,0,0,0,2.4-.63,4.7,4.7,0,0,0,1.8-1.89,6.427,6.427,0,0,0,.69-3.12,6.545,6.545,0,0,0-.675-3.12,4.6,4.6,0,0,0-1.785-1.89,4.726,4.726,0,0,0-2.37-.63,4.781,4.781,0,0,0-2.4.63,4.7,4.7,0,0,0-1.8,1.89,6.427,6.427,0,0,0-.69,3.12,6.427,6.427,0,0,0,.69,3.12,4.734,4.734,0,0,0,1.785,1.89A4.644,4.644,0,0,0,29.52-1.8ZM40.5,0V-14.88h2.28l.15,2.67A5.4,5.4,0,0,1,45-14.43a5.831,5.831,0,0,1,3.06-.81,5.637,5.637,0,0,1,4.215,1.605A6.8,6.8,0,0,1,53.85-8.7V0H51.33V-8.43q0-4.65-3.84-4.65a4.147,4.147,0,0,0-3.195,1.4A5.685,5.685,0,0,0,43.02-7.71V0ZM57.36-7.65V-9.78H69.24v2.13ZM73.86,0V-12.75H71.61v-2.13h2.25v-2.58a4.086,4.086,0,0,1,1.08-3.15,4.508,4.508,0,0,1,3.15-.99h1.5v2.16H78.48a2.289,2.289,0,0,0-1.62.465,2.135,2.135,0,0,0-.48,1.575v2.52h9.24V0H83.1V-12.75H76.38V0ZM84.39-17.73a1.7,1.7,0,0,1-1.23-.495,1.662,1.662,0,0,1-.51-1.245,1.58,1.58,0,0,1,.51-1.2,1.73,1.73,0,0,1,1.23-.48,1.716,1.716,0,0,1,1.245.48,1.6,1.6,0,0,1,.5,1.2,1.688,1.688,0,0,1-.5,1.245A1.688,1.688,0,0,1,84.39-17.73ZM96.9.36a7.532,7.532,0,0,1-3.825-.975,7.01,7.01,0,0,1-2.67-2.73,8.3,8.3,0,0,1-.975-4.1,8.3,8.3,0,0,1,.975-4.095,7.01,7.01,0,0,1,2.67-2.73A7.532,7.532,0,0,1,96.9-15.24a7.146,7.146,0,0,1,4.455,1.38,6.014,6.014,0,0,1,2.3,3.69h-2.58a3.307,3.307,0,0,0-1.47-2.145,4.875,4.875,0,0,0-2.73-.765,4.725,4.725,0,0,0-2.37.63,4.7,4.7,0,0,0-1.8,1.89,6.427,6.427,0,0,0-.69,3.12,6.427,6.427,0,0,0,.69,3.12,4.807,4.807,0,0,0,1.8,1.9,4.641,4.641,0,0,0,2.37.645,4.875,4.875,0,0,0,2.73-.765,3.32,3.32,0,0,0,1.47-2.175h2.58a5.957,5.957,0,0,1-2.28,3.66A7.105,7.105,0,0,1,96.9.36ZM112.62,0a4.814,4.814,0,0,1-3.21-.99q-1.17-.99-1.17-3.57v-8.19h-2.58v-2.13h2.58l.33-3.57h2.19v3.57h4.38v2.13h-4.38v8.19a2.474,2.474,0,0,0,.57,1.9,3.107,3.107,0,0,0,2.01.5h1.56V0Zm7.26-18.18a1.688,1.688,0,0,1-1.245-.495,1.688,1.688,0,0,1-.5-1.245,1.6,1.6,0,0,1,.5-1.2,1.716,1.716,0,0,1,1.245-.48,1.73,1.73,0,0,1,1.23.48,1.58,1.58,0,0,1,.51,1.2,1.662,1.662,0,0,1-.51,1.245A1.7,1.7,0,0,1,119.88-18.18ZM118.62,0V-14.88h2.52V0ZM132.3.36a7.482,7.482,0,0,1-3.78-.96,6.935,6.935,0,0,1-2.655-2.715,8.36,8.36,0,0,1-.975-4.125,8.258,8.258,0,0,1,.99-4.125,7.008,7.008,0,0,1,2.685-2.715,7.564,7.564,0,0,1,3.795-.96,7.482,7.482,0,0,1,3.78.96,6.935,6.935,0,0,1,2.655,2.715,8.36,8.36,0,0,1,.975,4.125,8.258,8.258,0,0,1-.99,4.125A7.008,7.008,0,0,1,136.1-.6,7.564,7.564,0,0,1,132.3.36Zm0-2.16a4.781,4.781,0,0,0,2.4-.63,4.7,4.7,0,0,0,1.8-1.89,6.427,6.427,0,0,0,.69-3.12,6.545,6.545,0,0,0-.675-3.12,4.6,4.6,0,0,0-1.785-1.89,4.726,4.726,0,0,0-2.37-.63,4.781,4.781,0,0,0-2.4.63,4.7,4.7,0,0,0-1.8,1.89,6.427,6.427,0,0,0-.69,3.12,6.427,6.427,0,0,0,.69,3.12,4.733,4.733,0,0,0,1.785,1.89A4.644,4.644,0,0,0,132.3-1.8ZM143.28,0V-14.88h2.28l.15,2.67a5.4,5.4,0,0,1,2.07-2.22,5.831,5.831,0,0,1,3.06-.81,5.637,5.637,0,0,1,4.215,1.605A6.8,6.8,0,0,1,156.63-8.7V0h-2.52V-8.43q0-4.65-3.84-4.65a4.147,4.147,0,0,0-3.195,1.4A5.685,5.685,0,0,0,145.8-7.71V0Z" transform="translate(418.5 769.44)" fill="#fff4de"/>
    </g>
    <rect id="Rectangle_33" data-name="Rectangle 33" width="260.943" height="41.881" rx="20.94" transform="translate(173.557 722.942)" fill="none"/>
  </g>
</svg>
