<svg xmlns="http://www.w3.org/2000/svg" width="260.943" height="41.881" viewBox="0 0 260.943 41.881"><g transform="translate(-1072.443 -722.71)"><g transform="translate(669.443 -15.29)"><rect width="168" height="41.881" rx="20.94" transform="translate(403 738)" fill="#cea97a"/><path d="M2.22,0V-21h6.9a8.9,8.9,0,0,1,4.05.81A5.4,5.4,0,0,1,15.525-18a6.326,6.326,0,0,1,.765,3.12,6.365,6.365,0,0,1-.75,3.09,5.39,5.39,0,0,1-2.34,2.2,8.837,8.837,0,0,1-4.08.825H4.74V0ZM4.74-10.89H9.06a4.956,4.956,0,0,0,3.585-1.065A3.953,3.953,0,0,0,13.71-14.88a3.994,3.994,0,0,0-1.065-2.955A4.956,4.956,0,0,0,9.06-18.9H4.74ZM25.35.36A7.482,7.482,0,0,1,21.57-.6a6.935,6.935,0,0,1-2.655-2.715A8.36,8.36,0,0,1,17.94-7.44a8.258,8.258,0,0,1,.99-4.125,7.008,7.008,0,0,1,2.685-2.715,7.564,7.564,0,0,1,3.8-.96,7.482,7.482,0,0,1,3.78.96,6.935,6.935,0,0,1,2.655,2.715A8.36,8.36,0,0,1,32.82-7.44a8.258,8.258,0,0,1-.99,4.125A7.008,7.008,0,0,1,29.145-.6,7.564,7.564,0,0,1,25.35.36Zm0-2.16a4.781,4.781,0,0,0,2.4-.63,4.7,4.7,0,0,0,1.8-1.89,6.427,6.427,0,0,0,.69-3.12,6.545,6.545,0,0,0-.675-3.12,4.6,4.6,0,0,0-1.785-1.89,4.726,4.726,0,0,0-2.37-.63,4.781,4.781,0,0,0-2.4.63,4.7,4.7,0,0,0-1.8,1.89,6.427,6.427,0,0,0-.69,3.12,6.427,6.427,0,0,0,.69,3.12,4.734,4.734,0,0,0,1.785,1.89A4.644,4.644,0,0,0,25.35-1.8ZM36.33,6.6V-14.88h2.28l.24,2.46A7.023,7.023,0,0,1,40.9-14.37a6.125,6.125,0,0,1,3.4-.87,7.21,7.21,0,0,1,3.87,1.02,6.979,6.979,0,0,1,2.565,2.79,8.626,8.626,0,0,1,.915,4.02,8.535,8.535,0,0,1-.915,4,6.865,6.865,0,0,1-2.58,2.76A7.371,7.371,0,0,1,44.28.36a6.884,6.884,0,0,1-3.255-.75,5.187,5.187,0,0,1-2.175-2.1V6.6Zm7.68-8.43a4.916,4.916,0,0,0,2.64-.705A4.962,4.962,0,0,0,48.45-4.5a6.249,6.249,0,0,0,.66-2.94,6.249,6.249,0,0,0-.66-2.94,4.962,4.962,0,0,0-1.8-1.965,4.916,4.916,0,0,0-2.64-.7,4.916,4.916,0,0,0-2.64.7,4.962,4.962,0,0,0-1.8,1.965,6.249,6.249,0,0,0-.66,2.94,6.249,6.249,0,0,0,.66,2.94,4.962,4.962,0,0,0,1.8,1.965A4.916,4.916,0,0,0,44.01-1.83ZM60.6.36a5.587,5.587,0,0,1-4.2-1.605A6.844,6.844,0,0,1,54.84-6.18v-8.7h2.52v8.43q0,4.65,3.81,4.65a4.18,4.18,0,0,0,3.225-1.395A5.685,5.685,0,0,0,65.67-7.17v-7.71h2.52V0H65.91l-.18-2.67A5.18,5.18,0,0,1,63.675-.45,5.91,5.91,0,0,1,60.6.36ZM72.33,0V-21.6h2.52V0ZM83.94.36a6.744,6.744,0,0,1-3.09-.63,4.282,4.282,0,0,1-1.83-1.68,4.517,4.517,0,0,1-.6-2.28,4.041,4.041,0,0,1,1.74-3.51A8.079,8.079,0,0,1,84.9-8.97h4.02v-.18A3.97,3.97,0,0,0,87.9-12.1a3.72,3.72,0,0,0-2.73-1.005,4.352,4.352,0,0,0-2.535.735A3.22,3.22,0,0,0,81.3-10.23H78.72a4.775,4.775,0,0,1,1.095-2.73,6.119,6.119,0,0,1,2.355-1.695,7.75,7.75,0,0,1,3-.585,6.165,6.165,0,0,1,4.695,1.665A6.175,6.175,0,0,1,91.44-9.15V0H89.19l-.15-2.67A5.9,5.9,0,0,1,87.195-.525,5.413,5.413,0,0,1,83.94.36Zm.39-2.13a4.1,4.1,0,0,0,2.475-.75A4.787,4.787,0,0,0,88.38-4.47a6.073,6.073,0,0,0,.54-2.52v-.03H85.11a4.946,4.946,0,0,0-3.135.765A2.385,2.385,0,0,0,81.06-4.35a2.308,2.308,0,0,0,.855,1.875A3.7,3.7,0,0,0,84.33-1.77ZM95.22,0V-14.88H97.5l.21,2.85a5.394,5.394,0,0,1,2.1-2.34,6.511,6.511,0,0,1,3.48-.87v2.64h-.69a6.227,6.227,0,0,0-2.43.465A3.69,3.69,0,0,0,98.4-10.56a5.993,5.993,0,0,0-.66,3.06V0Zm12.42-18.18a1.688,1.688,0,0,1-1.245-.495,1.688,1.688,0,0,1-.5-1.245,1.6,1.6,0,0,1,.5-1.2,1.716,1.716,0,0,1,1.245-.48,1.73,1.73,0,0,1,1.23.48,1.58,1.58,0,0,1,.51,1.2,1.662,1.662,0,0,1-.51,1.245A1.7,1.7,0,0,1,107.64-18.18ZM106.38,0V-14.88h2.52V0Zm12.78,0a4.814,4.814,0,0,1-3.21-.99q-1.17-.99-1.17-3.57v-8.19H112.2v-2.13h2.58l.33-3.57h2.19v3.57h4.38v2.13H117.3v8.19a2.474,2.474,0,0,0,.57,1.9,3.107,3.107,0,0,0,2.01.5h1.56V0Zm7.35,6.6,3.69-8.04h-.87l-5.91-13.44h2.73L131.07-3.3l5.22-11.58h2.61L129.15,6.6Z" transform="translate(417 769.44)" fill="#fff4de"/></g><rect width="260.943" height="41.881" rx="20.94" transform="translate(1072.443 722.71)" fill="none"/></g></svg>