<svg xmlns="http://www.w3.org/2000/svg" width="63" height="61" viewBox="0 0 63 61">
  <g id="search_bar" data-name="search bar" transform="translate(-0.255 0.297)">
    <rect id="Rectangle_16" data-name="Rectangle 16" width="63" height="61" rx="30.5" transform="translate(0.255 -0.297)" fill="#fd9426"/>
    <g id="magnifying_glass" data-name="magnifying glass" transform="translate(15.899 14.387)">
      <g id="Path_19" data-name="Path 19" transform="translate(0 0)" fill="none" stroke-linecap="round">
        <path d="M13.471,0A13.471,13.471,0,1,1,0,13.471,13.471,13.471,0,0,1,13.471,0Z" stroke="none"/>
        <path d="M 13.47118091583252 5 C 8.800161361694336 5 5 8.800161361694336 5 13.47118091583252 C 5 18.1422004699707 8.800161361694336 21.94235992431641 13.47118091583252 21.94235992431641 C 18.1422004699707 21.94235992431641 21.94235992431641 18.1422004699707 21.94235992431641 13.47118091583252 C 21.94235992431641 8.800161361694336 18.1422004699707 5 13.47118091583252 5 M 13.47118091583252 0 C 20.91110992431641 0 26.94236183166504 6.03125 26.94236183166504 13.47118091583252 C 26.94236183166504 20.91110992431641 20.91110992431641 26.94236183166504 13.47118091583252 26.94236183166504 C 6.03125 26.94236183166504 0 20.91110992431641 0 13.47118091583252 C 0 6.03125 6.03125 0 13.47118091583252 0 Z" stroke="none" fill="#fff"/>
      </g>
      <path id="Path_20" data-name="Path 20" d="M0,0,10.391,10.71" transform="translate(21.207 22.212)" fill="none" stroke="#fff" stroke-linecap="round" stroke-width="5"/>
    </g>
  </g>
</svg>
