<svg xmlns="http://www.w3.org/2000/svg" width="65.035" height="62.831" viewBox="0 0 65.035 62.831">
  <g id="search_bar" data-name="search bar" transform="translate(-0.255 0.297)">
    <rect id="Rectangle_16" data-name="Rectangle 16" width="65.035" height="62.831" rx="31.415" transform="translate(0.255 -0.297)"/>
    <g id="magnifying_glass" data-name="magnifying glass" transform="translate(16.227 14.695)">
      <g id="Path_19" data-name="Path 19" fill="none" stroke-linecap="round">
        <path d="M13.754,0A13.754,13.754,0,1,1,0,13.754,13.754,13.754,0,0,1,13.754,0Z" stroke="none"/>
        <path d="M 13.75374126434326 5.000001907348633 C 8.926910400390625 5.000001907348633 5.000001907348633 8.926910400390625 5.000001907348633 13.75374126434326 C 5.000001907348633 18.58057022094727 8.926910400390625 22.50748062133789 13.75374126434326 22.50748062133789 C 18.58057022094727 22.50748062133789 22.50748062133789 18.58057022094727 22.50748062133789 13.75374126434326 C 22.50748062133789 8.926910400390625 18.58057022094727 5.000001907348633 13.75374126434326 5.000001907348633 M 13.75374126434326 1.9073486328125e-06 C 21.34972190856934 1.9073486328125e-06 27.50748062133789 6.157760620117188 27.50748062133789 13.75374126434326 C 27.50748062133789 21.34972190856934 21.34972190856934 27.50748062133789 13.75374126434326 27.50748062133789 C 6.157760620117188 27.50748062133789 1.9073486328125e-06 21.34972190856934 1.9073486328125e-06 13.75374126434326 C 1.9073486328125e-06 6.157760620117188 6.157760620117188 1.9073486328125e-06 13.75374126434326 1.9073486328125e-06 Z" stroke="none" fill="#fff"/>
      </g>
      <path id="Path_20" data-name="Path 20" d="M0,0,10.609,10.934" transform="translate(21.651 22.678)" fill="none" stroke="#fff" stroke-linecap="round" stroke-width="5"/>
    </g>
  </g>
</svg>
