<svg xmlns="http://www.w3.org/2000/svg" width="64" height="64" viewBox="0 0 64 64">
  <g id="search_bar" data-name="search bar" transform="translate(-941.527 -449)">
    <rect id="Rectangle_16" data-name="Rectangle 16" width="64" height="64" rx="32" transform="translate(941.527 449)" fill="#ffe555"/>
    <g id="magnifying_glass" data-name="magnifying glass" transform="translate(957.503 464.304)">
      <g id="Path_19" data-name="Path 19" fill="none" stroke-linecap="round">
        <path d="M13.664,0A13.664,13.664,0,1,1,0,13.664,13.664,13.664,0,0,1,13.664,0Z" stroke="none"/>
        <path d="M 13.66359806060791 4.999998092651367 C 8.886468887329102 4.999998092651367 4.999998092651367 8.886468887329102 4.999998092651367 13.66359806060791 C 4.999998092651367 18.44072723388672 8.886468887329102 22.32719802856445 13.66359806060791 22.32719802856445 C 18.44072723388672 22.32719802856445 22.32719802856445 18.44072723388672 22.32719802856445 13.66359806060791 C 22.32719802856445 8.886468887329102 18.44072723388672 4.999998092651367 13.66359806060791 4.999998092651367 M 13.66359806060791 -1.9073486328125e-06 C 21.20979690551758 -1.9073486328125e-06 27.32719802856445 6.117397308349609 27.32719802856445 13.66359806060791 C 27.32719802856445 21.20979690551758 21.20979690551758 27.32719802856445 13.66359806060791 27.32719802856445 C 6.117397308349609 27.32719802856445 -1.9073486328125e-06 21.20979690551758 -1.9073486328125e-06 13.66359806060791 C -1.9073486328125e-06 6.117397308349609 6.117397308349609 -1.9073486328125e-06 13.66359806060791 -1.9073486328125e-06 Z" stroke="none" fill="#000"/>
      </g>
      <path id="Path_20" data-name="Path 20" d="M0,0,10.539,10.863" transform="translate(21.509 22.529)" fill="none" stroke="#000" stroke-linecap="round" stroke-width="5"/>
    </g>
  </g>
</svg>
