<svg xmlns="http://www.w3.org/2000/svg" xmlns:xlink="http://www.w3.org/1999/xlink" width="77" height="75" viewBox="0 0 77 75">
  <defs>
    <filter id="Rectangle_16" x="0" y="0" width="77" height="75" filterUnits="userSpaceOnUse">
      <feOffset dy="3" input="SourceAlpha"/>
      <feGaussianBlur stdDeviation="3" result="blur"/>
      <feFlood flood-opacity="0.161"/>
      <feComposite operator="in" in2="blur"/>
      <feComposite in="SourceGraphic"/>
    </filter>
  </defs>
  <g id="search_bar" data-name="search bar" transform="translate(8.745 6.297)">
    <g transform="matrix(1, 0, 0, 1, -8.74, -6.3)" filter="url(#Rectangle_16)">
      <rect id="Rectangle_16-2" data-name="Rectangle 16" width="59" height="57" rx="28.5" transform="translate(9 6)" fill="none"/>
    </g>
    <g id="magnifying_glass" data-name="magnifying glass" transform="translate(14.745 13.304)">
      <g id="Path_19" data-name="Path 19" fill="none" stroke-linecap="round">
        <path d="M12.477,0A12.477,12.477,0,1,1,0,12.477,12.477,12.477,0,0,1,12.477,0Z" stroke="none"/>
        <path d="M 12.47741794586182 4.999998092651367 C 8.354358673095703 4.999998092651367 4.999998092651367 8.354358673095703 4.999998092651367 12.47741794586182 C 4.999998092651367 16.60047912597656 8.354358673095703 19.95483779907227 12.47741794586182 19.95483779907227 C 16.60047912597656 19.95483779907227 19.95483779907227 16.60047912597656 19.95483779907227 12.47741794586182 C 19.95483779907227 8.354358673095703 16.60047912597656 4.999998092651367 12.47741794586182 4.999998092651367 M 12.47741794586182 -1.9073486328125e-06 C 19.36850738525391 -1.9073486328125e-06 24.95483779907227 5.586328506469727 24.95483779907227 12.47741794586182 C 24.95483779907227 19.36850738525391 19.36850738525391 24.95483779907227 12.47741794586182 24.95483779907227 C 5.586328506469727 24.95483779907227 -1.9073486328125e-06 19.36850738525391 -1.9073486328125e-06 12.47741794586182 C -1.9073486328125e-06 5.586328506469727 5.586328506469727 -1.9073486328125e-06 12.47741794586182 -1.9073486328125e-06 Z" stroke="none" fill="#000"/>
      </g>
      <path id="Path_20" data-name="Path 20" d="M0,0,9.624,9.92" transform="translate(19.642 20.573)" fill="none" stroke="#000" stroke-linecap="round" stroke-width="5"/>
    </g>
  </g>
</svg>
