<svg xmlns="http://www.w3.org/2000/svg" xmlns:xlink="http://www.w3.org/1999/xlink" width="95.73" height="93.095" viewBox="0 0 95.73 93.095">
  <defs>
    <filter id="Rectangle_16" x="0" y="0" width="95.73" height="93.095" filterUnits="userSpaceOnUse">
      <feOffset dy="3" input="SourceAlpha"/>
      <feGaussianBlur stdDeviation="3" result="blur"/>
      <feFlood flood-opacity="0.161"/>
      <feComposite operator="in" in2="blur"/>
      <feComposite in="SourceGraphic"/>
    </filter>
  </defs>
  <g id="search_bar" data-name="search bar" transform="translate(8.745 6.297)">
    <g transform="matrix(1, 0, 0, 1, -8.74, -6.3)" filter="url(#Rectangle_16)">
      <rect id="Rectangle_16-2" data-name="Rectangle 16" width="77.73" height="75.095" rx="35" transform="translate(9 6)" fill="none"/>
    </g>
    <g id="magnifying_glass" data-name="magnifying glass" transform="translate(19.345 17.622)">
      <g id="Path_19" data-name="Path 19" fill="none" stroke-linecap="round">
        <path d="M16.438,0A16.438,16.438,0,1,1,0,16.438,16.438,16.438,0,0,1,16.438,0Z" stroke="none"/>
        <path d="M 16.4384708404541 7 C 11.23408317565918 7 7 11.23408317565918 7 16.4384708404541 C 7 21.64286041259766 11.23408317565918 25.8769416809082 16.4384708404541 25.8769416809082 C 21.64286041259766 25.8769416809082 25.8769416809082 21.64286041259766 25.8769416809082 16.4384708404541 C 25.8769416809082 11.23408317565918 21.64286041259766 7 16.4384708404541 7 M 16.4384708404541 0 C 25.51718902587891 0 32.8769416809082 7.359752655029297 32.8769416809082 16.4384708404541 C 32.8769416809082 25.51718902587891 25.51718902587891 32.8769416809082 16.4384708404541 32.8769416809082 C 7.359752655029297 32.8769416809082 0 25.51718902587891 0 16.4384708404541 C 0 7.359752655029297 7.359752655029297 0 16.4384708404541 0 Z" stroke="none" fill="#000"/>
      </g>
      <path id="Path_20" data-name="Path 20" d="M0,0,12.679,13.069" transform="translate(25.878 27.104)" fill="none" stroke="#000" stroke-linecap="round" stroke-width="7"/>
    </g>
  </g>
</svg>
