<svg xmlns="http://www.w3.org/2000/svg" xmlns:xlink="http://www.w3.org/1999/xlink" width="64" height="64" viewBox="0 0 64 64">
  <defs>
    <linearGradient id="linear-gradient" x1="0.5" y1="0.19" x2="0.5" y2="-2.715" gradientUnits="objectBoundingBox">
      <stop offset="0" stop-color="#c3a579"/>
      <stop offset="0.537" stop-color="#857153"/>
      <stop offset="1" stop-color="#62533d"/>
    </linearGradient>
    <filter id="Path_19" x="6.976" y="7.304" width="45.327" height="45.327" filterUnits="userSpaceOnUse">
      <feOffset dy="1" input="SourceAlpha"/>
      <feGaussianBlur stdDeviation="3" result="blur"/>
      <feFlood flood-opacity="0.161"/>
      <feComposite operator="in" in2="blur"/>
      <feComposite in="SourceGraphic"/>
    </filter>
  </defs>
  <g id="search_bar" data-name="search bar" transform="translate(-941.527 -449)">
    <rect id="Rectangle_16" data-name="Rectangle 16" width="64" height="64" rx="32" transform="translate(941.527 449)" fill="url(#linear-gradient)"/>
    <g id="magnifying_glass" data-name="magnifying glass" transform="translate(957.503 464.304)">
      <g transform="matrix(1, 0, 0, 1, -15.98, -15.3)" filter="url(#Path_19)">
        <g id="Path_19-2" data-name="Path 19" transform="translate(15.98 15.3)" fill="none" stroke-linecap="round">
          <path d="M13.664,0A13.664,13.664,0,1,1,0,13.664,13.664,13.664,0,0,1,13.664,0Z" stroke="none"/>
          <path d="M 13.66359806060791 4.999998092651367 C 8.886468887329102 4.999998092651367 4.999998092651367 8.886468887329102 4.999998092651367 13.66359806060791 C 4.999998092651367 18.44072723388672 8.886468887329102 22.32719802856445 13.66359806060791 22.32719802856445 C 18.44072723388672 22.32719802856445 22.32719802856445 18.44072723388672 22.32719802856445 13.66359806060791 C 22.32719802856445 8.886468887329102 18.44072723388672 4.999998092651367 13.66359806060791 4.999998092651367 M 13.66359806060791 -1.9073486328125e-06 C 21.20979690551758 -1.9073486328125e-06 27.32719802856445 6.117397308349609 27.32719802856445 13.66359806060791 C 27.32719802856445 21.20979690551758 21.20979690551758 27.32719802856445 13.66359806060791 27.32719802856445 C 6.117397308349609 27.32719802856445 -1.9073486328125e-06 21.20979690551758 -1.9073486328125e-06 13.66359806060791 C -1.9073486328125e-06 6.117397308349609 6.117397308349609 -1.9073486328125e-06 13.66359806060791 -1.9073486328125e-06 Z" stroke="none" fill="#fff"/>
        </g>
      </g>
      <path id="Path_20" data-name="Path 20" d="M0,0,10.539,10.863" transform="translate(21.509 22.529)" fill="none" stroke="#fff" stroke-linecap="round" stroke-width="5"/>
    </g>
  </g>
</svg>
