<svg xmlns="http://www.w3.org/2000/svg" width="260.943" height="41.881" viewBox="0 0 260.943 41.881">
  <g id="Group_38" data-name="Group 38" transform="translate(-403 -738)">
    <path id="Path_50" data-name="Path 50" d="M20.94,0H240a20.94,20.94,0,0,1,0,41.881H20.94A20.94,20.94,0,0,1,20.94,0Z" transform="translate(403 738)" fill="#9f6421"/>
    <path id="Path_47" data-name="Path 47" d="M7.14,0V-18.93H.87V-21H15.93v2.07H9.66V0ZM22.86.36a7.289,7.289,0,0,1-3.78-.975A6.922,6.922,0,0,1,16.485-3.33a8.487,8.487,0,0,1-.945-4.11,8.621,8.621,0,0,1,.93-4.095,6.762,6.762,0,0,1,2.595-2.73,7.487,7.487,0,0,1,3.855-.975,6.953,6.953,0,0,1,3.735.975A6.606,6.606,0,0,1,29.07-11.7a7.212,7.212,0,0,1,.84,3.42q0,.33-.015.66t-.015.75H18.03a5.847,5.847,0,0,0,.8,2.835A4.7,4.7,0,0,0,20.6-2.34a4.73,4.73,0,0,0,2.265.57,4.508,4.508,0,0,0,2.61-.72A4.119,4.119,0,0,0,27-4.44h2.49A6.716,6.716,0,0,1,27.195-1,6.693,6.693,0,0,1,22.86.36Zm0-13.47a5.032,5.032,0,0,0-3.195,1.1,4.412,4.412,0,0,0-1.6,3.2h9.36a4.256,4.256,0,0,0-1.38-3.15A4.63,4.63,0,0,0,22.86-13.11ZM39.93.36a7.289,7.289,0,0,1-3.78-.975,6.922,6.922,0,0,1-2.6-2.715,8.487,8.487,0,0,1-.945-4.11,8.621,8.621,0,0,1,.93-4.095,6.762,6.762,0,0,1,2.6-2.73,7.487,7.487,0,0,1,3.855-.975,6.953,6.953,0,0,1,3.735.975A6.606,6.606,0,0,1,46.14-11.7a7.212,7.212,0,0,1,.84,3.42q0,.33-.015.66t-.015.75H35.1a5.847,5.847,0,0,0,.8,2.835,4.7,4.7,0,0,0,1.77,1.695,4.73,4.73,0,0,0,2.265.57,4.508,4.508,0,0,0,2.61-.72,4.119,4.119,0,0,0,1.53-1.95h2.49A6.716,6.716,0,0,1,44.265-1,6.693,6.693,0,0,1,39.93.36Zm0-13.47a5.032,5.032,0,0,0-3.195,1.1,4.412,4.412,0,0,0-1.6,3.2h9.36a4.256,4.256,0,0,0-1.38-3.15A4.63,4.63,0,0,0,39.93-13.11ZM50.31,0V-14.88h2.28l.15,2.67a5.4,5.4,0,0,1,2.07-2.22,5.831,5.831,0,0,1,3.06-.81,5.637,5.637,0,0,1,4.215,1.605A6.8,6.8,0,0,1,63.66-8.7V0H61.14V-8.43q0-4.65-3.84-4.65a4.147,4.147,0,0,0-3.195,1.4A5.685,5.685,0,0,0,52.83-7.71V0ZM73.17.36A7.109,7.109,0,0,1,68.73-.99a5.264,5.264,0,0,1-2.07-3.66h2.58a3.559,3.559,0,0,0,1.245,2.025A4.052,4.052,0,0,0,73.2-1.77a3.424,3.424,0,0,0,2.34-.675,2.09,2.09,0,0,0,.75-1.605,1.782,1.782,0,0,0-.975-1.8,12.978,12.978,0,0,0-2.745-.81,15.473,15.473,0,0,1-2.4-.69,5.452,5.452,0,0,1-2.01-1.275,2.971,2.971,0,0,1-.81-2.175A4.015,4.015,0,0,1,68.805-14,5.867,5.867,0,0,1,72.75-15.24a6.119,6.119,0,0,1,3.885,1.185A4.729,4.729,0,0,1,78.39-10.68H75.9a2.6,2.6,0,0,0-.975-1.785,3.484,3.484,0,0,0-2.205-.645,3.337,3.337,0,0,0-2.085.57,1.807,1.807,0,0,0-.735,1.5,1.558,1.558,0,0,0,.945,1.41,10.145,10.145,0,0,0,2.565.87,22.343,22.343,0,0,1,2.625.735,4.961,4.961,0,0,1,2.04,1.29A3.506,3.506,0,0,1,78.87-4.26,4.065,4.065,0,0,1,77.355-.945,6.277,6.277,0,0,1,73.17.36Zm8.07,2.49,7.53-25.77h2.49L83.73,2.85ZM96.06,0V-21h6.9a8.9,8.9,0,0,1,4.05.81A5.4,5.4,0,0,1,109.365-18a6.326,6.326,0,0,1,.765,3.12,6.365,6.365,0,0,1-.75,3.09,5.39,5.39,0,0,1-2.34,2.2,8.837,8.837,0,0,1-4.08.825H98.58V0Zm2.52-10.89h4.32a4.956,4.956,0,0,0,3.585-1.065,3.953,3.953,0,0,0,1.065-2.925,3.994,3.994,0,0,0-1.065-2.955A4.956,4.956,0,0,0,102.9-18.9H98.58ZM113.28,0V-14.88h2.28l.21,2.85a5.394,5.394,0,0,1,2.1-2.34,6.511,6.511,0,0,1,3.48-.87v2.64h-.69a6.227,6.227,0,0,0-2.43.465,3.69,3.69,0,0,0-1.77,1.575,5.993,5.993,0,0,0-.66,3.06V0Zm17.01.36a7.289,7.289,0,0,1-3.78-.975,6.922,6.922,0,0,1-2.6-2.715,8.487,8.487,0,0,1-.945-4.11,8.621,8.621,0,0,1,.93-4.095,6.762,6.762,0,0,1,2.595-2.73,7.487,7.487,0,0,1,3.855-.975,6.953,6.953,0,0,1,3.735.975A6.606,6.606,0,0,1,136.5-11.7a7.212,7.212,0,0,1,.84,3.42q0,.33-.015.66t-.015.75H125.46a5.847,5.847,0,0,0,.795,2.835,4.7,4.7,0,0,0,1.77,1.695,4.73,4.73,0,0,0,2.265.57,4.508,4.508,0,0,0,2.61-.72,4.119,4.119,0,0,0,1.53-1.95h2.49A6.716,6.716,0,0,1,134.625-1,6.693,6.693,0,0,1,130.29.36Zm0-13.47a5.032,5.032,0,0,0-3.195,1.1,4.412,4.412,0,0,0-1.605,3.2h9.36a4.256,4.256,0,0,0-1.38-3.15A4.63,4.63,0,0,0,130.29-13.11Zm10.08,5.46V-9.78h11.88v2.13ZM161.94,0a4.814,4.814,0,0,1-3.21-.99q-1.17-.99-1.17-3.57v-8.19h-2.58v-2.13h2.58l.33-3.57h2.19v3.57h4.38v2.13h-4.38v8.19a2.474,2.474,0,0,0,.57,1.9,3.107,3.107,0,0,0,2.01.5h1.56V0Zm12,.36a7.289,7.289,0,0,1-3.78-.975,6.922,6.922,0,0,1-2.6-2.715,8.487,8.487,0,0,1-.945-4.11,8.621,8.621,0,0,1,.93-4.095,6.762,6.762,0,0,1,2.6-2.73A7.487,7.487,0,0,1,174-15.24a6.953,6.953,0,0,1,3.735.975A6.606,6.606,0,0,1,180.15-11.7a7.212,7.212,0,0,1,.84,3.42q0,.33-.015.66t-.015.75H169.11a5.847,5.847,0,0,0,.8,2.835,4.7,4.7,0,0,0,1.77,1.695,4.73,4.73,0,0,0,2.265.57,4.508,4.508,0,0,0,2.61-.72,4.119,4.119,0,0,0,1.53-1.95h2.49A6.716,6.716,0,0,1,178.275-1,6.693,6.693,0,0,1,173.94.36Zm0-13.47a5.032,5.032,0,0,0-3.195,1.1,4.412,4.412,0,0,0-1.6,3.2h9.36a4.256,4.256,0,0,0-1.38-3.15A4.63,4.63,0,0,0,173.94-13.11ZM191.01.36a7.289,7.289,0,0,1-3.78-.975,6.922,6.922,0,0,1-2.6-2.715,8.487,8.487,0,0,1-.945-4.11,8.621,8.621,0,0,1,.93-4.095,6.762,6.762,0,0,1,2.6-2.73,7.487,7.487,0,0,1,3.855-.975,6.953,6.953,0,0,1,3.735.975A6.606,6.606,0,0,1,197.22-11.7a7.212,7.212,0,0,1,.84,3.42q0,.33-.015.66t-.015.75H186.18a5.847,5.847,0,0,0,.8,2.835,4.7,4.7,0,0,0,1.77,1.695,4.73,4.73,0,0,0,2.265.57,4.508,4.508,0,0,0,2.61-.72,4.119,4.119,0,0,0,1.53-1.95h2.49A6.716,6.716,0,0,1,195.345-1,6.693,6.693,0,0,1,191.01.36Zm0-13.47a5.032,5.032,0,0,0-3.195,1.1,4.412,4.412,0,0,0-1.6,3.2h9.36a4.256,4.256,0,0,0-1.38-3.15A4.63,4.63,0,0,0,191.01-13.11ZM201.39,0V-14.88h2.28l.15,2.67a5.4,5.4,0,0,1,2.07-2.22,5.831,5.831,0,0,1,3.06-.81,5.637,5.637,0,0,1,4.215,1.605A6.8,6.8,0,0,1,214.74-8.7V0h-2.52V-8.43q0-4.65-3.84-4.65a4.147,4.147,0,0,0-3.195,1.4A5.685,5.685,0,0,0,203.91-7.71V0Zm22.86.36a7.109,7.109,0,0,1-4.44-1.35,5.264,5.264,0,0,1-2.07-3.66h2.58a3.559,3.559,0,0,0,1.245,2.025,4.052,4.052,0,0,0,2.715.855,3.424,3.424,0,0,0,2.34-.675,2.09,2.09,0,0,0,.75-1.605,1.782,1.782,0,0,0-.975-1.8,12.977,12.977,0,0,0-2.745-.81,15.472,15.472,0,0,1-2.4-.69,5.452,5.452,0,0,1-2.01-1.275,2.971,2.971,0,0,1-.81-2.175,4.015,4.015,0,0,1,1.455-3.2,5.867,5.867,0,0,1,3.945-1.245,6.119,6.119,0,0,1,3.885,1.185,4.729,4.729,0,0,1,1.755,3.375h-2.49A2.6,2.6,0,0,0,226-12.465a3.484,3.484,0,0,0-2.2-.645,3.337,3.337,0,0,0-2.085.57,1.807,1.807,0,0,0-.735,1.5,1.558,1.558,0,0,0,.945,1.41,10.145,10.145,0,0,0,2.565.87,22.343,22.343,0,0,1,2.625.735,4.961,4.961,0,0,1,2.04,1.29,3.506,3.506,0,0,1,.795,2.475,4.065,4.065,0,0,1-1.515,3.315A6.277,6.277,0,0,1,224.25.36Z" transform="translate(417.972 769.44)" fill="#fff4de"/>
  </g>
</svg>
