<svg xmlns="http://www.w3.org/2000/svg" width="260.943" height="42.346" viewBox="0 0 260.943 42.346">
  <g id="Group_43" data-name="Group 43" transform="translate(-371.557 -722.71)">
    <g id="Group_37" data-name="Group 37" transform="translate(-31.443 -15.29)">
      <path id="Path_49" data-name="Path 49" d="M20.94,0H232a20.94,20.94,0,0,1,0,41.881H20.94A20.94,20.94,0,0,1,20.94,0Z" transform="translate(403 738)" fill="#9f6421"/>
      <path id="Path_48" data-name="Path 48" d="M2.22,0V-21H4.74v9.27H15.63V-21h2.52V0H15.63V-9.66H4.74V0ZM29.13.36a7.289,7.289,0,0,1-3.78-.975A6.922,6.922,0,0,1,22.755-3.33a8.487,8.487,0,0,1-.945-4.11,8.621,8.621,0,0,1,.93-4.095,6.762,6.762,0,0,1,2.595-2.73,7.487,7.487,0,0,1,3.855-.975,6.953,6.953,0,0,1,3.735.975A6.606,6.606,0,0,1,35.34-11.7a7.212,7.212,0,0,1,.84,3.42q0,.33-.015.66t-.015.75H24.3a5.847,5.847,0,0,0,.8,2.835,4.7,4.7,0,0,0,1.77,1.695,4.73,4.73,0,0,0,2.265.57,4.508,4.508,0,0,0,2.61-.72,4.119,4.119,0,0,0,1.53-1.95h2.49A6.716,6.716,0,0,1,33.465-1,6.693,6.693,0,0,1,29.13.36Zm0-13.47a5.032,5.032,0,0,0-3.195,1.1,4.412,4.412,0,0,0-1.6,3.2h9.36a4.256,4.256,0,0,0-1.38-3.15A4.63,4.63,0,0,0,29.13-13.11ZM44.46.36a6.744,6.744,0,0,1-3.09-.63,4.282,4.282,0,0,1-1.83-1.68,4.517,4.517,0,0,1-.6-2.28,4.041,4.041,0,0,1,1.74-3.51,8.079,8.079,0,0,1,4.74-1.23h4.02v-.18A3.97,3.97,0,0,0,48.42-12.1a3.72,3.72,0,0,0-2.73-1.005,4.352,4.352,0,0,0-2.535.735A3.22,3.22,0,0,0,41.82-10.23H39.24a4.775,4.775,0,0,1,1.1-2.73,6.119,6.119,0,0,1,2.355-1.695,7.75,7.75,0,0,1,3-.585,6.165,6.165,0,0,1,4.695,1.665A6.175,6.175,0,0,1,51.96-9.15V0H49.71l-.15-2.67A5.9,5.9,0,0,1,47.715-.525,5.413,5.413,0,0,1,44.46.36Zm.39-2.13a4.1,4.1,0,0,0,2.475-.75A4.787,4.787,0,0,0,48.9-4.47a6.073,6.073,0,0,0,.54-2.52v-.03H45.63a4.946,4.946,0,0,0-3.135.765A2.385,2.385,0,0,0,41.58-4.35a2.308,2.308,0,0,0,.855,1.875A3.7,3.7,0,0,0,44.85-1.77ZM55.74,0V-21.6h2.52V0ZM68.28,0a4.814,4.814,0,0,1-3.21-.99Q63.9-1.98,63.9-4.56v-8.19H61.32v-2.13H63.9l.33-3.57h2.19v3.57H70.8v2.13H66.42v8.19a2.474,2.474,0,0,0,.57,1.9,3.107,3.107,0,0,0,2.01.5h1.56V0Zm5.73,0V-21.6h2.52v9.27a5.3,5.3,0,0,1,2.13-2.145,6.086,6.086,0,0,1,3-.765,5.51,5.51,0,0,1,4.14,1.605A6.844,6.844,0,0,1,87.36-8.7V0H84.87V-8.43q0-4.65-3.75-4.65a4.321,4.321,0,0,0-3.27,1.4A5.561,5.561,0,0,0,76.53-7.71V0ZM89.94,2.85l7.53-25.77h2.49L92.43,2.85ZM107.46.03,101.7-21h2.7l4.53,18.03L114.09-21h2.79l5.01,18.03L126.48-21h2.7L123.3,0h-2.88l-5.01-17.34L110.28,0Zm29.7.33a7.289,7.289,0,0,1-3.78-.975,6.922,6.922,0,0,1-2.6-2.715,8.487,8.487,0,0,1-.945-4.11,8.621,8.621,0,0,1,.93-4.095,6.762,6.762,0,0,1,2.6-2.73,7.487,7.487,0,0,1,3.855-.975,6.953,6.953,0,0,1,3.735.975A6.606,6.606,0,0,1,143.37-11.7a7.212,7.212,0,0,1,.84,3.42q0,.33-.015.66t-.015.75H132.33a5.847,5.847,0,0,0,.8,2.835,4.7,4.7,0,0,0,1.77,1.695,4.73,4.73,0,0,0,2.265.57,4.508,4.508,0,0,0,2.61-.72,4.119,4.119,0,0,0,1.53-1.95h2.49A6.716,6.716,0,0,1,141.495-1,6.693,6.693,0,0,1,137.16.36Zm0-13.47a5.032,5.032,0,0,0-3.195,1.1,4.412,4.412,0,0,0-1.6,3.2h9.36a4.256,4.256,0,0,0-1.38-3.15A4.63,4.63,0,0,0,137.16-13.11ZM147.54,0V-21.6h2.52V0Zm6.66,0V-21.6h2.52V0Zm6.66,0V-14.88h2.28l.15,2.67a5.4,5.4,0,0,1,2.07-2.22,5.831,5.831,0,0,1,3.06-.81,5.637,5.637,0,0,1,4.215,1.605A6.8,6.8,0,0,1,174.21-8.7V0h-2.52V-8.43q0-4.65-3.84-4.65a4.147,4.147,0,0,0-3.195,1.4A5.685,5.685,0,0,0,163.38-7.71V0Zm23.85.36a7.289,7.289,0,0,1-3.78-.975,6.922,6.922,0,0,1-2.6-2.715,8.487,8.487,0,0,1-.945-4.11,8.621,8.621,0,0,1,.93-4.095,6.762,6.762,0,0,1,2.6-2.73,7.487,7.487,0,0,1,3.855-.975,6.953,6.953,0,0,1,3.735.975A6.606,6.606,0,0,1,190.92-11.7a7.212,7.212,0,0,1,.84,3.42q0,.33-.015.66t-.015.75H179.88a5.847,5.847,0,0,0,.8,2.835,4.7,4.7,0,0,0,1.77,1.695,4.73,4.73,0,0,0,2.265.57,4.508,4.508,0,0,0,2.61-.72,4.119,4.119,0,0,0,1.53-1.95h2.49A6.716,6.716,0,0,1,189.045-1,6.693,6.693,0,0,1,184.71.36Zm0-13.47a5.032,5.032,0,0,0-3.195,1.1,4.412,4.412,0,0,0-1.6,3.2h9.36a4.256,4.256,0,0,0-1.38-3.15A4.63,4.63,0,0,0,184.71-13.11ZM200.79.36a7.109,7.109,0,0,1-4.44-1.35,5.264,5.264,0,0,1-2.07-3.66h2.58a3.559,3.559,0,0,0,1.245,2.025,4.052,4.052,0,0,0,2.715.855,3.424,3.424,0,0,0,2.34-.675,2.09,2.09,0,0,0,.75-1.605,1.782,1.782,0,0,0-.975-1.8,12.977,12.977,0,0,0-2.745-.81,15.472,15.472,0,0,1-2.4-.69,5.452,5.452,0,0,1-2.01-1.275,2.971,2.971,0,0,1-.81-2.175,4.015,4.015,0,0,1,1.455-3.2,5.867,5.867,0,0,1,3.945-1.245,6.119,6.119,0,0,1,3.885,1.185,4.729,4.729,0,0,1,1.755,3.375h-2.49a2.6,2.6,0,0,0-.975-1.785,3.484,3.484,0,0,0-2.2-.645,3.337,3.337,0,0,0-2.085.57,1.807,1.807,0,0,0-.735,1.5,1.558,1.558,0,0,0,.945,1.41,10.145,10.145,0,0,0,2.565.87,22.343,22.343,0,0,1,2.625.735,4.961,4.961,0,0,1,2.04,1.29,3.506,3.506,0,0,1,.795,2.475,4.065,4.065,0,0,1-1.515,3.315A6.277,6.277,0,0,1,200.79.36Zm15,0a7.109,7.109,0,0,1-4.44-1.35,5.264,5.264,0,0,1-2.07-3.66h2.58a3.559,3.559,0,0,0,1.245,2.025,4.052,4.052,0,0,0,2.715.855,3.424,3.424,0,0,0,2.34-.675,2.09,2.09,0,0,0,.75-1.605,1.782,1.782,0,0,0-.975-1.8,12.977,12.977,0,0,0-2.745-.81,15.472,15.472,0,0,1-2.4-.69,5.452,5.452,0,0,1-2.01-1.275,2.971,2.971,0,0,1-.81-2.175,4.015,4.015,0,0,1,1.455-3.2,5.867,5.867,0,0,1,3.945-1.245,6.119,6.119,0,0,1,3.885,1.185,4.729,4.729,0,0,1,1.755,3.375h-2.49a2.6,2.6,0,0,0-.975-1.785,3.484,3.484,0,0,0-2.2-.645,3.337,3.337,0,0,0-2.085.57,1.807,1.807,0,0,0-.735,1.5,1.558,1.558,0,0,0,.945,1.41,10.145,10.145,0,0,0,2.565.87,22.343,22.343,0,0,1,2.625.735,4.961,4.961,0,0,1,2.04,1.29,3.506,3.506,0,0,1,.795,2.475,4.065,4.065,0,0,1-1.515,3.315A6.277,6.277,0,0,1,215.79.36Z" transform="translate(417.972 769.44)" fill="#fff4de"/>
    </g>
    <rect id="Rectangle_32" data-name="Rectangle 32" width="260.943" height="41.881" rx="20.94" transform="translate(371.557 723.175)" fill="none"/>
  </g>
</svg>
